<svg width="32" height="32" viewBox="0 0 32 32" fill="none" xmlns="http://www.w3.org/2000/svg">
<rect width="32" height="32" fill="#2722FF"/>
<path d="M10.9947 14.1986C10.138 14.1986 9.50128 13.606 9.41913 12.7669H12.7903C13.1629 11.2823 12.3355 10.1703 10.848 10.1703C9.58929 10.1703 8.55946 11.2559 8.55946 12.585C8.55946 13.961 9.60691 14.9996 10.9917 14.9996C12.0392 14.9996 12.8431 14.4627 13.2069 13.6412L12.5086 13.204C12.2886 13.7967 11.7604 14.1986 10.9947 14.1986ZM10.848 10.9449C11.6225 10.9449 12.0773 11.3996 12.0597 12.0744H9.46315C9.61866 11.3644 10.1291 10.9449 10.848 10.9449Z" fill="white"/>
<path d="M16.1613 10.1703C15.551 10.1703 15.0405 10.4519 14.6767 10.8451V10.3052H13.8552V14.8617H14.6767V12.4647C14.6767 11.6637 15.2224 10.9713 16.1173 10.9713C16.8655 10.9713 17.3114 11.4466 17.3114 12.1302V14.8647H18.1329V12.0568C18.13 10.8422 17.373 10.1703 16.1613 10.1703Z" fill="white"/>
<path d="M25.7848 14.9996C26.8323 14.9996 27.6362 14.4627 28 13.6412L27.2988 13.204C27.0787 13.7967 26.5506 14.1986 25.7848 14.1986C24.9281 14.1986 24.2914 13.606 24.2093 12.7669H27.5804C27.953 11.2823 27.1257 10.1703 25.6381 10.1703C24.3795 10.1703 23.3496 11.2559 23.3496 12.585C23.3526 13.961 24.4 14.9996 25.7848 14.9996ZM25.6381 10.9449C26.4127 10.9449 26.8675 11.3996 26.8499 12.0744H24.2533C24.4088 11.3644 24.9193 10.9449 25.6381 10.9449Z" fill="white"/>
<path d="M20.7853 10.9505C21.3134 10.9505 21.7682 11.0884 22.2904 11.4962L22.3139 11.417L22.7511 10.2229L22.0763 10.0028L21.953 10.4898C21.6215 10.3167 21.2254 10.1759 20.7941 10.1759C19.6909 10.1759 19.0807 10.6864 19.0807 11.4522C19.0807 12.2092 19.7467 12.5818 20.7765 12.9104C21.6156 13.1656 21.8533 13.4121 21.8533 13.6497C21.8533 14.0312 21.4807 14.2512 20.9496 14.2512C20.266 14.2512 19.6821 13.905 19.3741 13.3769L18.7462 13.8962C19.1276 14.5153 19.8934 15.0082 20.9144 15.0082C22.1173 15.0082 22.7012 14.3715 22.7012 13.5676C22.7012 13.0395 22.3462 12.6023 20.9878 12.1534C20.3775 11.9451 19.9315 11.8248 19.9315 11.4346C19.9286 11.1529 20.1193 10.9505 20.7853 10.9505Z" fill="white"/>
<path d="M6.04205 10.9477C6.57017 10.9477 7.02492 11.0856 7.54719 11.4934L7.57067 11.4142L8.00783 10.22L7.33301 10L7.20977 10.487C6.87823 10.3139 6.48215 10.1731 6.05085 10.1731C4.94768 10.1731 4.33741 10.6836 4.33741 11.4494C4.33741 12.2064 5.00342 12.579 6.03325 12.9076C6.87237 13.1628 7.11003 13.4093 7.11003 13.6469C7.11003 14.0284 6.73741 14.2484 6.20635 14.2484C5.52274 14.2484 4.93887 13.9022 4.6308 13.3741L4 13.8934C4.38142 14.5125 5.14719 15.0054 6.16821 15.0054C7.37114 15.0054 7.95501 14.3687 7.95501 13.5648C7.95501 13.0367 7.60001 12.5995 6.24156 12.1506C5.63129 11.9423 5.18533 11.822 5.18533 11.4318C5.18533 11.1501 5.37604 10.9477 6.04205 10.9477Z" fill="white"/>
<path d="M11.7305 19.8013C11.7305 20.7738 11.0354 21.5104 10.1064 21.5104C9.69447 21.5104 9.33235 21.3304 9.05521 21.0531V21.4132H8.47581V16.9252H9.05521V18.5495C9.33235 18.2722 9.69256 18.0922 10.1064 18.0922C11.0354 18.0922 11.7305 18.8267 11.7305 19.8013ZM11.1263 19.8013C11.1263 19.1371 10.6878 18.6612 10.0815 18.6612C9.47513 18.6612 9.03664 19.1392 9.03664 19.8013C9.03664 20.4655 9.47513 20.9414 10.0815 20.9414C10.6878 20.9414 11.1263 20.4655 11.1263 19.8013Z" fill="white"/>
<path d="M15.3683 20.8293C15.3434 20.8293 15.3227 20.8252 15.302 20.819C15.2379 20.7962 15.2006 20.7404 15.2006 20.6576L15.271 19.8072L15.2999 19.5092L15.4282 18.187H14.853L14.8096 18.6816C14.8096 18.6816 14.8096 18.6795 14.8075 18.6795C14.8054 18.6754 14.8012 18.6692 14.7992 18.665C14.7577 18.605 14.7081 18.5491 14.6544 18.5016C14.3895 18.2657 14.0583 18.1146 13.684 18.1146C12.7632 18.1146 12.0741 18.843 12.0741 19.8072C12.0741 20.7714 12.7653 21.4997 13.684 21.4997C14.0853 21.4997 14.4371 21.328 14.7102 21.0611C14.7143 21.1004 14.7185 21.117 14.7309 21.148C14.733 21.1521 14.733 21.1542 14.733 21.1542C14.764 21.2142 14.8033 21.2659 14.8551 21.3052C14.9192 21.3528 14.9979 21.3839 15.0909 21.3984C15.1261 21.4046 15.1654 21.4067 15.2048 21.4067H15.2999H15.513V20.8314H15.3683V20.8293ZM13.7129 20.939C13.1128 20.939 12.6784 20.4652 12.6784 19.8072C12.6784 19.1492 13.1128 18.6754 13.7129 18.6754C14.3129 18.6754 14.7474 19.1492 14.7474 19.8072C14.7474 20.4652 14.3129 20.939 13.7129 20.939Z" fill="white"/>
<path d="M17.7519 18.0939C17.3214 18.0939 16.9614 18.2925 16.7047 18.5698V18.1891H16.1254V21.4024H16.7047V19.712C16.7047 19.1471 17.0896 18.6587 17.7207 18.6587C18.2483 18.6587 18.5628 18.994 18.5628 19.4761V21.4045H19.1422V19.4243C19.1402 18.5677 18.6062 18.0939 17.7519 18.0939Z" fill="white"/>
<path d="M20.961 19.7431L22.6246 18.1892H21.8653L20.3879 19.5776V16.9229H19.8105V21.4026H20.3879V19.9873L21.9562 21.4026H22.7984L20.961 19.7431Z" fill="white"/>
</svg>
