<svg width="32" height="32" viewBox="0 0 32 32" fill="none" xmlns="http://www.w3.org/2000/svg">
<path d="M20.4002 15.009L18.6627 10.6218L16.404 15.4695C15.6395 16.9985 13.1374 17.4415 11.3912 17.6848L11.7127 17.0332L16.7688 7.4856H20.713L23.5364 13.2802L24.7788 16.0255L27.3329 21.5421L25.5693 21.5334L24.1967 21.5247C23.6233 21.5334 23.0586 21.4899 22.8154 20.8818L22.3289 19.7003L21.5122 17.7109L20.4002 15.009Z" fill="#006645"/>
<path d="M28.0453 23.1145H2V25.3559H28.0453V23.1145Z" fill="#006645"/>
<path d="M29.9479 6L28.9054 6.556L25.2045 8.50202C25.2045 8.50202 23.9274 9.18833 23.1108 9.36209C23.3367 10.0658 23.5625 10.5175 23.7797 10.8737C23.8405 10.978 23.9361 11.0648 24.0403 11.1257C24.1793 11.2125 24.3357 11.256 24.5008 11.2647C24.6659 11.2733 24.8309 11.2386 24.9873 11.1604L29.9653 8.48464L29.9479 6Z" fill="#E20613"/>
<path d="M23.5799 13.2976L20.4437 15.0351C16.5082 17.1809 11.3913 19.2572 6.96062 18.8924C5.08411 18.736 3.96341 18.0323 4.06767 16.8334C4.18929 15.4695 5.3708 14.036 7.43844 12.6026C9.01957 11.5079 10.4096 10.9085 11.1393 10.6565C12.095 10.3177 12.9116 10.17 13.7804 10.1266C13.9889 10.1266 14.1887 10.144 14.3364 10.1874C14.3364 10.1614 14.3277 10.1353 14.319 10.1092C13.9194 7.56378 13.2591 7.22496 12.2079 7.25971C9.27151 7.35528 5.58799 9.37948 3.63329 11.7338C2.58209 12.9935 2.05215 14.5051 2.02609 15.5824C1.99134 17.233 2.64291 19.4831 4.65842 20.6299C6.89981 21.9069 10.1055 21.8201 13.0159 21.1598C16.1434 20.4561 18.88 19.1009 21.5644 17.7369L24.8222 16.0428L29.9827 13.0804L30 9.85729L23.5799 13.2976Z" fill="#008A91"/>
</svg>
