<svg width="32" height="32" viewBox="0 0 32 32" fill="none" xmlns="http://www.w3.org/2000/svg">
<rect width="32" height="32" fill="#FFF000"/>
<path fill-rule="evenodd" clip-rule="evenodd" d="M9.76148 13.4372L6.00943 9.68358L5 10.6883C5.03903 8.95754 5.74463 7.30868 6.96967 6.08549C8.9679 4.14122 10.9598 5.27921 11.647 5.9601L15.261 9.58042L14.3643 10.4756L16.3323 12.4421L18.2988 10.4756L17.4037 9.58042L21.0192 5.9601C21.708 5.27445 23.7031 4.13646 25.6966 6.08073C26.9223 7.30345 27.628 8.9526 27.6663 10.6835L26.6616 9.67882L22.9032 13.4372L21.8684 12.404V9.92801L20.8065 10.9914V13.9848L19.34 15.4498L26.9393 23.0491L23.9317 26.0647L16.3323 18.4574L8.733 26.0568L5.72533 23.0412L13.3247 15.4498L11.8597 13.9848V10.9946L10.7963 9.92801V12.404L9.76148 13.4372Z" fill="#2B2D33"/>
</svg>
