<svg width="32" height="32" viewBox="0 0 32 32" fill="none" xmlns="http://www.w3.org/2000/svg">
<path fill-rule="evenodd" clip-rule="evenodd" d="M17.8071 24.1672V21.0468H18.5526L20.1177 23.1353V21.0468H20.8287V24.1672H20.0486L18.518 22.133V24.1672M25.5044 24.1523V21.0122H26.4425V22.0639L27.6817 21.0122H28.9408L27.3608 22.37L28.9408 24.1326H27.8545L26.714 22.8785L26.4425 23.0661V24.1326M23.5294 8.15538C23.4603 8.12082 23.3073 8.10107 23.1048 8.10107H22.542V8.7133H23.1048C23.3073 8.7133 23.4603 8.67874 23.5294 8.64418C23.6134 8.59481 23.6479 8.51087 23.6479 8.39238C23.6479 8.27388 23.6134 8.20476 23.5294 8.15538ZM3.06912 21.0813H4.58488C4.94037 21.0813 5.21193 21.0961 5.3798 21.1307C5.5526 21.1653 5.72047 21.2492 5.85872 21.3874C5.99202 21.5208 6.06115 21.6936 6.06115 21.8614C6.06115 22.0145 6.01177 22.1478 5.90809 22.2663C5.82416 22.3848 5.68591 22.4885 5.53285 22.5378C5.75503 22.5922 5.94265 22.6909 6.06115 22.8291C6.17964 22.9625 6.24877 23.1155 6.24877 23.3031C6.24877 23.5056 6.16483 23.708 6.01177 23.861C5.85872 24.0339 5.6711 24.1326 5.48348 24.1523C5.28105 24.1869 4.90581 24.2017 4.3627 24.2017H3.06912V21.0813ZM3.83441 22.844V23.6734H4.55032C4.82188 23.6734 5.0095 23.6734 5.10824 23.6586C5.19711 23.6438 5.28105 23.5895 5.35017 23.5253C5.41436 23.4562 5.44892 23.3723 5.44892 23.2686C5.44892 23.1649 5.41436 23.0661 5.35017 22.997C5.28105 22.9279 5.17736 22.8785 5.05887 22.8637C4.94037 22.844 4.73794 22.844 4.44664 22.844H3.83441ZM3.83441 21.5899V22.3206H4.64907C4.87125 22.3206 5.04406 22.286 5.1428 22.2317C5.2613 22.1675 5.31561 22.0836 5.31561 21.9454C5.31561 21.8614 5.28105 21.7775 5.21193 21.7084C5.1428 21.659 5.05887 21.6244 4.95518 21.6047C4.85644 21.6047 4.61451 21.5899 4.27877 21.5899H3.83441ZM27.3756 12.1842H24.9465L23.7911 16.0798L22.463 12.1842H20.0338L19.0611 17.1117L19.0562 12.1842H13.9016L12.7611 13.9814L11.6058 12.1842H3V19.6791H11.2799L12.6426 17.64L14.0547 19.6791H20.9176L21.357 16.9488L22.8382 19.6791H24.6058L26.0524 16.9488L26.5264 19.6791H28.7383L27.3756 12.1842ZM16.2617 18.2868L14.188 15.7737L16.2567 13.3198L16.2617 18.2868ZM9.58147 17.8276H5.74022V16.7414H7.72997V15.1022H5.74022V13.7642H9.76908L11.1614 15.7737L9.58147 17.8276Z" fill="#004785"/>
<path fill-rule="evenodd" clip-rule="evenodd" d="M3.00989 7V10.9104H29V7H3.00989ZM24.1812 9.69578C24.1812 9.79947 24.1861 9.86365 24.2059 9.94759C24.2207 10.0315 24.2552 10.0858 24.3046 10.1352H23.643C23.6084 10.0315 23.5936 9.91303 23.5739 9.75997C23.5739 9.5921 23.5739 9.4736 23.5591 9.40448C23.5393 9.33536 23.5048 9.28599 23.4406 9.25142C23.3715 9.21686 23.253 9.1823 23.0802 9.1823H22.537V10.1352H21.9446V7.7406H23.2184C23.4208 7.7406 23.5739 7.76035 23.6776 7.77516C23.7813 7.79491 23.8652 7.82947 23.9491 7.87885C24.1516 8.01215 24.2552 8.19977 24.2552 8.43676C24.2552 8.57501 24.2207 8.67376 24.1713 8.76263C24.1022 8.84656 23.9985 8.91569 23.8454 8.97987C23.9491 9.03418 24.0331 9.06381 24.0676 9.11812C24.117 9.18237 24.1516 9.23675 24.1516 9.32055C24.1713 9.40448 24.1762 9.57235 24.1812 9.69578ZM16.9282 10.1352L15.9803 9.08355L15.6939 9.32055V10.1352H15.0965V7.72579H15.6939V8.76263L16.8591 7.72579H17.6244L16.4345 8.72807L17.6935 10.1352H16.9282ZM10.5739 9.25142C10.5739 9.42423 10.5591 9.54273 10.5245 9.64147C10.4899 9.72541 10.4554 9.81428 10.3863 9.89822C10.1838 10.1155 9.87772 10.234 9.41855 10.234C9.14699 10.234 8.92481 10.2043 8.75695 10.1352C8.58414 10.0661 8.45083 9.9624 8.36196 9.81428C8.27802 9.66122 8.22865 9.4736 8.22865 9.25142V7.7406H8.82113V9.25142C8.82113 9.43904 8.87544 9.57235 8.95938 9.66122C9.04331 9.74516 9.18156 9.79453 9.38399 9.79453C9.60617 9.79453 9.73947 9.74516 9.84316 9.66122C9.92709 9.5921 9.9814 9.43904 9.9814 9.25142V7.7406H10.5739V9.25142ZM13.8671 24.2017H13.0327L12.692 23.4907H11.1812L10.8553 24.2017H10.0407L11.5169 21.0813H12.3365L13.8671 24.2017ZM12.455 22.9624L11.9267 21.812L11.4182 22.9624H12.455Z" fill="#004785"/>
</svg>
