<svg width="32" height="32" viewBox="0 0 32 32" fill="none" xmlns="http://www.w3.org/2000/svg">
<path d="M17.8521 19.9573C17.7724 19.9175 17.5334 19.7582 17.5334 19.2404C17.5334 18.8023 18.0114 18.3243 18.569 17.7667C19.3656 16.9701 20.2418 16.0939 20.2418 14.8592C20.2293 14.0827 20.081 13.3143 19.8037 12.5889L27.0128 16.0541L17.8521 19.9573ZM17.9716 10.1991L17.6529 10.0398L17.8521 10.3186C17.8521 10.3186 19.0071 12.0711 19.0071 13.6245C19.0071 15.0583 18.2105 15.8549 17.4538 16.5718C16.7368 17.2888 15.9801 18.0455 15.9801 19.3201C15.9859 20.1822 16.2962 21.0145 16.8563 21.67L16.8962 21.7098L16.936 21.67L29.8009 16.1735L30 16.0939L29.8407 16.0142L17.9716 10.1991ZM9.48791 16.8506C9.48791 15.7354 11.3997 14.8193 12.1166 14.5007C11.6596 15.1853 11.4106 15.9877 11.3997 16.8108C11.4417 17.6471 11.733 18.4516 12.2361 19.1209C11.4794 18.9218 9.48791 18.1252 9.48791 16.8506ZM16.4979 15.8947C17.175 14.9388 17.8919 13.9431 17.8919 13.0669C17.8919 11.6728 16.4979 10.1195 16.458 10.0398L16.4182 10L16.3784 10.0398L2.19915 16.0142L2 16.0939L2.19915 16.1735L14.8649 21.2717L14.9445 21.1124C14.9047 21.0725 12.7937 18.9616 12.7937 17.2489C12.7937 15.8549 13.5505 15.1778 14.3073 14.5405C14.8346 14.1321 15.2691 13.6162 15.5818 13.027C15.731 12.6193 15.7987 12.1863 15.7809 11.7525C15.964 11.9262 16.1083 12.1367 16.2044 12.37C16.3005 12.6034 16.3462 12.8544 16.3386 13.1067C16.3386 13.7041 15.8208 14.4609 15.2632 15.2575C14.6259 16.1735 13.9488 17.0896 13.9488 17.9659C13.9488 19.5989 15.9403 21.7895 16.0199 21.8691L16.1792 21.7496C16.1792 21.7098 15.2233 19.8378 15.2233 18.3642C15.2632 17.6871 15.8606 16.8108 16.4979 15.8947Z" fill="#005495"/>
</svg>
