<svg width="32" height="32" viewBox="0 0 32 32" fill="none" xmlns="http://www.w3.org/2000/svg">
<rect width="32" height="32" fill="#098559"/>
<mask id="mask0_395_37707" style="mask-type:luminance" maskUnits="userSpaceOnUse" x="3" y="3" width="26" height="26">
<path d="M3 3H29V29H3V3Z" fill="white"/>
</mask>
<g mask="url(#mask0_395_37707)">
<path d="M3 3H29V29H3V3Z" fill="url(#paint0_linear_395_37707)"/>
</g>
<mask id="mask1_395_37707" style="mask-type:luminance" maskUnits="userSpaceOnUse" x="3" y="3" width="26" height="25">
<path d="M5.28981 3.60461C4.79399 3.60461 4.46929 4.04903 4.3925 4.63615C4.3925 4.63615 3.75339 8.02159 3.75339 15.1577C3.75339 22.2968 4.3925 26.9073 4.3925 26.9073C4.45055 27.4714 4.79399 27.7907 5.28981 27.7907H27.4485C27.9437 27.7907 28.3373 27.5204 28.3464 26.9073C28.3464 26.9073 28.0997 21.5579 28.0997 16.214C28.0997 10.8701 28.3464 4.66699 28.3464 4.66699C28.3579 4.11978 27.9437 3.60461 27.4485 3.60461H5.28981Z" fill="white"/>
</mask>
<g mask="url(#mask1_395_37707)">
<path d="M3.75339 3.60461H28.3579V27.7907H3.75339V3.60461Z" fill="url(#paint1_linear_395_37707)"/>
</g>
<mask id="mask2_395_37707" style="mask-type:luminance" maskUnits="userSpaceOnUse" x="15" y="6" width="12" height="9">
<path d="M17.7342 6.28385C18.4337 6.57711 21.243 8.09599 21.587 8.58153C20.1733 8.76836 17.4016 9.48971 15.9081 10.2165L15.821 10.3925C17.4675 10.0303 19.7688 9.84041 21.356 9.75455C20.7635 10.6234 20.371 11.0376 19.4695 12.0208L19.3861 12.2119C21.1033 11.1803 21.587 11.1059 23.1706 10.179C23.7686 11.0636 23.9119 13.1013 23.9355 14.7169C24.45 13.6926 25.0752 9.83134 24.8152 9.13418C25.8655 8.41404 26.0076 7.83297 26.0076 7.83297C25.045 7.91641 24.5141 7.93213 23.9947 8.09599C22.7649 7.3426 19.9448 6.34674 17.8158 6.10669L17.7342 6.28385Z" fill="white"/>
</mask>
<g mask="url(#mask2_395_37707)">
<path d="M15.821 6.10669H26.0076V14.7169H15.821V6.10669Z" fill="url(#paint2_linear_395_37707)"/>
</g>
<mask id="mask3_395_37707" style="mask-type:luminance" maskUnits="userSpaceOnUse" x="5" y="18" width="7" height="8">
<path d="M7.24767 18.2794C7.1086 19.5667 7.05236 20.4858 7.23678 21.5149C6.71618 21.6588 6.25967 21.6788 5.84004 21.8572L5.76022 22.0337C6.42776 22.4461 6.97134 22.7611 7.72594 23.1136C8.12985 23.9813 8.54827 24.566 9.22427 25.2347L9.3065 25.0558C9.18497 24.563 9.02715 24.1554 9.08641 23.6155C9.92567 23.8604 10.6464 23.9898 11.6024 24.0182L11.6828 23.8398C10.8429 23.5139 10.0019 23.2563 9.32101 22.6154C9.53567 22.0204 9.78055 21.5536 10.1802 20.9647L10.2643 20.7833C9.54232 20.8921 8.88687 21.1564 8.26227 21.2779C7.76948 20.412 7.57841 19.2275 7.3299 18.0992L7.24767 18.2794Z" fill="white"/>
</mask>
<g mask="url(#mask3_395_37707)">
<path d="M5.76022 18.0992H11.6828V25.2347H5.76022V18.0992Z" fill="url(#paint3_linear_395_37707)"/>
</g>
<mask id="mask4_395_37707" style="mask-type:luminance" maskUnits="userSpaceOnUse" x="7" y="11" width="11" height="7">
<path d="M11.5347 12.4404C11.5347 12.4404 10.9935 12.3594 10.0986 12.3866C9.3428 12.421 8.21513 12.4882 7.66671 12.6496L7.58629 12.8262C8.4588 12.863 9.65299 13.097 10.1095 13.556C10.1095 13.556 8.78592 14.7502 7.47504 17.3623C7.47504 17.3623 9.85252 15.1317 10.8829 14.579C10.8829 14.579 11.4222 16.3767 11.7971 17.2752L11.8793 17.098C11.9833 16.5206 12.2409 14.9563 12.6799 13.9974C12.6799 13.9974 12.8353 13.9097 13.5953 13.8365C14.3578 13.7682 15.4353 13.7428 17.4814 14.102L17.5649 13.955C17.0969 13.6793 15.2357 12.6744 13.264 12.6744H13.3287C13.5989 11.4651 13.9369 11.2196 13.9369 11.2196C13.5191 11.2789 12.3298 11.8061 11.5347 12.4404Z" fill="white"/>
</mask>
<g mask="url(#mask4_395_37707)">
<path d="M7.47504 11.2196H17.5649V17.3623H7.47504V11.2196Z" fill="url(#paint4_linear_395_37707)"/>
</g>
<mask id="mask5_395_37707" style="mask-type:luminance" maskUnits="userSpaceOnUse" x="13" y="22" width="6" height="4">
<path d="M16.5152 23.4336C16.4848 23.0881 16.4616 22.7419 16.4456 22.3954C16.0628 22.9198 15.6548 23.4253 15.223 23.9101C14.7405 24.0443 14.1891 24.0389 13.6866 24.0334C13.4976 24.0299 13.3085 24.0303 13.1194 24.0346L13.0372 24.2136C13.4849 24.4417 13.9621 24.6063 14.4551 24.7028C14.0579 25.065 13.5264 25.3407 13.1539 25.5922L13.0711 25.7682C13.871 25.5789 14.9237 25.2397 15.7085 24.7759C16.0661 24.7957 16.4248 24.7744 16.7776 24.7125C16.7776 24.7125 16.8616 24.5298 16.8616 24.5347C16.8096 24.3533 16.65 24.2432 16.6022 23.9905C17.3375 23.4197 17.8696 22.8997 18.4851 22.2818L18.5704 22.1022C17.9627 22.5206 17.2256 23.0968 16.5152 23.4336Z" fill="white"/>
</mask>
<g mask="url(#mask5_395_37707)">
<path d="M13.0372 22.1017H18.5704V25.7677H13.0372V22.1017Z" fill="url(#paint5_linear_395_37707)"/>
</g>
<path d="M23.2516 9.99883C21.6716 10.9276 21.1879 11.0056 19.4695 12.0341C20.4702 10.9487 20.8178 10.4868 21.437 9.57799C19.8534 9.66204 17.5515 9.8525 15.9081 10.2165C17.3387 9.45283 20.1745 8.60329 21.6716 8.40074C21.3245 7.92185 18.5147 6.39995 17.8157 6.10669C20.0403 6.27962 22.7594 7.11102 24.0775 7.91701C24.5963 7.75497 25.135 7.74711 26.1001 7.66125C25.8546 8.08329 25.8437 8.32757 24.8968 8.9552C25.1592 9.6572 24.5328 13.5149 24.0152 14.5367C23.9965 12.9229 23.855 10.8846 23.2516 9.99883ZM11.6828 23.8399C10.7752 23.5031 10.121 23.1119 9.40142 22.4389C9.61668 21.8439 9.86277 21.3796 10.2637 20.7834C9.52598 20.894 8.98179 20.9769 8.3457 21.0978C7.82812 20.192 7.59352 19.3177 7.32989 18.1005C7.1884 19.3903 7.13519 20.3112 7.31719 21.3379C6.7331 21.5005 6.32012 21.642 5.84003 21.8585C6.513 22.2702 7.05659 22.5871 7.80756 22.9378C8.21147 23.8036 8.62928 24.3883 9.30649 25.0565C9.14747 24.4875 9.10575 24.0358 9.17105 23.439C10.0109 23.6821 10.7298 23.8109 11.6828 23.8399ZM14.047 11.008C13.764 11.375 13.4363 12.0595 13.3474 12.3775C15.6874 12.695 17.5648 13.8964 17.5648 13.8964C15.5187 13.5336 14.4406 13.579 13.6769 13.6473C12.9187 13.7192 12.7627 13.8081 12.7627 13.8081C12.2106 15.0174 11.8793 17.0944 11.8793 17.0944C11.5074 16.1965 10.9693 14.3989 10.9693 14.3989C9.93714 14.9515 7.56207 17.1845 7.56207 17.1845C8.86752 14.57 10.1929 13.3806 10.1929 13.3806C9.737 12.9187 8.54161 12.6883 7.66728 12.6496C8.12077 12.4646 9.28533 12.2475 10.1802 12.2064C11.0757 12.181 11.6175 12.2318 11.6175 12.2318C12.4162 11.6012 13.6291 11.0697 14.047 11.008ZM16.529 22.2188C16.1459 22.7433 15.7366 23.2482 15.3028 23.7317C14.5938 23.939 13.8581 24.0411 13.1194 24.0346C13.5673 24.2637 14.0449 24.4292 14.5385 24.5262C14.1093 24.9214 13.6459 25.2779 13.1539 25.5916C13.9544 25.4023 15.0059 25.0625 15.7896 24.5993C16.1983 24.6151 16.581 24.5885 16.8616 24.5334C16.7875 24.2965 16.7281 24.0552 16.6838 23.8109C17.4215 23.2401 17.9566 22.7225 18.5704 22.1015C17.9489 22.5445 17.2888 22.9304 16.598 23.2546C16.566 22.91 16.543 22.5646 16.529 22.2188Z" fill="white"/>
<defs>
<linearGradient id="paint0_linear_395_37707" x1="16.0277" y1="2.35726" x2="16.0277" y2="29.8029" gradientUnits="userSpaceOnUse">
<stop stop-color="#008053"/>
<stop offset="0.6" stop-color="#7FC4A7"/>
<stop offset="1" stop-color="#00A06D"/>
</linearGradient>
<linearGradient id="paint1_linear_395_37707" x1="16.0568" y1="-3.16022" x2="16.0568" y2="27.0409" gradientUnits="userSpaceOnUse">
<stop stop-color="#00A06D"/>
<stop offset="0.3" stop-color="#7FC4A7"/>
<stop offset="0.55" stop-color="#00A06D"/>
<stop offset="0.835" stop-color="#008053"/>
<stop offset="0.888" stop-color="#00885C"/>
<stop offset="0.973" stop-color="#009E74"/>
<stop offset="1" stop-color="#00A67D"/>
</linearGradient>
<linearGradient id="paint2_linear_395_37707" x1="20.9142" y1="25.5988" x2="20.9142" y2="5.94712" gradientUnits="userSpaceOnUse">
<stop stop-color="#00AC80"/>
<stop offset="1" stop-color="#00A06D"/>
</linearGradient>
<linearGradient id="paint3_linear_395_37707" x1="8.72501" y1="25.5987" x2="8.72501" y2="5.94098" gradientUnits="userSpaceOnUse">
<stop stop-color="#00AC80"/>
<stop offset="1" stop-color="#00A06D"/>
</linearGradient>
<linearGradient id="paint4_linear_395_37707" x1="12.5032" y1="25.5136" x2="12.5032" y2="6.05346" gradientUnits="userSpaceOnUse">
<stop stop-color="#00AC80"/>
<stop offset="1" stop-color="#00A06D"/>
</linearGradient>
<linearGradient id="paint5_linear_395_37707" x1="15.8116" y1="25.599" x2="15.8116" y2="5.94752" gradientUnits="userSpaceOnUse">
<stop stop-color="#00AC80"/>
<stop offset="1" stop-color="#00A06D"/>
</linearGradient>
</defs>
</svg>
