<svg width="32" height="32" viewBox="0 0 32 32" fill="none" xmlns="http://www.w3.org/2000/svg">
<path d="M30.0185 16C30.0259 20.9992 27.3555 25.6219 23.0149 28.1237C18.6743 30.6254 13.3243 30.6254 8.98367 28.1237C4.64304 25.6219 1.97261 20.9992 1.98003 16C1.97261 11.0007 4.64304 6.37808 8.98367 3.87632C13.3243 1.37456 18.6743 1.37456 23.0149 3.87632C27.3555 6.37808 30.0259 11.0007 30.0185 16Z" fill="url(#paint0_radial_395_37708)"/>
<path d="M14.7832 8.61437C15.0735 8.83651 16.5334 9.69143 16.9709 9.9649L17.1199 10.0709L17.1931 9.96238C17.3462 9.70657 17.4068 9.50126 16.9709 9.22779C16.5334 8.95516 15.0735 8.0994 14.7832 7.87726L14.3052 7.49104C14.487 7.99086 14.6073 8.47974 14.7832 8.61437Z" fill="#454347"/>
<path d="M15.0536 11.9997C15.0536 11.9997 16.6578 9.92505 16.8101 9.67053C16.9633 9.41517 17.0245 9.21088 16.5899 8.93878C16.1554 8.66668 14.702 7.81688 14.4131 7.59585C14.1243 7.37482 14.1745 6.55851 15.0251 6.38855C15.8749 6.2186 23.256 5.60657 26.1294 5.91217C29.0037 6.2186 28.6127 7.0349 28.6294 7.69716C28.6462 8.36109 27.4732 9.31386 25.9084 10.7246C25.9084 10.7246 23.3238 13.1225 21.4359 14.7718C19.5487 16.4212 13.5123 21.5057 12.3384 22.4242C11.1646 23.3426 6.61593 26.7276 6.32038 26.9494C6.02484 27.1705 5.19932 27.8352 4.74972 27.3722C4.30013 26.9092 4.74972 26.3927 4.97829 26.0762C5.20602 25.7614 14.3738 12.8169 15.0536 11.9997Z" fill="white"/>
<defs>
<radialGradient id="paint0_radial_395_37708" cx="0" cy="0" r="1" gradientUnits="userSpaceOnUse" gradientTransform="translate(8.52112 9.66478) rotate(51.6127) scale(20.246 24.8164)">
<stop stop-color="white"/>
<stop offset="0.303228" stop-color="#E70108"/>
<stop offset="0.771879" stop-color="#E71C23"/>
<stop offset="1" stop-color="#C20006"/>
</radialGradient>
</defs>
</svg>
