<svg width="32" height="32" viewBox="0 0 32 32" fill="none" xmlns="http://www.w3.org/2000/svg">
<rect width="32" height="32" fill="black"/>
<path fill-rule="evenodd" clip-rule="evenodd" d="M11.0213 18.7807V15.4101C11.0213 14.4539 10.5095 14 9.6499 14C8.93521 14 8.3171 14.4249 8.04668 14.8499C7.87284 14.3187 7.43823 14 6.75252 14C6.03783 14 5.41972 14.4443 5.22656 14.7243V14.1159H4V18.7807H5.22656V15.6419C5.41006 15.3811 5.7674 15.0913 6.19235 15.0913C6.69457 15.0913 6.88773 15.4004 6.88773 15.835V18.7807H8.12394V15.6322C8.29779 15.3811 8.65513 15.0913 9.08974 15.0913C9.59195 15.0913 9.78511 15.4004 9.78511 15.835V18.7807H11.0213ZM14.392 18.8966C12.8563 18.8966 11.9292 17.7763 11.9292 16.4435C11.9292 15.1203 12.8563 14 14.392 14C15.9372 14 16.8644 15.1203 16.8644 16.4435C16.8644 17.7763 15.9372 18.8966 14.392 18.8966ZM14.392 17.8052C15.1549 17.8052 15.5895 17.1775 15.5895 16.4435C15.5895 15.7191 15.1549 15.0913 14.392 15.0913C13.629 15.0913 13.204 15.7191 13.204 16.4435C13.204 17.1775 13.629 17.8052 14.392 17.8052ZM22.1473 18.7807V15.4873C22.1473 14.5795 21.6547 14 20.631 14C19.868 14 19.2982 14.367 18.9988 14.7243V14.1159H17.7722V18.7807H18.9988V15.6419C19.2016 15.3618 19.5783 15.0913 20.0612 15.0913C20.5827 15.0913 20.9207 15.3135 20.9207 15.9606V18.7807H22.1473ZM25.5276 18.8966C23.992 18.8966 23.0648 17.7763 23.0648 16.4435C23.0648 15.1203 23.992 14 25.5276 14C27.0728 14 28 15.1203 28 16.4435C28 17.7763 27.0728 18.8966 25.5276 18.8966ZM25.5276 17.8052C26.2905 17.8052 26.7252 17.1775 26.7252 16.4435C26.7252 15.7191 26.2905 15.0913 25.5276 15.0913C24.7646 15.0913 24.3396 15.7191 24.3396 16.4435C24.3396 17.1775 24.7646 17.8052 25.5276 17.8052Z" fill="white"/>
</svg>
