<svg width="32" height="32" viewBox="0 0 32 32" fill="none" xmlns="http://www.w3.org/2000/svg">
<rect width="32" height="32" fill="#009836"/>
<path d="M18.3425 25.0937C18.0325 25.0937 17.7235 24.9787 17.4825 24.7487L12.8635 20.3307L8.10751 24.7507C7.74451 25.0877 7.21751 25.1777 6.76351 24.9797C6.30951 24.7827 6.01751 24.3347 6.01751 23.8397V18.6877C6.01751 18.3387 6.16251 18.0067 6.41851 17.7707L12.6745 12.0157C13.1595 11.5707 13.9065 11.5797 14.3805 12.0357L22.7945 20.1567C23.0405 20.3927 23.1775 20.7207 23.1745 21.0627L23.1615 22.6067H23.9705V18.2037L14.1185 8.94066L8.08151 14.4567C7.57551 14.9207 6.78851 14.8847 6.32551 14.3777C5.86251 13.8707 5.89751 13.0837 6.40451 12.6197L13.2915 6.32466C13.7715 5.88666 14.5085 5.89266 14.9825 6.33766L26.0675 16.7607C26.3175 16.9957 26.4575 17.3227 26.4575 17.6667V23.8497C26.4575 24.5367 25.9015 25.0937 25.2145 25.0937H21.9065C21.5755 25.0937 21.2575 24.9607 21.0235 24.7257C20.7905 24.4897 20.6605 24.1707 20.6635 23.8387L20.6835 21.5747L13.4955 14.6397L8.50451 19.2327V20.9857L12.0305 17.7097C12.5115 17.2617 13.2605 17.2677 13.7365 17.7227L19.2015 22.9507C19.6985 23.4257 19.7165 24.2127 19.2405 24.7097C18.9975 24.9647 18.6695 25.0937 18.3425 25.0937Z" fill="white"/>
</svg>
