<svg width="32" height="32" viewBox="0 0 32 32" fill="none" xmlns="http://www.w3.org/2000/svg">
<path d="M3.02 18.19C3.04 18.18 3.06 18.16 3.09 18.16C3.13 18.16 3.17001 18.16 3.21001 18.16C11.73 18.16 20.26 18.16 28.78 18.16C28.81 18.16 28.85 18.16 28.88 18.16C28.96 18.17 29 18.2 29 18.29C29 19.07 29 19.85 29 20.63C29 20.67 28.96 20.71 28.94 20.75C28.9 20.75 28.85 20.75 28.81 20.75C26.91 20.75 25.01 20.75 23.12 20.75C16.46 20.75 9.81001 20.75 3.15001 20.75C3.12001 20.75 3.08001 20.76 3.05001 20.77C3.04001 20.76 3.02001 20.74 3.01001 20.73C3.02001 20.7 3.03001 20.68 3.03001 20.65C3.02001 19.82 3.02 19.01 3.02 18.19ZM24.77 19.58C24.78 19.59 24.78 19.59 24.79 19.6C24.79 19.83 24.79 20.07 24.79 20.3C24.89 20.3 24.97 20.3 25.05 20.3C25.05 19.79 25.05 19.28 25.05 18.77C24.96 18.77 24.88 18.77 24.79 18.77C24.79 18.97 24.79 19.16 24.79 19.36C24.62 19.36 24.45 19.36 24.29 19.36C24.28 19.36 24.28 19.36 24.27 19.36C24.27 19.16 24.27 18.96 24.27 18.76C24.17 18.76 24.09 18.76 24.01 18.76C24.01 19.28 24.01 19.79 24.01 20.3C24.1 20.3 24.18 20.3 24.27 20.3C24.27 20.06 24.27 19.82 24.27 19.58C24.44 19.58 24.6 19.58 24.77 19.58ZM16.25 20.3C16.35 20.3 16.43 20.3 16.51 20.3C16.54 19.92 16.56 19.55 16.59 19.18H16.6C16.7 19.55 16.81 19.93 16.91 20.3C16.99 20.3 17.06 20.3 17.13 20.3C17.24 19.93 17.34 19.57 17.45 19.21C17.46 19.21 17.46 19.21 17.47 19.21C17.5 19.57 17.53 19.94 17.56 20.3C17.65 20.3 17.73 20.3 17.82 20.3C17.8 20.12 17.78 19.95 17.77 19.77C17.75 19.47 17.72 19.16 17.7 18.86C17.7 18.79 17.67 18.75 17.6 18.76C17.51 18.77 17.43 18.76 17.33 18.76C17.23 19.12 17.14 19.47 17.04 19.83C16.96 19.55 16.89 19.29 16.82 19.02C16.76 18.76 16.76 18.76 16.49 18.76C16.39 18.76 16.38 18.8 16.37 18.88C16.37 19 16.36 19.13 16.35 19.25C16.32 19.6 16.28 19.94 16.25 20.3ZM14.92 19.56C14.92 19.48 14.92 19.42 14.92 19.36C14.9 19.12 14.82 18.9 14.59 18.8C14.26 18.65 13.88 18.71 13.71 19.08C13.61 19.3 13.59 19.54 13.65 19.78C13.7 19.99 13.81 20.16 14 20.27C14.16 20.35 14.32 20.34 14.47 20.29C14.57 20.26 14.66 20.2 14.73 20.13C14.9 19.96 14.94 19.76 14.92 19.56ZM20.11 18.96C20.12 18.89 20.13 18.82 20.14 18.76C19.83 18.76 19.53 18.76 19.22 18.76C19.22 19.28 19.22 19.79 19.22 20.31C19.41 20.31 19.59 20.33 19.78 20.3C19.9 20.29 20.03 20.23 20.13 20.17C20.28 20.08 20.26 19.92 20.26 19.77C20.26 19.6 20.11 19.43 19.94 19.41C19.81 19.4 19.68 19.4 19.55 19.38C19.52 19.38 19.47 19.34 19.47 19.32C19.46 19.2 19.47 19.08 19.47 18.96C19.69 18.96 19.9 18.96 20.11 18.96ZM27.61 20.13C27.46 20.12 27.43 20 27.39 19.89C27.34 19.74 27.35 19.56 27.16 19.47C27.32 19.41 27.35 19.28 27.37 19.16C27.39 19.03 27.43 18.92 27.59 18.91C27.58 18.75 27.55 18.72 27.43 18.74C27.26 18.77 27.22 18.83 27.18 18.98C27.06 19.39 27.16 19.36 26.78 19.36C26.77 19.36 26.77 19.35 26.75 19.35C26.75 19.16 26.75 18.96 26.75 18.76C26.66 18.76 26.58 18.76 26.5 18.76C26.5 19.28 26.5 19.79 26.5 20.3C26.59 20.3 26.67 20.3 26.76 20.3C26.76 20.07 26.76 19.84 26.76 19.6C26.82 19.6 26.87 19.6 26.93 19.6C27.03 19.59 27.09 19.65 27.11 19.75C27.13 19.85 27.16 19.95 27.18 20.05C27.2 20.2 27.28 20.27 27.42 20.31C27.55 20.35 27.63 20.29 27.61 20.13ZM11.97 19.47C12.14 19.41 12.15 19.28 12.18 19.15C12.2 19.05 12.21 18.94 12.34 18.91C12.36 18.91 12.4 18.86 12.39 18.85C12.37 18.81 12.34 18.74 12.31 18.73C12.15 18.71 12.02 18.77 11.98 18.94C11.95 19.04 11.94 19.14 11.91 19.24C11.89 19.28 11.84 19.33 11.8 19.34C11.72 19.36 11.64 19.34 11.55 19.34C11.55 19.13 11.55 18.93 11.55 18.74C11.46 18.74 11.38 18.74 11.3 18.74C11.3 19.26 11.3 19.77 11.3 20.28C11.39 20.28 11.47 20.28 11.55 20.28C11.55 20.04 11.55 19.82 11.55 19.58C11.62 19.58 11.67 19.58 11.72 19.58C11.83 19.57 11.88 19.64 11.9 19.73C11.93 19.84 11.93 19.96 11.97 20.06C12 20.14 12.07 20.22 12.14 20.26C12.32 20.36 12.41 20.29 12.4 20.11C12.29 20.09 12.24 20.03 12.2 19.92C12.17 19.78 12.19 19.58 11.97 19.47ZM7.7 20.3C7.55 19.85 7.41 19.42 7.27 18.99C7.19 18.75 7.19 18.75 6.95 18.77C6.92 18.77 6.88001 18.81 6.87001 18.84C6.77001 19.13 6.68001 19.42 6.58001 19.71C6.51001 19.91 6.45 20.1 6.38 20.3C6.66 20.32 6.67001 20.31 6.74001 20.05C6.75001 20.02 6.75001 19.99 6.76001 19.97C6.78001 19.94 6.81 19.91 6.84 19.91C6.99 19.9 7.13001 19.91 7.28001 19.91C7.33001 20.05 7.37001 20.17 7.41001 20.3C7.51001 20.3 7.6 20.3 7.7 20.3ZM21.44 20.3C21.51 20.3 21.57 20.3 21.63 20.3C21.69 20.3 21.72 20.29 21.73 20.22C21.75 20.14 21.79 20.06 21.81 19.98C21.82 19.92 21.85 19.9 21.9 19.91C22.02 19.91 22.14 19.91 22.26 19.91C22.33 19.91 22.35 19.94 22.36 19.99C22.39 20.1 22.42 20.2 22.45 20.3C22.55 20.3 22.64 20.3 22.74 20.3C22.6 19.86 22.46 19.42 22.31 18.99C22.24 18.76 22.24 18.76 22 18.77C21.99 18.77 21.98 18.77 21.98 18.77C21.96 18.79 21.92 18.8 21.91 18.82C21.76 19.31 21.6 19.8 21.44 20.3ZM9.95 18.85C9.6 18.64 9.15001 18.72 8.96001 19.14C8.88001 19.32 8.86001 19.51 8.89001 19.69C8.92001 19.93 9.03001 20.15 9.26001 20.27C9.51001 20.4 9.76001 20.36 9.99001 20.19C9.98001 20.17 9.96 20.16 9.95 20.15C9.9 20.04 9.84001 20.05 9.74001 20.09C9.54001 20.19 9.30001 20.08 9.22001 19.86C9.15001 19.66 9.15001 19.45 9.21001 19.26C9.28001 19.02 9.35001 18.93 9.62001 18.95C9.69001 18.95 9.76 18.99 9.84 19.02C9.87 18.95 9.91 18.9 9.95 18.85ZM5.02 20.3C5.02 20.26 5.02 20.22 5.02 20.19C5.02 19.82 5.02 19.46 5.02 19.09C5.02 18.99 5.05001 18.95 5.15001 18.96C5.23001 18.97 5.31001 18.96 5.40001 18.96C5.41001 18.89 5.43001 18.82 5.44001 18.75C5.08001 18.75 4.73 18.75 4.38 18.75C4.38 18.82 4.38 18.89 4.38 18.96C4.51 18.96 4.63 18.96 4.77 18.96C4.77 19.41 4.77 19.85 4.77 20.29C4.85 20.3 4.93 20.3 5.02 20.3Z" fill="#051C61"/>
<path d="M3.03998 20.77C3.06998 20.76 3.10998 20.75 3.13998 20.75C9.79998 20.75 16.45 20.75 23.11 20.75C25.01 20.75 26.91 20.75 28.8 20.75C28.84 20.75 28.89 20.75 28.93 20.75C28.93 20.76 28.93 20.76 28.93 20.77C20.3 20.77 11.67 20.77 3.03998 20.77Z" fill="#051C61"/>
<path d="M3.02 18.1899C3.02 19.0099 3.02 19.8299 3.02 20.6399C3.02 20.6699 3.01 20.6899 3 20.7199C3 19.8799 3 19.0299 3 18.1899C3.01 18.1899 3.01 18.1899 3.02 18.1899Z" fill="#051C61"/>
<path d="M3.02 12.96H3C3 12.35 3 11.74 3 11.13C3.01 11.13 3.01 11.13 3.02 11.13C3.02 11.74 3.02 12.35 3.02 12.96Z" fill="#051C61"/>
<path d="M16.66 15.68C15.89 15.68 15.13 15.68 14.36 15.68C14.47 16.25 14.71 16.75 15.05 17.24C14.99 17.24 14.95 17.25 14.91 17.25C14.21 17.25 13.5 17.24 12.8 17.26C12.61 17.26 12.51 17.2 12.43 17.04C12.27 16.7 12.14 16.34 12.06 15.97C11.98 15.6 11.94 15.24 11.95 14.87C11.97 14.42 12.04 13.99 12.17 13.56C12.33 13.03 12.56 12.53 12.87 12.08C13.07 11.78 13.31 11.5 13.53 11.21C13.6 11.12 13.69 11.1 13.8 11.1C15.25 11.1 16.71 11.1 18.16 11.1C18.76 11.1 19.36 11.1 19.97 11.1C20.11 11.1 20.14 11.13 20.14 11.26C20.14 13.2 20.14 15.15 20.14 17.09C20.14 17.24 20.12 17.26 19.97 17.26C18.92 17.26 17.87 17.26 16.82 17.26C16.68 17.26 16.68 17.26 16.68 17.11C16.68 16.67 16.68 16.23 16.68 15.79C16.66 15.75 16.66 15.72 16.66 15.68ZM16.66 13.98C16.66 13.68 16.66 13.39 16.66 13.1C16.66 13.03 16.61 13 16.53 13C16.07 13 15.61 13 15.14 13C15.08 13 15 13.05 14.95 13.1C14.84 13.24 14.73 13.39 14.64 13.55C14.56 13.68 14.51 13.83 14.44 13.98C15.2 13.98 15.92 13.98 16.66 13.98ZM14.31 14.69C15.09 14.69 15.86 14.69 16.64 14.69C16.64 14.65 16.64 14.62 16.64 14.59C15.86 14.59 15.09 14.59 14.31 14.59C14.31 14.62 14.31 14.65 14.31 14.69Z" fill="#051C61"/>
<path d="M24.91 11C25.44 11 25.96 11 26.49 11C26.76 11 27.03 11.01 27.29 11.05C27.58 11.1 27.84 11.23 28.08 11.39C28.54 11.71 28.84 12.14 28.95 12.69C29 12.92 28.99 13.17 29 13.4C29 13.47 28.96 13.5 28.89 13.5C28.11 13.5 27.33 13.5 26.55 13.5C26.51 13.5 26.47 13.45 26.44 13.41C26.35 13.28 26.29 13.13 26.19 13C26.06 12.83 25.86 12.76 25.65 12.76C25.21 12.75 24.78 12.76 24.34 12.76C23.97 12.76 23.7 13.03 23.6 13.33C23.56 13.45 23.54 13.57 23.54 13.7C23.53 14.03 23.53 14.36 23.53 14.69C23.53 15.03 23.75 15.47 24.18 15.56C24.22 15.57 24.25 15.57 24.29 15.57C24.75 15.57 25.2 15.56 25.66 15.57C25.97 15.58 26.17 15.41 26.33 15.17C26.36 15.12 26.37 15.06 26.41 15.02C26.43 14.99 26.48 14.95 26.51 14.95C27.3 14.95 28.09 14.95 28.88 14.95C28.96 14.95 28.99 14.99 28.99 15.06C29 15.67 28.81 16.19 28.41 16.65C28.13 16.97 27.78 17.17 27.38 17.28C27.22 17.32 27.04 17.34 26.87 17.34C25.62 17.35 24.37 17.34 23.12 17.34C22.64 17.34 22.23 17.17 21.85 16.89C21.39 16.55 21.15 16.07 21.04 15.52C21.02 15.42 21.02 15.31 21.02 15.21C21.02 14.49 21.02 13.77 21.02 13.05C21.02 12.6 21.19 12.21 21.45 11.85C21.64 11.58 21.89 11.37 22.17 11.22C22.39 11.1 22.63 11.01 22.88 11.01C23.56 11 24.23 11.01 24.91 11.01V11Z" fill="#051C61"/>
<path d="M3.02002 12.96C3.02002 12.35 3.02002 11.74 3.02002 11.13C3.04002 11.12 3.06002 11.1 3.09002 11.09C3.12002 11.08 3.16003 11.09 3.19003 11.09C6.17003 11.09 9.14003 11.09 12.12 11.09C12.14 11.09 12.16 11.09 12.18 11.09C12.26 11.09 12.29 11.13 12.24 11.2C11.97 11.66 11.69 12.11 11.42 12.57C11.36 12.68 11.29 12.78 11.23 12.89C11.18 12.98 11.12 13.02 11.02 13.02C10.45 13.01 9.87003 13.02 9.30003 13.02C9.15003 13.02 9.14002 13.03 9.14002 13.18C9.14002 14.48 9.14002 15.78 9.14002 17.07C9.14002 17.22 9.10002 17.25 8.97002 17.25C7.85002 17.25 6.73002 17.25 5.61002 17.25C5.44002 17.25 5.44003 17.25 5.44003 17.08C5.44003 15.79 5.44003 14.49 5.44003 13.2C5.44003 13.04 5.42003 13.02 5.26003 13.02C4.56002 13.02 3.86003 13.02 3.16003 13.02C3.09003 13.02 3.03002 13.04 3.02002 12.96Z" fill="#051C61"/>
<path d="M24.29 19.36C24.28 19.36 24.28 19.37 24.27 19.37C24.27 19.36 24.27 19.36 24.27 19.35C24.27 19.35 24.28 19.36 24.29 19.36Z" fill="#051C61"/>
<path d="M24.77 19.58C24.78 19.59 24.78 19.59 24.79 19.6C24.78 19.59 24.77 19.59 24.77 19.58Z" fill="#051C61"/>
<path d="M14.66 19.55C14.62 19.7 14.61 19.85 14.54 19.98C14.43 20.19 14.12 20.17 14.02 19.96C13.97 19.86 13.94 19.74 13.94 19.63C13.94 19.47 13.95 19.3 13.99 19.15C14.04 18.96 14.14 18.91 14.37 18.93C14.49 18.94 14.59 19.05 14.62 19.21C14.63 19.26 14.64 19.32 14.64 19.37C14.64 19.42 14.64 19.48 14.64 19.53C14.64 19.55 14.65 19.55 14.66 19.55Z" fill="#051C61"/>
<path d="M19.46 20.08C19.46 19.92 19.46 19.76 19.46 19.6C19.57 19.6 19.69 19.59 19.81 19.6C19.92 19.61 19.98 19.73 19.97 19.88C19.96 20.01 19.86 20.07 19.74 20.08C19.65 20.09 19.56 20.08 19.46 20.08Z" fill="#051C61"/>
<path d="M7.21998 19.66C7.09998 19.66 6.97998 19.66 6.84998 19.66C6.90998 19.46 6.96998 19.27 7.02998 19.08C7.03998 19.08 7.04997 19.09 7.05997 19.09C7.11997 19.28 7.16998 19.47 7.21998 19.66Z" fill="#051C61"/>
<path d="M21.9 19.6599C21.96 19.4599 22.02 19.2699 22.08 19.0699C22.09 19.0699 22.09 19.0699 22.1 19.0699C22.15 19.2599 22.21 19.4599 22.26 19.6599C22.15 19.6599 22.03 19.6599 21.9 19.6599Z" fill="#051C61"/>
<path d="M19.74 14.59H14.31C14.31 14.59 14.31 14.44 14.37 14.26C14.43 14.1 14.51 14 14.51 14H20.1L19.74 14.59Z" fill="#CF112B"/>
<path d="M19.01 15.6799H14.35C14.35 15.6799 14.32 15.4999 14.3 15.2199C14.28 14.9399 14.3 14.6899 14.3 14.6899H19.63L19.01 15.6799Z" fill="#CF112B"/>
</svg>
