<svg width="32" height="32" viewBox="0 0 32 32" fill="none" xmlns="http://www.w3.org/2000/svg">
<path d="M15.8736 9.36918C16.2135 7.80014 16.384 2.1843 8.84277 2C8.5048 3.57003 8.33336 9.18291 15.8736 9.36918ZM15.9667 29.5499C14.2748 29.5499 12.9396 30.2911 11.6925 29.8712C9.24246 29.0463 6.49851 24.348 6.05963 19.6764C5.66484 15.4581 7.28515 12.7586 9.30222 11.6143C11.9227 10.1261 14.0074 11.2004 15.9667 11.2004C17.923 11.2004 20.0792 10.1271 22.6978 11.6143C24.7158 12.7586 26.3351 15.4581 25.9403 19.6764C25.5024 24.348 22.7575 29.0473 20.3074 29.8712C19.0613 30.2911 17.6585 29.5499 15.9667 29.5499Z" fill="#4BDF7F"/>
</svg>
