<svg width="32" height="32" viewBox="0 0 32 32" fill="none" xmlns="http://www.w3.org/2000/svg">
<path d="M27.0408 25.1636C27.0235 25.5021 27.0314 25.8421 27.0408 26.1805C27.0455 26.3316 26.9826 26.3726 26.844 26.3694C25.4446 26.3395 24.0452 26.3379 22.6458 26.4355C22.1893 26.467 21.7328 26.4859 21.2763 26.4403C20.6545 26.3773 20.0406 26.4985 19.4235 26.5316C19.0678 26.5504 18.7167 26.5268 18.3673 26.4528C18.0981 26.3962 17.8242 26.3962 17.5519 26.3883C15.5385 26.3348 13.5252 26.3474 11.5135 26.3505C9.38207 26.3537 7.25068 26.3364 5.12087 26.3316C4.99179 26.3316 4.93512 26.3033 4.93826 26.1616C4.94771 25.8075 4.94928 25.4533 4.93826 25.0991C4.93354 24.9354 5.00123 24.9023 5.14605 24.9023C5.9284 24.907 6.70918 24.9039 7.49153 24.9039C10.3234 24.9039 13.1569 24.9039 15.9888 24.9039C19.5888 24.9039 23.1873 24.9055 26.7874 24.8992C26.9967 24.9007 27.0518 24.9606 27.0408 25.1636Z" fill="#0C4180"/>
<path d="M4.14962 19.7927C4.37 20.1941 4.58566 20.5986 4.82179 20.9906C5.08939 21.4345 5.37588 21.8674 5.65923 22.3019C5.81664 22.5443 6.00239 22.7694 6.14721 23.0181C6.30935 23.2936 6.54547 23.5171 6.6714 23.8162C6.75169 24.0051 6.87447 24.0932 7.11216 24.0885C8.58084 24.0665 10.0479 24.0712 11.5166 24.0633C11.5953 24.0633 11.7071 24.1263 11.7512 24.0161C11.7858 23.9279 11.7669 23.8288 11.7039 23.7438C11.6646 23.6903 11.6315 23.632 11.5985 23.5753C11.3246 23.1094 11.0192 22.6576 10.7909 22.1696C10.6461 21.8611 10.4981 21.5494 10.3392 21.2503C10.07 20.7419 9.82127 20.2256 9.60404 19.6951C9.36319 19.1063 9.16642 18.5034 8.98382 17.8911C8.75872 17.1371 8.67214 16.3846 8.7052 15.6086C8.72723 15.0813 8.89409 14.5823 9.10818 14.1132C9.31281 13.663 9.57255 13.2348 10.0117 12.9436C10.473 12.6382 10.9546 12.4052 11.5103 12.3832C12.0487 12.3627 12.587 12.3879 13.1254 12.3737C13.3127 12.369 13.3568 12.4241 13.3552 12.6067C13.3473 14.2155 13.3505 15.8243 13.3505 17.4315C13.3505 17.4315 13.3505 17.4315 13.3489 17.4315C13.3489 19.0245 13.3489 20.6191 13.3489 22.2121C13.3489 22.5222 13.3473 22.5238 13.659 22.5238C15.1639 22.5238 16.6688 22.5222 18.1737 22.5207C18.6428 22.5207 18.6396 22.5191 18.6428 22.0468C18.6475 21.1039 18.6443 20.1594 18.6349 19.2165C18.6207 17.5574 18.6884 15.8982 18.6585 14.2375C18.6491 13.707 18.6569 13.175 18.6475 12.6445C18.6443 12.4477 18.6916 12.3627 18.9167 12.3722C19.3653 12.3926 19.8171 12.3769 20.2673 12.3785C20.7395 12.38 21.1945 12.5186 21.5864 12.7468C22.3404 13.186 22.7765 13.8676 23.0283 14.7176C23.34 15.7739 23.2204 16.8018 22.9732 17.825C22.7387 18.801 22.3467 19.7297 21.9217 20.6396C21.695 21.1228 21.4274 21.5872 21.2039 22.0736C20.9804 22.5616 20.6954 23.0165 20.4389 23.4856C20.3665 23.6178 20.2547 23.717 20.1996 23.8713C20.1335 24.057 20.2138 24.0838 20.3507 24.0885C20.4908 24.0932 20.6309 24.0743 20.7694 24.0743C22.1122 24.0712 23.4549 24.0696 24.7961 24.0728C24.9267 24.0728 25.0275 24.0303 25.1031 23.9311C25.2982 23.6729 25.5186 23.4289 25.6729 23.1487C25.9106 22.7206 26.2349 22.3554 26.4977 21.9461C26.6693 21.6785 26.874 21.4219 27.0408 21.1512C27.4013 20.5656 27.7146 19.9485 28.031 19.3377C28.1852 19.0387 28.3332 18.7301 28.4355 18.4122C28.6134 17.8644 28.7661 17.3071 28.8668 16.7373C28.9424 16.3091 29.0305 15.8825 28.9896 15.4465C28.9266 14.7649 28.7771 14.1069 28.4607 13.4867C28.1569 12.8916 27.7303 12.421 27.1809 12.0558C26.9275 11.8873 26.6788 11.7094 26.3907 11.5977C26.1798 11.5158 25.9846 11.3679 25.7673 11.3254C25.2069 11.2167 24.6717 11.0011 24.094 10.9743C23.5509 10.9491 23.0189 10.8169 22.4711 10.8216C21.3346 10.8295 20.1996 10.8216 19.0631 10.8201C18.9308 10.8201 18.7671 10.8641 18.6727 10.8043C18.5373 10.7177 18.6695 10.5525 18.668 10.4202C18.6569 9.06961 18.6617 7.72057 18.6617 6.36996C18.6617 6.03781 18.6459 6.01262 18.3201 6.01262C16.7491 6.0079 15.1781 6.00947 13.6055 6.00003C13.3946 5.99845 13.3316 6.06929 13.3332 6.28023C13.3458 7.68909 13.3442 9.09794 13.3473 10.5068C13.3473 10.8421 13.3473 10.8374 13.0089 10.8374C11.5497 10.8374 10.0889 10.7901 8.63121 10.8752C8.22823 10.8988 7.81581 10.9428 7.43329 11.0326C6.77687 11.1868 6.10471 11.3159 5.48607 11.6339C4.90994 11.9298 4.37315 12.2777 3.95915 12.7594C3.60655 13.1702 3.32163 13.6504 3.22246 14.2092C3.15477 14.5901 3.02883 14.9553 3.00837 15.352C2.96744 16.1501 3.07921 16.9277 3.287 17.6833C3.49006 18.4153 3.78285 19.1237 4.14962 19.7927Z" fill="#0C4180"/>
<path d="M27.0424 24.9023H4.93826V26.3742H27.0424V24.9023Z" fill="#0C4180"/>
</svg>
