<svg width="32" height="32" viewBox="0 0 32 32" fill="none" xmlns="http://www.w3.org/2000/svg">
<path d="M29 15.7616L18.6689 5.5166V12.3179H14.6225C12.4702 12.3179 11.1788 13.8676 11.1788 15.7616C11.1788 17.6557 12.4702 19.2053 14.6225 19.2053H18.6689V26.0067L29 15.7616Z" fill="#6ACA4C"/>
<path d="M16.6887 26.0066V21.1854H14.6225C13.0728 21.1854 11.6093 20.5828 10.6623 19.5497C9.71523 18.5166 9.19868 17.2252 9.19868 15.6755C9.19868 12.5762 11.5232 10.2517 14.7086 10.2517H16.7748V5.25828C16.0861 5.08609 15.3113 5 14.3642 5C9.80132 5 3 7.3245 3 15.7616C3 24.1987 9.80132 26.5232 14.3642 26.5232C15.3113 26.5232 16.0861 26.4371 16.6887 26.2649V26.0066Z" fill="#0044B7"/>
</svg>
