<svg width="32" height="32" viewBox="0 0 32 32" fill="none" xmlns="http://www.w3.org/2000/svg">
<path fill-rule="evenodd" clip-rule="evenodd" d="M11.2049 2L9.94769 9.9533L13.9575 13.9666L15.2154 6.014L11.2049 2Z" fill="#316E87"/>
<path fill-rule="evenodd" clip-rule="evenodd" d="M2 11.2104L6.01118 15.2244L13.9581 13.9672L9.94696 9.95251L2 11.2104Z" fill="#00B5A0"/>
<path fill-rule="evenodd" clip-rule="evenodd" d="M16.7635 25.986L20.774 30L22.0326 22.0481L18.0214 18.0334L16.7635 25.986Z" fill="#316E87"/>
<path fill-rule="evenodd" clip-rule="evenodd" d="M25.9684 16.7749L18.0214 18.0328L22.0326 22.0475L29.9789 20.7889L25.9684 16.7749Z" fill="#00B5A0"/>
<path fill-rule="evenodd" clip-rule="evenodd" d="M16.7635 6.01403L18.0222 13.9666L22.0326 9.95262L20.7747 2.00073L16.7635 6.01403Z" fill="#FBB040"/>
<path fill-rule="evenodd" clip-rule="evenodd" d="M18.0214 13.9665L25.9684 15.2251L29.9796 11.2111L22.0326 9.95251L18.0214 13.9665Z" fill="#F58220"/>
<path fill-rule="evenodd" clip-rule="evenodd" d="M9.94696 22.0474L11.2042 30L15.2153 25.9853L13.9567 18.0334L9.94696 22.0474Z" fill="#FBB040"/>
<path fill-rule="evenodd" clip-rule="evenodd" d="M2 20.7895L9.94766 22.0474L13.9574 18.0334L6.01118 16.7755L2 20.7895Z" fill="#F58220"/>
</svg>
