<svg width="32" height="32" viewBox="0 0 32 32" fill="none" xmlns="http://www.w3.org/2000/svg">
<path d="M2 15.45C2.01 15.41 2.03 15.36 2.03 15.32C2.05 14.6 2.14 13.89 2.3 13.19C2.43 12.61 2.59 12.04 2.76 11.48C3.02 10.65 3.38 9.85 3.83 9.11C4.19 8.51 4.58 7.92 5 7.37C5.36 6.89 5.79 6.47 6.21 6.04C6.51 5.73 6.83 5.44 7.16 5.17C7.71 4.72 8.28 4.31 8.9 3.97C9.42 3.68 9.95 3.4 10.49 3.16C10.91 2.97 11.36 2.83 11.81 2.68C12.2 2.56 12.59 2.45 12.99 2.35C13.32 2.27 13.65 2.21 13.98 2.17C14.46 2.11 14.95 2.07 15.43 2.02C15.44 2.02 15.44 2.01 15.45 2C15.8 2 16.14 2 16.49 2C16.61 2.02 16.73 2.04 16.85 2.06C17.34 2.12 17.83 2.16 18.31 2.23C18.79 2.31 19.26 2.41 19.73 2.52C19.98 2.58 20.22 2.67 20.46 2.76C20.88 2.91 21.31 3.06 21.72 3.24C22.11 3.41 22.48 3.61 22.84 3.82C23.26 4.06 23.68 4.31 24.08 4.59C24.38 4.79 24.66 5.02 24.92 5.25C25.35 5.63 25.78 6.01 26.18 6.42C26.69 6.94 27.14 7.51 27.54 8.12C27.8 8.52 28.06 8.93 28.3 9.34C28.45 9.6 28.57 9.88 28.69 10.16C28.83 10.47 28.98 10.77 29.1 11.08C29.21 11.36 29.28 11.65 29.37 11.94C29.45 12.22 29.55 12.5 29.62 12.78C29.7 13.15 29.77 13.53 29.82 13.91C29.88 14.39 29.92 14.88 29.97 15.36C29.98 15.41 29.99 15.45 30 15.5C30 15.84 30 16.17 30 16.51C29.98 16.72 29.96 16.94 29.94 17.15C29.9 17.53 29.87 17.91 29.8 18.28C29.69 18.85 29.56 19.43 29.41 19.99C29.24 20.63 28.99 21.25 28.71 21.85C28.23 22.89 27.62 23.86 26.91 24.75C26.45 25.32 25.95 25.85 25.41 26.35C24.64 27.06 23.79 27.67 22.87 28.19C22.2 28.57 21.51 28.89 20.79 29.15C20.03 29.43 19.25 29.64 18.45 29.78C17.97 29.86 17.48 29.9 16.99 29.95C16.83 29.97 16.68 29.97 16.52 29.98C16.04 29.97 15.56 29.97 15.08 29.95C14.62 29.92 14.16 29.88 13.7 29.8C13.19 29.71 12.67 29.6 12.17 29.45C11.57 29.27 10.97 29.06 10.39 28.81C9.9 28.6 9.43 28.34 8.97 28.08C8.23 27.66 7.53 27.18 6.91 26.6C6.48 26.21 6.06 25.82 5.67 25.4C5.11 24.8 4.61 24.14 4.17 23.44C3.75 22.77 3.39 22.08 3.08 21.35C2.87 20.84 2.69 20.31 2.54 19.77C2.38 19.2 2.26 18.61 2.15 18.02C2.09 17.73 2.09 17.42 2.06 17.12C2.04 16.91 2.02 16.69 2 16.48C2 16.16 2 15.81 2 15.45ZM8.1 4.79C8.1 4.8 8.09 4.81 8.09 4.82C8.07 4.83 8.04 4.83 8.02 4.85C7.76 5.06 7.49 5.26 7.23 5.48C6.98 5.69 6.74 5.91 6.5 6.13C6.46 6.17 6.42 6.21 6.38 6.25C6.35 6.28 6.33 6.3 6.3 6.33C6.24 6.39 6.19 6.44 6.13 6.5C5.96 6.69 5.8 6.88 5.63 7.06C5.61 7.08 5.59 7.1 5.57 7.11C5.37 7.37 5.16 7.62 4.96 7.88C4.45 8.55 4.02 9.27 3.66 10.03C3.65 10.04 3.64 10.05 3.64 10.06C3.55 10.26 3.47 10.45 3.38 10.65C3.37 10.66 3.36 10.67 3.36 10.68C3.29 10.86 3.23 11.04 3.16 11.22C3.15 11.23 3.14 11.24 3.14 11.25C3.05 11.53 2.97 11.81 2.88 12.09C2.84 12.21 2.8 12.34 2.77 12.46C2.76 12.47 2.75 12.48 2.75 12.49C2.75 12.52 2.74 12.54 2.74 12.57C2.69 12.8 2.65 13.03 2.6 13.26C2.59 13.28 2.57 13.29 2.56 13.31C2.53 13.53 2.5 13.74 2.47 13.96C2.42 14.33 2.37 14.69 2.33 15.06C2.31 15.3 2.32 15.54 2.32 15.77C2.32 16.08 2.32 16.4 2.33 16.71C2.35 17.1 2.39 17.49 2.42 17.88C2.43 17.89 2.44 17.9 2.44 17.91C2.44 17.95 2.43 18 2.44 18.04C2.51 18.4 2.59 18.77 2.66 19.13C2.78 19.73 2.97 20.31 3.19 20.88C4.53 24.3 6.85 26.81 10.15 28.42C10.75 28.71 11.38 28.97 12.03 29.15C12.53 29.29 13.03 29.43 13.54 29.53C13.91 29.61 14.28 29.64 14.65 29.67C15.02 29.71 15.39 29.75 15.77 29.75C16.26 29.75 16.74 29.72 17.23 29.7C17.36 29.69 17.5 29.67 17.63 29.65C17.98 29.6 18.33 29.56 18.68 29.48C19.07 29.4 19.45 29.31 19.83 29.19C20.33 29.04 20.83 28.88 21.32 28.68C21.84 28.46 22.35 28.19 22.85 27.92C23.21 27.72 23.55 27.49 23.9 27.26C23.94 27.24 23.95 27.18 23.99 27.15C24.09 27.09 24.2 27.04 24.29 26.97C24.43 26.86 24.54 26.73 24.68 26.62C24.76 26.55 24.87 26.52 24.95 26.44C25.3 26.12 25.65 25.8 25.98 25.46C26.18 25.26 26.36 25.04 26.54 24.82C27.12 24.14 27.62 23.4 28.05 22.62C28.22 22.31 28.37 22 28.51 21.67C28.7 21.22 28.87 20.75 29.05 20.29C29.06 20.26 29.06 20.23 29.06 20.2C29.07 20.16 29.08 20.11 29.1 20.07C29.11 20.04 29.14 20.01 29.15 19.98C29.25 19.61 29.34 19.24 29.43 18.87C29.48 18.66 29.53 18.44 29.57 18.23C29.59 18.11 29.57 17.99 29.57 17.87C29.59 17.82 29.61 17.75 29.63 17.69C29.65 17.55 29.67 17.4 29.69 17.26C29.71 17 29.75 16.73 29.74 16.47C29.73 15.89 29.71 15.31 29.69 14.73C29.69 14.62 29.65 14.5 29.64 14.39C29.62 14.24 29.6 14.09 29.58 13.94C29.55 13.76 29.52 13.58 29.49 13.4C29.49 13.38 29.49 13.36 29.48 13.34C29.41 13.06 29.36 12.77 29.28 12.49C29.08 11.8 28.87 11.11 28.56 10.46C28.31 9.95 28.04 9.46 27.77 8.96C27.75 8.93 27.74 8.9 27.72 8.87C27.58 8.65 27.44 8.44 27.3 8.22C27.3 8.21 27.3 8.2 27.29 8.2C26.89 7.7 26.51 7.19 26.09 6.71C25.56 6.11 24.97 5.58 24.33 5.11C24.3 5.09 24.28 5.07 24.25 5.05C24.16 4.98 24.06 4.91 23.97 4.84C23.96 4.83 23.95 4.83 23.94 4.82C23.51 4.55 23.08 4.28 22.64 4.01C22.62 4 22.6 3.99 22.59 3.98C22.3 3.83 22.01 3.69 21.72 3.54C21.7 3.53 21.68 3.52 21.66 3.51C21.5 3.44 21.35 3.38 21.19 3.31C21.15 3.3 21.11 3.28 21.07 3.27C20.83 3.18 20.59 3.08 20.34 3C19.89 2.87 19.44 2.75 18.98 2.63C18.96 2.63 18.94 2.63 18.92 2.62C18.87 2.61 18.82 2.6 18.78 2.59C18.32 2.51 17.85 2.42 17.39 2.37C17.01 2.33 16.62 2.33 16.23 2.31C16.18 2.31 16.14 2.31 16.09 2.31C16.02 2.31 15.96 2.31 15.89 2.31C15.87 2.31 15.85 2.31 15.83 2.31C15.81 2.31 15.79 2.3 15.77 2.3C15.29 2.33 14.81 2.36 14.33 2.4C14.24 2.41 14.14 2.43 14.05 2.45C14.03 2.45 14.01 2.45 13.99 2.46C13.94 2.46 13.89 2.45 13.84 2.46C13.51 2.53 13.18 2.6 12.85 2.68C12.42 2.79 11.99 2.9 11.57 3.04C11.18 3.17 10.8 3.33 10.42 3.48C10.41 3.49 10.4 3.49 10.39 3.5C10.26 3.56 10.13 3.62 10 3.68C9.99 3.69 9.98 3.69 9.97 3.7C9.96 3.7 9.95 3.71 9.94 3.71C9.93 3.72 9.92 3.72 9.91 3.73C9.72 3.83 9.53 3.92 9.35 4.02C9.34 4.03 9.33 4.03 9.32 4.04C9.23 4.1 9.14 4.15 9.04 4.21C9.01 4.23 8.98 4.25 8.96 4.26C8.94 4.27 8.92 4.28 8.9 4.29C8.88 4.3 8.86 4.31 8.84 4.32C8.8 4.34 8.77 4.36 8.73 4.39C8.72 4.4 8.71 4.4 8.7 4.41C8.68 4.42 8.66 4.43 8.65 4.45C8.64 4.46 8.63 4.46 8.62 4.47C8.6 4.48 8.58 4.49 8.57 4.51C8.56 4.52 8.55 4.52 8.54 4.53C8.45 4.59 8.35 4.66 8.26 4.72C8.23 4.74 8.2 4.76 8.18 4.78C8.15 4.76 8.12 4.78 8.1 4.79Z" fill="#E31F25"/>
<path d="M8.14998 4.81C8.12998 4.8 8.11998 4.8 8.09998 4.79C8.12998 4.78 8.14998 4.76 8.17998 4.75C8.16998 4.77 8.15998 4.79 8.14998 4.81Z" fill="#FEF6F6"/>
<path d="M3.15001 11.21C3.14001 11.22 3.13 11.23 3.13 11.24C3.14 11.23 3.14001 11.22 3.15001 11.21Z" fill="#FEF6F6"/>
<path d="M2.75999 12.45C2.74999 12.46 2.73999 12.4699 2.73999 12.4799C2.73999 12.4599 2.74999 12.45 2.75999 12.45Z" fill="#FEFAFA"/>
<path d="M8.64999 4.42004C8.63999 4.43004 8.63 4.43004 8.62 4.44004C8.63 4.44004 8.63999 4.43004 8.64999 4.42004Z" fill="#FEF6F6"/>
<path d="M8.74002 4.37C8.73002 4.38 8.72002 4.38 8.71002 4.39C8.72002 4.38 8.73002 4.37 8.74002 4.37Z" fill="#FEF6F6"/>
<path d="M9.36002 4C9.35002 4.01 9.34002 4.01 9.33002 4.02C9.33002 4.02 9.34002 4.01 9.36002 4Z" fill="#FEF9F9"/>
<path d="M9.94998 3.69995C9.93998 3.70995 9.92998 3.70995 9.91998 3.71995C9.92998 3.70995 9.93998 3.69995 9.94998 3.69995Z" fill="#FEF6F6"/>
<path d="M9.99997 3.67004C9.98997 3.68004 9.97997 3.68004 9.96997 3.69004C9.97997 3.68004 9.98997 3.67004 9.99997 3.67004Z" fill="#FEF6F6"/>
<path d="M21.12 3.75998C21.16 3.76998 21.2 3.77998 21.23 3.78998C21.24 3.79998 21.25 3.80998 21.26 3.80998C21.34 3.83998 21.41 3.86998 21.49 3.89998C21.5 3.90998 21.51 3.90998 21.52 3.91998C21.53 3.91998 21.54 3.92998 21.55 3.92998C21.56 3.93998 21.57 3.94998 21.58 3.94998C21.71 4.01998 21.84 4.07998 21.98 4.14998C22 4.15998 22.02 4.15998 22.03 4.16998C22.13 4.21998 22.23 4.26998 22.34 4.31998C22.35 4.32998 22.36 4.32998 22.37 4.33998C22.38 4.33998 22.39 4.34998 22.4 4.34998C22.41 4.35998 22.42 4.35998 22.43 4.36998C22.49 4.39998 22.54 4.42998 22.6 4.45998C22.61 4.46998 22.62 4.46998 22.63 4.47998C22.68 4.50998 22.74 4.53998 22.79 4.56998C22.8 4.57998 22.81 4.57998 22.82 4.58998C22.89 4.62998 22.95 4.66998 23.02 4.70998C23.04 4.72998 23.06 4.73998 23.08 4.75998C23.13 4.78998 23.19 4.81998 23.24 4.84998C23.25 4.85998 23.26 4.85998 23.27 4.86998C23.29 4.87998 23.31 4.88998 23.32 4.90998C23.33 4.91998 23.34 4.91998 23.35 4.92998C23.37 4.93998 23.39 4.95998 23.4 4.96998C23.41 4.97998 23.42 4.97998 23.43 4.98998C23.45 4.99998 23.47 5.00998 23.48 5.02998C23.49 5.03998 23.5 5.03998 23.51 5.04998C23.53 5.05998 23.54 5.06998 23.56 5.08998C23.57 5.09998 23.58 5.09998 23.59 5.10998C23.64 5.14998 23.7 5.18998 23.75 5.22998C23.76 5.23998 23.77 5.23998 23.78 5.24998C24.04 5.45998 24.31 5.66998 24.57 5.86998C24.59 5.88998 24.6 5.89998 24.62 5.91998C24.67 5.95998 24.72 5.99998 24.76 6.03998C24.78 6.04998 24.8 6.06998 24.81 6.07998C25 6.26998 25.2 6.44998 25.39 6.63998C25.59 6.83998 25.78 7.05998 25.97 7.26998C25.99 7.28998 26.02 7.30998 26.04 7.33998C26.05 7.34998 26.06 7.35998 26.07 7.36998C26.21 7.54998 26.36 7.72998 26.5 7.91998C26.66 8.12998 26.81 8.33998 26.97 8.54998C26.98 8.55998 26.99 8.56998 27 8.57998C27.1 8.73998 27.19 8.90998 27.29 9.06998C27.41 9.26998 27.54 9.46998 27.66 9.66998C27.67 9.69998 27.69 9.71998 27.7 9.74998C27.76 9.85998 27.82 9.97998 27.87 10.09C27.92 10.19 27.97 10.3 28.01 10.4C28.02 10.41 28.02 10.42 28.03 10.43C28.04 10.44 28.04 10.45 28.05 10.46C28.06 10.49 28.07 10.51 28.09 10.54C28.11 10.6 28.13 10.66 28.15 10.71C28.16 10.72 28.17 10.73 28.17 10.74C28.21 10.84 28.25 10.95 28.29 11.05C28.3 11.06 28.3 11.07 28.31 11.08C28.32 11.12 28.33 11.16 28.34 11.19C28.35 11.2 28.35 11.21 28.36 11.22C28.38 11.28 28.41 11.33 28.43 11.39C28.44 11.41 28.44 11.43 28.45 11.45C28.6 11.94 28.75 12.43 28.89 12.92C28.9 12.95 28.89 12.98 28.89 13.02C28.89 13.04 28.89 13.05 28.89 13.07C28.95 13.32 29 13.58 29.06 13.83C29.09 13.99 29.12 14.15 29.14 14.31C29.15 14.36 29.11 14.41 29.11 14.46C29.11 14.49 29.12 14.51 29.12 14.54C29.13 14.55 29.13 14.55 29.14 14.56C29.16 14.68 29.18 14.79 29.2 14.91C29.22 15.02 29.24 15.12 29.25 15.23C29.25 15.31 29.23 15.38 29.23 15.46C29.23 15.88 29.24 16.3 29.23 16.72C29.22 17.01 29.17 17.3 29.15 17.59C29.12 18.15 28.99 18.68 28.86 19.22C28.76 19.64 28.6 20.05 28.48 20.47C28.36 20.91 28.15 21.31 27.97 21.73C27.77 22.18 27.52 22.6 27.27 23.01C27.13 23.25 26.99 23.49 26.82 23.71C26.46 24.17 26.08 24.63 25.69 25.07C25.42 25.37 25.13 25.64 24.83 25.92C24.06 26.62 23.21 27.21 22.3 27.71C22.27 27.73 22.24 27.75 22.21 27.77C22.19 27.78 22.17 27.79 22.15 27.8C21.61 28.04 21.07 28.29 20.52 28.51C19.73 28.82 18.91 29.02 18.07 29.15C17.78 29.2 17.5 29.22 17.21 29.26C16.58 29.34 15.95 29.32 15.31 29.31C15.02 29.31 14.73 29.26 14.44 29.23C14.38 29.22 14.33 29.23 14.27 29.23C14.25 29.22 14.23 29.22 14.21 29.21C13.82 29.14 13.43 29.09 13.05 29C12.49 28.86 11.92 28.71 11.38 28.52C10.71 28.29 10.06 27.98 9.44999 27.62C9.42999 27.61 9.40999 27.6 9.38999 27.59C9.35999 27.58 9.33999 27.56 9.30999 27.55C8.48999 27.07 7.72999 26.51 7.02999 25.88C6.46999 25.37 5.95999 24.81 5.48999 24.22C4.71999 23.24 4.10999 22.18 3.63999 21.03C3.45999 20.59 3.32 20.14 3.19 19.69C3.07 19.3 2.97999 18.89 2.89999 18.49C2.83999 18.2 2.80999 17.9 2.76999 17.61C2.64999 16.85 2.69 16.08 2.69 15.31C2.69 15.26 2.70999 15.2 2.71999 15.15C2.72999 15.13 2.73999 15.11 2.74999 15.09C2.69999 14.88 2.75 14.68 2.8 14.47C2.85 14.28 2.82999 14.08 2.85999 13.89C2.92999 13.5 3.00999 13.11 3.09999 12.72C3.12999 12.57 3.18 12.42 3.23 12.27C3.24 12.22 3.26999 12.18 3.28999 12.13C3.29999 12.11 3.30999 12.09 3.31999 12.07C3.31999 12.06 3.31999 12.05 3.31999 12.04C3.31999 12.02 3.31999 12 3.31999 11.98C3.38999 11.77 3.44999 11.57 3.51999 11.36C3.52999 11.35 3.52999 11.34 3.53999 11.33C3.53999 11.31 3.54 11.29 3.55 11.28C3.57 11.25 3.57999 11.23 3.59999 11.2C3.59999 11.18 3.59999 11.16 3.60999 11.14C3.61999 11.13 3.61999 11.12 3.62999 11.11C3.89999 10.55 4.13 9.96998 4.44 9.43998C4.75 8.88998 5.13999 8.38998 5.49999 7.86998C5.52999 7.82998 5.56 7.78998 5.58 7.73998C5.6 7.71998 5.60999 7.70998 5.62999 7.68998C6.08999 7.19998 6.52999 6.69998 6.99999 6.21998C7.17999 6.02998 7.39999 5.88998 7.59999 5.71998C8.15999 5.24998 8.76999 4.84998 9.38999 4.47998C9.39999 4.46998 9.40999 4.46998 9.41999 4.45998C9.75999 4.27998 10.1 4.09998 10.45 3.91998C10.46 3.90998 10.48 3.91998 10.49 3.91998C10.5 3.90998 10.51 3.90998 10.52 3.89998C10.62 3.84998 10.72 3.78998 10.83 3.74998C11.09 3.64998 11.35 3.55998 11.61 3.46998C11.75 3.41998 11.89 3.35998 12.03 3.29998C12.04 3.28998 12.05 3.28998 12.06 3.27998C12.08 3.27998 12.1 3.27998 12.12 3.27998C12.12 3.28998 12.13 3.29998 12.13 3.30998C12.13 3.29998 12.14 3.28998 12.14 3.27998C12.25 3.24998 12.36 3.21998 12.47 3.18998C12.49 3.16998 12.51 3.15998 12.53 3.13998C12.54 3.13998 12.55 3.13998 12.56 3.13998C12.59 3.17998 12.62 3.21998 12.64 3.13998C12.9 3.08998 13.17 3.02998 13.43 2.97998C13.73 2.92998 14.03 2.88998 14.32 2.84998C14.38 2.84998 14.44 2.85998 14.43 2.76998C14.51 2.80998 14.57 2.84998 14.68 2.80998C14.81 2.75998 14.98 2.77998 15.13 2.76998C15.27 2.75998 15.42 2.73998 15.56 2.73998C15.95 2.73998 16.34 2.75998 16.73 2.75998C16.78 2.75998 16.83 2.73998 16.9 2.72998C16.96 2.79998 17.05 2.79998 17.17 2.76998C17.25 2.74998 17.33 2.79998 17.42 2.81998C17.46 2.82998 17.51 2.84998 17.55 2.83998C17.78 2.82998 17.99 2.89998 18.21 2.93998C18.41 2.97998 18.63 2.97998 18.84 3.00998C18.95 3.02998 19.04 3.07998 19.15 3.11998C19.63 3.26998 20.11 3.41998 20.59 3.56998C20.62 3.57998 20.64 3.58998 20.67 3.59998C20.8 3.64998 20.93 3.68998 21.07 3.73998C21.1 3.74998 21.11 3.75998 21.12 3.75998ZM18.39 10.02C18.38 10.01 18.38 10.01 18.37 9.99998C18.36 9.97998 18.35 9.96998 18.34 9.94998C18.33 9.92998 18.32 9.90998 18.3 9.89998C17.99 9.61998 17.65 9.37998 17.27 9.18998C17.23 9.16998 17.2 9.15998 17.16 9.13998C17.01 9.08998 16.86 9.03998 16.7 8.98998C16.7 8.97998 16.7 8.96998 16.69 8.96998C16.69 8.97998 16.68 8.97998 16.68 8.98998C16.26 8.96998 15.84 8.92998 15.42 9.01998C15.41 9.02998 15.4 9.03998 15.39 9.03998C15.35 9.03998 15.31 9.02998 15.28 9.04998C14.98 9.14998 14.68 9.22998 14.41 9.39998C14.4 9.40998 14.39 9.40998 14.38 9.41998C13.82 9.78998 13.39 10.26 13.12 10.88C13.11 10.89 13.11 10.9 13.1 10.91C13.09 10.94 13.09 10.97 13.08 11C13.01 11.27 12.9 11.54 12.88 11.82C12.83 12.37 12.91 12.9 13.16 13.41C13.66 14.45 14.49 15.04 15.61 15.2C16.25 15.29 16.88 15.15 17.46 14.82C18.45 14.26 19 13.41 19.13 12.3C19.2 11.67 19.04 11.08 18.76 10.52C18.75 10.51 18.75 10.51 18.74 10.5C18.7 10.43 18.66 10.36 18.62 10.29C18.6 10.27 18.59 10.25 18.57 10.23C18.52 10.17 18.47 10.12 18.42 10.06C18.41 10.05 18.4 10.04 18.39 10.02ZM8.66 16.18C8.66 16.2 8.66 16.22 8.66 16.24C8.66 16.31 8.66 16.37 8.66 16.44C8.66 16.48 8.66 16.51 8.66 16.55C8.66 16.92 8.66 17.28 8.66 17.65C8.66 17.68 8.66 17.71 8.66 17.73C8.66 17.78 8.66 17.82 8.66 17.87C8.66 18.08 8.66 18.28 8.66 18.49C8.66 18.52 8.66 18.55 8.66 18.57C8.66 18.75 8.66 18.93 8.66 19.1C8.66 19.19 8.66 19.29 8.66 19.38C8.66 19.49 8.66 19.61 8.66 19.72C8.66 19.86 8.66 20 8.66 20.14C8.66 20.37 8.66 20.61 8.64999 20.84C8.64999 21 8.64999 21.16 8.64999 21.32C8.64999 21.34 8.64999 21.36 8.64999 21.38C8.64999 21.95 8.64999 22.52 8.64999 23.09C8.64999 23.16 8.64999 23.22 8.64999 23.29C8.64999 23.41 8.64999 23.53 8.64999 23.66C8.63999 24 8.63 24.34 8.62 24.69C8.61 24.83 8.66999 24.86 8.78999 24.84C9.20999 24.83 9.63 24.82 10.05 24.81C10.07 24.81 10.09 24.81 10.11 24.81C11.09 24.8 12.08 24.79 13.06 24.78C13.14 24.79 13.19 24.77 13.19 24.68C13.19 24.54 13.19 24.39 13.18 24.25C13.18 24.23 13.18 24.21 13.18 24.19C13.18 24.15 13.18 24.12 13.18 24.08C13.18 24.03 13.18 23.98 13.18 23.94C13.18 23.92 13.18 23.9 13.18 23.88C13.18 23.81 13.18 23.75 13.18 23.68C13.18 23.54 13.18 23.4 13.18 23.26C13.18 22.75 13.18 22.25 13.19 21.74C13.19 21.72 13.19 21.7 13.19 21.68C13.19 21.56 13.19 21.44 13.19 21.31C13.19 21.23 13.19 21.14 13.19 21.06C13.19 21.03 13.19 21 13.19 20.98C13.19 20.61 13.19 20.23 13.19 19.86C13.19 19.72 13.19 19.58 13.19 19.44C13.19 19.42 13.19 19.4 13.19 19.38C13.19 19.32 13.19 19.27 13.19 19.21C13.19 19.14 13.19 19.08 13.19 19.01C13.2 18.75 13.21 18.49 13.22 18.22C13.23 18.19 13.24 18.16 13.25 18.14C13.26 18.08 13.27 18.03 13.28 17.97C13.3 17.9 13.32 17.84 13.34 17.77C13.35 17.75 13.36 17.74 13.37 17.72C13.39 17.67 13.41 17.62 13.43 17.57C13.49 17.45 13.56 17.33 13.62 17.21C13.65 17.17 13.67 17.13 13.7 17.09C13.72 17.06 13.74 17.04 13.76 17.01C13.8 16.96 13.84 16.92 13.87 16.87C13.96 16.78 14.06 16.68 14.15 16.59C14.28 16.5 14.4 16.39 14.54 16.31C15.12 15.95 15.75 15.82 16.42 15.92C17.01 16 17.53 16.23 17.95 16.66C18.05 16.77 18.17 16.86 18.25 16.98C18.36 17.13 18.44 17.29 18.52 17.46C18.59 17.61 18.64 17.76 18.69 17.91C18.73 18.05 18.75 18.19 18.78 18.33C18.78 20.45 18.78 22.57 18.78 24.69C18.83 24.69 18.85 24.7 18.88 24.7C19.47 24.69 20.06 24.68 20.66 24.68C21.5 24.67 22.34 24.66 23.18 24.65C23.23 24.65 23.28 24.65 23.33 24.65C23.33 24.59 23.33 24.56 23.33 24.52C23.34 22.62 23.34 20.72 23.35 18.82C23.35 17.82 23.35 16.83 23.35 15.83C23.35 15.7 23.35 15.58 23.35 15.44C23.28 15.44 23.24 15.45 23.19 15.45C22.89 15.46 22.59 15.46 22.29 15.47C22.05 15.47 21.8 15.46 21.56 15.47C21.1 15.48 20.65 15.49 20.19 15.5C19.95 15.5 19.7 15.49 19.46 15.5C19.23 15.51 19 15.46 18.76 15.49C18.44 15.53 18.12 15.52 17.8 15.52C17.6 15.52 17.41 15.52 17.21 15.53C17.17 15.53 17.14 15.53 17.1 15.53C16.78 15.53 16.47 15.52 16.15 15.53C16.08 15.53 16.02 15.55 15.95 15.56C15.86 15.56 15.76 15.56 15.67 15.56C14.99 15.56 14.3 15.56 13.62 15.56C13.61 15.56 13.6 15.56 13.59 15.56C13.4 15.56 13.22 15.56 13.03 15.57C12.95 15.57 12.86 15.57 12.78 15.57C12.77 15.57 12.76 15.57 12.75 15.57C12.42 15.58 12.09 15.58 11.77 15.59C11.31 15.6 10.86 15.61 10.4 15.61C10.27 15.61 10.13 15.6 9.99999 15.6C9.72999 15.6 9.46 15.61 9.19 15.61C9.17 15.61 9.14999 15.61 9.12999 15.61C8.98999 15.61 8.84999 15.61 8.70999 15.61C8.69999 15.63 8.67999 15.65 8.67999 15.67C8.64999 15.85 8.65 16.01 8.66 16.18ZM14.96 5.69998C14.84 5.71998 14.72 5.72998 14.6 5.74998C14.58 5.74998 14.56 5.75998 14.54 5.76998C14.45 5.80998 14.36 5.84998 14.27 5.87998C13.87 6.02998 13.46 6.17998 13.06 6.32998C12.89 6.39998 12.73 6.51998 12.55 6.53998C12.18 6.57998 11.8 6.56998 11.42 6.57998C11.37 6.57998 11.32 6.57998 11.28 6.57998C11.28 6.71998 11.28 6.83998 11.28 6.96998C11.76 6.96998 12.23 6.96998 12.7 6.96998C12.74 6.96998 12.78 6.93998 12.82 6.90998C13.26 6.58998 13.73 6.33998 14.25 6.17998C14.42 6.11998 14.6 6.07998 14.78 6.01998C14.8 6.00998 14.82 6.00998 14.84 5.99998C14.87 5.99998 14.9 6.00998 14.93 6.00998C15.15 5.98998 15.38 5.94998 15.6 5.93998C15.83 5.92998 16.07 5.91998 16.31 5.93998C16.57 5.95998 16.83 5.97998 17.09 6.03998C17.41 6.10998 17.72 6.19998 18.03 6.30998C18.37 6.42998 18.7 6.58998 19.03 6.73998C19.24 6.83998 19.43 6.94998 19.67 6.92998C19.91 6.90998 20.16 6.91998 20.4 6.92998C20.76 6.93998 20.8 6.89998 20.77 6.52998C20.77 6.52998 20.76 6.51998 20.76 6.50998C20.69 6.51998 20.61 6.52998 20.54 6.52998C20.2 6.52998 19.87 6.52998 19.53 6.52998C19.46 6.52998 19.39 6.50998 19.33 6.47998C18.99 6.32998 18.67 6.15998 18.32 6.03998C17.99 5.91998 17.67 5.74998 17.31 5.72998C17.03 5.71998 16.74 5.64998 16.46 5.63998C16.12 5.62998 15.78 5.64998 15.44 5.65998C15.3 5.65998 15.16 5.65998 15.02 5.66998C14.98 5.65998 14.97 5.67998 14.96 5.69998ZM15.65 8.45998C15.63 8.46998 15.61 8.46998 15.59 8.47998C15.43 8.50998 15.26 8.52998 15.1 8.55998C14.56 8.67998 14.1 8.93998 13.67 9.28998C13.63 9.31998 13.58 9.34998 13.54 9.34998C13.32 9.36998 13.1 9.37998 12.89 9.37998C12.1 9.38998 11.3 9.39998 10.51 9.40998C9.45 9.41998 8.39999 9.42998 7.33999 9.43998C7.30999 9.43998 7.29 9.44998 7.26 9.44998C7.26 9.54998 7.26 9.63998 7.26 9.73998C7.3 9.73998 7.32999 9.74998 7.35999 9.73998C7.85999 9.72998 8.35999 9.71998 8.85999 9.71998C9.66999 9.70998 10.48 9.69998 11.28 9.68998C11.98 9.68998 12.67 9.68998 13.37 9.68998C13.53 9.68998 13.68 9.65998 13.8 9.53998C13.9 9.44998 14.01 9.36998 14.13 9.29998C14.69 8.90998 15.31 8.67998 16 8.67998C16.21 8.67998 16.42 8.69998 16.62 8.73998C17.12 8.82998 17.57 9.04998 17.98 9.34998C18.2 9.50998 18.39 9.72998 18.71 9.60998C19.85 9.59998 21 9.58998 22.14 9.57998C22.68 9.57998 23.23 9.56998 23.77 9.56998C24.09 9.56998 24.41 9.56998 24.73 9.56998C24.73 9.46998 24.73 9.36998 24.73 9.24998C24.43 9.24998 24.14 9.24998 23.84 9.24998C23.57 9.24998 23.31 9.25998 23.04 9.25998C22.79 9.25998 22.53 9.24998 22.28 9.26998C22.04 9.28998 21.8 9.21998 21.55 9.26998C21.38 9.29998 21.2 9.29998 21.02 9.29998C20.9 9.29998 20.78 9.27998 20.66 9.27998C19.94 9.27998 19.23 9.29998 18.51 9.29998C18.44 9.29998 18.36 9.26998 18.3 9.22998C18.02 9.05998 17.76 8.84998 17.46 8.72998C17.15 8.59998 16.81 8.51998 16.48 8.46998C16.21 8.41998 15.93 8.45998 15.65 8.45998ZM23.69 15.23C23.69 14.15 23.69 13.11 23.69 12.04C23.51 12.05 23.32 12.07 23.14 12.08C22.38 12.09 21.62 12.1 20.86 12.11C20.39 12.11 19.92 12.11 19.46 12.11C19.39 12.11 19.33 12.11 19.33 12.21C19.33 12.6 19.24 12.98 19.08 13.33C18.83 13.9 18.45 14.36 17.95 14.72C17.6 14.97 17.22 15.15 16.81 15.28C16.86 15.3 16.9 15.31 16.95 15.31C17.39 15.3 17.82 15.29 18.25 15.28C19.09 15.27 19.94 15.26 20.78 15.25C21.34 15.24 21.89 15.24 22.45 15.23C22.86 15.23 23.26 15.23 23.69 15.23ZM12.62 12.16C12.58 12.16 12.54 12.16 12.49 12.16C12.18 12.17 11.87 12.18 11.56 12.19C10.64 12.2 9.70999 12.21 8.78999 12.22C8.63999 12.22 8.48 12.22 8.33 12.22C8.33 13.28 8.33 14.33 8.33 15.39C8.38 15.39 8.43 15.39 8.48 15.39C8.85 15.38 9.21999 15.37 9.59999 15.36C10.37 15.35 11.14 15.34 11.91 15.33C12.95 15.32 13.99 15.31 15.03 15.3C15.07 15.3 15.11 15.3 15.15 15.29C13.62 14.8 12.77 13.79 12.62 12.16ZM20.07 8.03998C19.65 8.03998 19.27 8.03998 18.9 8.03998C18.83 8.03998 18.74 8.00998 18.69 7.96998C18.29 7.63998 17.84 7.42998 17.35 7.28998C16.65 7.08998 15.94 7.05998 15.22 7.16998C14.61 7.26998 14.03 7.47998 13.54 7.86998C13.31 8.04998 13.08 8.11998 12.8 8.09998C12.49 8.07998 12.18 8.09998 11.86 8.09998C11.86 8.47998 11.86 8.84998 11.86 9.19998C12.22 9.19998 12.57 9.17998 12.91 9.19998C13.2 9.21998 13.42 9.12998 13.66 8.95998C14.53 8.31998 15.5 7.99998 16.6 8.17998C17.26 8.28998 17.85 8.55998 18.39 8.93998C18.49 9.00998 18.59 9.11998 18.7 9.12998C19.14 9.14998 19.58 9.13998 20.02 9.13998C20.03 8.76998 20.05 8.40998 20.07 8.03998ZM11.67 7.94998C11.72 7.94998 11.77 7.94998 11.81 7.94998C12.15 7.93998 12.48 7.93998 12.82 7.92998C12.92 7.92998 13.02 7.88998 13.1 7.83998C14.06 7.20998 15.08 6.80998 16.26 6.87998C16.66 6.89998 17.04 6.96998 17.41 7.07998C17.97 7.23998 18.48 7.51998 18.96 7.83998C19.02 7.87998 19.09 7.89998 19.16 7.89998C19.5 7.89998 19.85 7.87998 20.19 7.86998C20.23 7.86998 20.27 7.86998 20.32 7.85998C20.33 7.57998 20.35 7.31998 20.36 7.03998C20.04 7.03998 19.75 7.02998 19.45 7.03998C19.25 7.04998 19.08 6.98998 18.92 6.88998C18.51 6.64998 18.08 6.43998 17.61 6.33998C17.19 6.24998 16.76 6.16998 16.33 6.14998C15.9 6.12998 15.47 6.17998 15.05 6.22998C14.41 6.29998 13.81 6.50998 13.27 6.85998C12.97 7.05998 12.68 7.12998 12.34 7.10998C12.11 7.08998 11.88 7.10998 11.65 7.10998C11.67 7.40998 11.67 7.66998 11.67 7.94998ZM19.02 10.54C19.1 10.75 19.18 10.95 19.23 11.16C19.28 11.37 19.3 11.58 19.32 11.8C19.33 11.89 19.37 11.9 19.44 11.89C19.74 11.88 20.04 11.87 20.35 11.86C21.19 11.85 22.04 11.84 22.88 11.83C23.22 11.83 23.55 11.83 23.89 11.83C23.96 11.83 24.02 11.82 24.02 11.73C24.02 11.32 24.02 10.91 24.02 10.48C22.35 10.5 20.69 10.52 19.02 10.54ZM7.98999 11.97C8.04999 11.97 8.11 11.97 8.16 11.97C9.1 11.96 10.05 11.95 10.99 11.94C11.5 11.94 12 11.94 12.51 11.94C12.62 11.94 12.64 11.9 12.65 11.8C12.67 11.61 12.7 11.41 12.75 11.23C12.81 11.02 12.9 10.81 12.98 10.58C11.31 10.6 9.65999 10.61 7.98999 10.63C7.98999 11.08 7.98999 11.52 7.98999 11.97ZM18.17 26.32C18.21 26.32 18.26 26.32 18.3 26.32C18.74 26.31 19.18 26.3 19.63 26.29C20.1 26.29 20.57 26.29 21.04 26.29C21.61 26.28 22.18 26.27 22.75 26.26C23.15 26.26 23.55 26.26 23.95 26.26C23.96 25.95 23.98 25.69 23.99 25.43C22.04 25.45 20.11 25.46 18.16 25.48C18.17 25.75 18.17 26.02 18.17 26.32ZM13.68 25.53C11.73 25.55 9.8 25.56 7.87 25.58C7.87 25.87 7.87 26.14 7.87 26.41C7.89 26.41 7.90999 26.42 7.91999 26.42C8.84999 26.41 9.77999 26.39 10.71 26.38C11.54 26.37 12.38 26.36 13.21 26.35C13.33 26.35 13.45 26.36 13.57 26.35C13.61 26.35 13.67 26.29 13.67 26.26C13.69 26.01 13.68 25.78 13.68 25.53ZM18.63 9.85998C18.72 9.97998 18.81 10.07 18.87 10.18C18.92 10.27 18.97 10.29 19.06 10.28C19.52 10.26 19.99 10.28 20.45 10.26C21.15 10.23 21.86 10.25 22.56 10.25C22.8 10.25 23.03 10.23 23.27 10.22C23.64 10.22 24.02 10.22 24.39 10.22C24.39 10.07 24.39 9.93998 24.39 9.79998C24.23 9.79998 24.08 9.79998 23.94 9.79998C23.85 9.79998 23.76 9.76998 23.67 9.77998C23.31 9.78998 22.95 9.81998 22.59 9.82998C22.51 9.82998 22.43 9.80998 22.35 9.80998C21.43 9.81998 20.5 9.83998 19.58 9.85998C19.28 9.86998 18.97 9.85998 18.63 9.85998ZM13.55 9.89998C11.62 9.91998 9.71 9.93998 7.8 9.95998C7.8 10.12 7.8 10.25 7.8 10.4C7.97 10.39 8.12999 10.37 8.28999 10.36C9.25999 10.35 10.24 10.34 11.21 10.33C11.84 10.33 12.46 10.33 13.09 10.32C13.16 10.32 13.24 10.29 13.28 10.25C13.37 10.16 13.45 10.04 13.55 9.89998ZM18.49 25.19C20.21 25.17 21.93 25.15 23.64 25.13C23.64 25.06 23.64 24.99 23.64 24.92C21.92 24.94 20.21 24.96 18.49 24.98C18.49 25.06 18.49 25.12 18.49 25.19ZM8.20999 25.29C9.92999 25.27 11.63 25.26 13.33 25.24C13.33 25.16 13.33 25.1 13.33 25.03C11.62 25.05 9.90999 25.07 8.20999 25.09C8.20999 25.15 8.20999 25.21 8.20999 25.29Z" fill="#E31E24"/>
<path d="M14.47 2.76001C14.48 2.85001 14.41 2.84001 14.36 2.84001C14.39 2.82001 14.43 2.79001 14.47 2.76001Z" fill="#E4272D"/>
<path d="M3.63001 11.1801C3.61001 11.2101 3.60002 11.2301 3.58002 11.2601C3.59002 11.2401 3.61001 11.2101 3.63001 11.1801Z" fill="#E4272D"/>
<path d="M27.72 9.75004C27.71 9.72004 27.69 9.70004 27.68 9.67004C27.69 9.69004 27.71 9.72004 27.72 9.75004Z" fill="#FEFBFB"/>
<path d="M28.11 10.53C28.1 10.5 28.09 10.48 28.07 10.45C28.09 10.48 28.1 10.51 28.11 10.53Z" fill="#FEFBFB"/>
<path d="M12.67 3.13C12.64 3.21 12.62 3.17 12.59 3.13C12.61 3.13 12.64 3.13 12.67 3.13Z" fill="#E42329"/>
<path d="M5.64998 7.68005C5.62998 7.70005 5.61998 7.71005 5.59998 7.73005C5.61998 7.71005 5.63998 7.69005 5.64998 7.68005Z" fill="#E4272D"/>
<path d="M12.56 3.13C12.54 3.15 12.52 3.16001 12.5 3.18001C12.52 3.16001 12.54 3.14 12.56 3.13Z" fill="#E42329"/>
<path d="M23.06 4.76997C23.04 4.74997 23.02 4.73997 23 4.71997C23.02 4.73997 23.04 4.75997 23.06 4.76997Z" fill="#FEFBFB"/>
<path d="M24.63 5.92C24.61 5.9 24.6 5.89 24.58 5.87C24.6 5.89 24.61 5.91 24.63 5.92Z" fill="#FEFBFB"/>
<path d="M24.83 6.08004C24.81 6.07004 24.79 6.05004 24.78 6.04004C24.79 6.06004 24.81 6.07004 24.83 6.08004Z" fill="#FEFBFB"/>
<path d="M22.02 4.18003C22 4.17003 21.98 4.17003 21.97 4.16003C21.98 4.17003 22 4.18003 22.02 4.18003Z" fill="#FEFBFB"/>
<path d="M12.16 3.27002C12.16 3.28002 12.15 3.29002 12.15 3.30002C12.15 3.29002 12.14 3.28002 12.14 3.27002C12.15 3.27002 12.15 3.27002 12.16 3.27002Z" fill="#E42329"/>
<path d="M28.06 10.42C28.05 10.41 28.05 10.4 28.04 10.39C28.04 10.4 28.05 10.41 28.06 10.42Z" fill="#FEFBFB"/>
<path d="M28.34 11.07C28.33 11.06 28.33 11.05 28.32 11.04C28.32 11.05 28.33 11.06 28.34 11.07Z" fill="#FEFBFB"/>
<path d="M23.51 5.05003C23.5 5.04003 23.49 5.04003 23.48 5.03003C23.49 5.04003 23.5 5.05003 23.51 5.05003Z" fill="#FEFBFB"/>
<path d="M23.42 4.99998C23.41 4.98998 23.4 4.98998 23.39 4.97998C23.4 4.97998 23.41 4.98998 23.42 4.99998Z" fill="#FEFBFB"/>
<path d="M23.25 4.87999C23.24 4.86999 23.23 4.86999 23.22 4.85999C23.23 4.86999 23.24 4.87999 23.25 4.87999Z" fill="#FEFBFB"/>
<path d="M3.66002 11.1C3.65002 11.11 3.65001 11.12 3.64001 11.13C3.64001 11.12 3.65002 11.11 3.66002 11.1Z" fill="#E4272D"/>
<path d="M28.39 11.2101C28.38 11.2001 28.38 11.1901 28.37 11.1801C28.38 11.1901 28.39 11.2001 28.39 11.2101Z" fill="#FEFBFB"/>
<path d="M22.81 4.59996C22.8 4.58996 22.79 4.58996 22.78 4.57996C22.78 4.58996 22.79 4.59996 22.81 4.59996Z" fill="#FEFBFB"/>
<path d="M29.18 14.55C29.17 14.54 29.17 14.54 29.16 14.53C29.16 14.53 29.17 14.54 29.18 14.55Z" fill="#FEFBFB"/>
<path d="M21.51 3.93003C21.5 3.92003 21.49 3.92003 21.48 3.91003C21.5 3.92003 21.5 3.92003 21.51 3.93003Z" fill="#FEFBFB"/>
<path d="M10.53 3.89001C10.52 3.90001 10.51 3.90001 10.5 3.91001C10.52 3.90001 10.53 3.90001 10.53 3.89001Z" fill="#E4272D"/>
<path d="M21.12 3.75999C21.11 3.74999 21.1 3.73999 21.1 3.73999C21.1 3.74999 21.11 3.75999 21.12 3.75999Z" fill="#FEFBFB"/>
<path d="M17.27 9.19002C17.23 9.17002 17.2 9.16001 17.16 9.14001C17.2 9.16001 17.24 9.18002 17.27 9.19002Z" fill="#FEFAFA"/>
<path d="M18.61 10.28C18.59 10.26 18.58 10.24 18.56 10.22C18.58 10.25 18.6 10.26 18.61 10.28Z" fill="#FEFAFA"/>
<path d="M18.37 10.01C18.36 9.98996 18.35 9.97996 18.34 9.95996C18.35 9.96996 18.36 9.98996 18.37 10.01Z" fill="#FEFAFA"/>
<path d="M14.77 6.00999C14.79 5.99999 14.81 5.99999 14.83 5.98999C14.81 5.99999 14.79 6.00999 14.77 6.00999Z" fill="#E32126"/>
<path d="M14.41 9.39001C14.4 9.40001 14.39 9.40002 14.38 9.41002C14.39 9.41002 14.4 9.40001 14.41 9.39001Z" fill="#FEF9F9"/>
<path d="M16.71 8.98997C16.7 8.98997 16.7 8.98997 16.69 8.98997C16.69 8.97997 16.7 8.97997 16.7 8.96997C16.7 8.97997 16.7 8.97997 16.71 8.98997Z" fill="#FEFAFA"/>
<path d="M18.75 10.51C18.74 10.51 18.73 10.5 18.73 10.49C18.74 10.49 18.75 10.5 18.75 10.51Z" fill="#FEFAFA"/>
<path d="M11.94 17.36C11.94 17.48 11.94 17.6 11.94 17.72C11.94 18.14 11.93 18.56 11.93 18.98C11.93 19.08 11.93 19.19 11.93 19.29C11.93 19.46 11.93 19.63 11.92 19.8C11.92 20.34 11.92 20.89 11.91 21.43C11.91 21.48 11.91 21.52 11.91 21.57C11.91 21.71 11.91 21.85 11.91 21.99C11.91 22.07 11.91 22.16 11.91 22.24C11.91 22.28 11.91 22.31 11.91 22.35C11.91 22.8 11.91 23.25 11.91 23.7C11.91 23.78 11.91 23.87 11.91 23.95C11.85 23.97 11.8 23.99 11.74 24.01C11.11 24.02 10.49 24.02 9.86001 24.03C9.78001 24.01 9.71 24 9.63 23.98C9.63 23.89 9.63 23.79 9.63 23.7C9.63 23.64 9.63 23.59 9.63 23.53C9.63 23.4 9.63 23.27 9.63 23.14C9.63 22.72 9.64001 22.3 9.64001 21.88C9.64001 21.76 9.64001 21.64 9.64001 21.52C9.64001 21.37 9.64001 21.22 9.64001 21.07C9.64001 20.53 9.64001 19.98 9.64001 19.44C9.64001 19.41 9.64001 19.38 9.64001 19.36C9.64001 19.22 9.64001 19.08 9.64001 18.94C9.64001 18.47 9.64001 18 9.64001 17.54C9.64001 17.51 9.64001 17.48 9.64001 17.46C9.64001 17.43 9.64001 17.4 9.64001 17.38C9.67001 17.36 9.70001 17.32 9.74001 17.32C9.84001 17.31 9.94001 17.31 10.04 17.3C10.43 17.3 10.83 17.29 11.22 17.29C11.24 17.29 11.26 17.29 11.28 17.29C11.49 17.29 11.71 17.3 11.92 17.3C11.94 17.31 11.94 17.33 11.94 17.36ZM11.59 23.56C11.59 21.62 11.59 19.68 11.59 17.75C11.06 17.75 10.52 17.75 9.98001 17.75C9.98001 19.7 9.98001 21.65 9.98001 23.61C10.51 23.59 11.04 23.57 11.59 23.56Z" fill="#E31E24"/>
<path d="M9.32998 15.9499C10.07 15.9499 10.81 15.9399 11.55 15.9399C11.88 15.9399 12.2 15.9399 12.53 15.9399C12.54 15.9499 12.55 15.9599 12.56 15.9599C12.56 16.2199 12.56 16.4699 12.56 16.7399C12.5 16.7399 12.45 16.7499 12.4 16.7499C12.24 16.7499 12.08 16.7499 11.92 16.7499C11.62 16.7499 11.32 16.7599 11.02 16.7599C10.7 16.7599 10.38 16.7599 10.06 16.7699C9.71997 16.7699 9.38998 16.7699 9.04998 16.7699C9.04998 16.6999 9.03998 16.6499 9.03998 16.5999C9.03998 16.5699 9.03998 16.5399 9.03998 16.5199C9.03998 16.4699 9.03998 16.4299 9.03998 16.3799C9.03998 16.3499 9.03998 16.3199 9.03998 16.2999C9.03998 16.1999 9.03998 16.0899 9.03998 15.9899C9.11998 15.9799 9.19998 15.9699 9.27998 15.9599C9.28998 15.9499 9.30998 15.9499 9.32998 15.9499ZM12.22 16.1699C11.24 16.1699 10.28 16.1699 9.32998 16.1699C9.32998 16.3099 9.32998 16.4399 9.32998 16.5899C9.57998 16.5799 9.81998 16.5599 10.05 16.5499C10.74 16.5399 11.43 16.5299 12.12 16.5199C12.15 16.5199 12.18 16.5199 12.22 16.5099C12.22 16.3899 12.22 16.2799 12.22 16.1699Z" fill="#E31E24"/>
<path d="M12.55 15.9599C12.54 15.9499 12.53 15.9399 12.52 15.9399C12.54 15.9399 12.55 15.9499 12.55 15.9599Z" fill="#E94D52"/>
<path d="M19.92 24.13C19.92 21.74 19.92 19.38 19.92 17C20.71 17 21.48 17 22.25 17C22.25 19.35 22.25 21.69 22.25 24.05C22.19 24.06 22.12 24.08 22.05 24.08C21.54 24.08 21.02 24.08 20.51 24.09C20.32 24.1 20.12 24.12 19.92 24.13ZM20.28 17.48C20.27 17.49 20.26 17.5 20.25 17.5C20.25 17.52 20.25 17.54 20.25 17.56C20.24 19.55 20.23 21.55 20.22 23.54C20.22 23.58 20.23 23.61 20.23 23.66C20.8 23.64 21.36 23.63 21.93 23.61C21.93 21.56 21.93 19.52 21.93 17.48C21.38 17.48 20.83 17.48 20.28 17.48Z" fill="#E31E24"/>
<path d="M19.38 16.67C19.37 16.67 19.36 16.66 19.35 16.66C19.35 16.54 19.35 16.43 19.35 16.31C19.35 16.21 19.33 16.11 19.32 16.01C19.32 15.96 19.33 15.91 19.33 15.83C20.28 15.83 21.23 15.83 22.19 15.83C22.37 15.83 22.55 15.83 22.74 15.83C22.78 15.83 22.83 15.84 22.87 15.85C22.87 15.91 22.87 15.96 22.86 16.02C22.86 16.05 22.86 16.08 22.86 16.1C22.86 16.13 22.86 16.16 22.86 16.18C22.86 16.28 22.86 16.39 22.86 16.49C22.86 16.52 22.86 16.55 22.86 16.57C22.85 16.58 22.85 16.59 22.84 16.6C22.84 16.61 22.84 16.63 22.84 16.64C22.3 16.64 21.77 16.65 21.23 16.65C20.61 16.66 20 16.66 19.38 16.67ZM22.55 16.04C22.06 16.04 21.58 16.04 21.1 16.04C20.62 16.04 20.13 16.04 19.65 16.04C19.65 16.2 19.65 16.32 19.65 16.45C19.7 16.45 19.75 16.45 19.8 16.45C20.14 16.44 20.49 16.43 20.83 16.43C21.28 16.43 21.74 16.43 22.19 16.43C22.31 16.43 22.43 16.41 22.56 16.39C22.55 16.27 22.55 16.16 22.55 16.04Z" fill="#E31E24"/>
<path d="M19.32 16.01C19.33 16.11 19.34 16.21 19.35 16.31C19.36 16.43 19.35 16.54 19.35 16.66C19.33 16.64 19.3 16.62 19.3 16.6C19.31 16.4 19.32 16.2 19.32 16.01Z" fill="#E42329"/>
<path d="M16.05 9.19005C17.66 9.17005 18.76 10.47 18.88 11.7C18.97 12.6 18.71 13.39 18.08 14.05C17.45 14.71 16.66 15.02 15.76 14.97C14.36 14.89 13.09 13.73 13.11 12.06C13.12 10.52 14.38 9.17005 16.05 9.19005ZM14.52 14.21C14.53 14.21 14.54 14.22 14.55 14.23C14.59 14.25 14.62 14.28 14.66 14.3C14.67 14.31 14.68 14.31 14.69 14.32C14.79 14.37 14.9 14.42 15 14.47C15.01 14.48 15.02 14.49 15.02 14.49C15.24 14.54 15.46 14.61 15.68 14.63C15.91 14.65 16.14 14.66 16.36 14.62C16.6 14.58 16.84 14.5 17.06 14.39C17.3 14.27 17.55 14.12 17.75 13.94C18.49 13.26 18.7 12.4 18.5 11.44C18.28 10.39 17.35 9.60005 16.26 9.51005C15.79 9.47005 15.34 9.55005 14.91 9.74005C14.9 9.75005 14.89 9.75005 14.88 9.76005C14.87 9.76005 14.86 9.77005 14.85 9.77005C14.84 9.78005 14.83 9.78005 14.82 9.79005C14.81 9.79005 14.8 9.80005 14.79 9.80005C14.78 9.81005 14.77 9.81005 14.76 9.82005C14.73 9.84005 14.71 9.86005 14.68 9.88005C14.63 9.91005 14.58 9.94005 14.54 9.96005C14.24 10.16 14 10.41 13.81 10.72C13.79 10.75 13.77 10.78 13.75 10.8C13.73 10.84 13.72 10.88 13.7 10.91C13.68 10.95 13.66 10.98 13.64 11.02C13.63 11.03 13.63 11.04 13.62 11.04C13.61 11.08 13.6 11.12 13.58 11.15C13.57 11.16 13.57 11.17 13.56 11.18C13.53 11.27 13.5 11.35 13.48 11.44C13.44 11.68 13.4 11.92 13.39 12.16C13.38 12.32 13.43 12.49 13.45 12.65C13.46 12.66 13.47 12.67 13.47 12.68C13.47 12.7 13.47 12.72 13.48 12.73C13.49 12.75 13.49 12.77 13.5 12.79C13.52 12.86 13.54 12.94 13.57 13.01C13.58 13.02 13.58 13.03 13.59 13.04C13.6 13.08 13.61 13.12 13.62 13.15C13.63 13.16 13.63 13.17 13.64 13.17C13.65 13.19 13.66 13.21 13.67 13.23C13.69 13.25 13.7 13.28 13.72 13.3C13.76 13.38 13.79 13.46 13.84 13.53C14.01 13.79 14.21 14.02 14.48 14.18C14.5 14.2 14.51 14.2 14.52 14.21Z" fill="#E32026"/>
<path d="M14.96 5.68994C14.97 5.68994 14.97 5.69994 14.98 5.69994C14.97 5.70994 14.97 5.69994 14.96 5.68994Z" fill="#FEFBFB"/>
<path d="M20.28 17.48C20.27 17.49 20.26 17.5 20.25 17.5C20.26 17.49 20.27 17.48 20.28 17.48Z" fill="#FACFD0"/>
<path d="M22.86 16.5699C22.85 16.5799 22.85 16.5899 22.84 16.5999C22.85 16.5899 22.86 16.5799 22.86 16.5699Z" fill="#FACFD0"/>
<path d="M15.79 11.0999C15.79 11.2299 15.79 11.3599 15.79 11.4899C15.79 11.5099 15.79 11.5299 15.79 11.5499C15.79 11.5999 15.79 11.6399 15.79 11.6899C15.79 11.7499 15.79 11.7999 15.79 11.8599C15.79 11.9199 15.79 11.9699 15.79 12.0299C15.79 12.0499 15.79 12.0699 15.79 12.0899C15.79 12.1299 15.79 12.1599 15.79 12.1999C15.79 12.2199 15.79 12.2399 15.79 12.2599C15.79 12.3099 15.79 12.3499 15.79 12.3999C15.79 12.4199 15.79 12.4499 15.79 12.4999C15.82 12.4499 15.84 12.4299 15.86 12.3999C15.97 12.2599 16.07 12.1199 16.18 11.9799C16.21 11.9499 16.23 11.9199 16.26 11.8899C16.32 11.8799 16.37 11.8699 16.43 11.8699C16.46 11.8699 16.49 11.8599 16.51 11.8599C16.59 11.8599 16.68 11.8599 16.76 11.8599C16.8 11.8699 16.83 11.8799 16.87 11.8899C16.94 11.9199 17 11.9499 17.07 11.9799C17.08 11.9899 17.09 11.9899 17.1 11.9999C17.33 12.1799 17.56 12.3599 17.79 12.5399C17.82 12.5699 17.86 12.6099 17.86 12.6499C17.88 12.8399 17.89 13.0299 17.89 13.2199C17.89 13.2699 17.85 13.3299 17.82 13.3699C17.68 13.5499 17.55 13.7299 17.4 13.8999C17.37 13.9399 17.3 13.9599 17.24 13.9599C16.66 13.9599 16.09 13.9599 15.51 13.9599C15.19 13.9599 14.86 13.9599 14.53 13.9599C14.53 13.8699 14.53 13.7599 14.53 13.6299C14.57 13.6199 14.61 13.6099 14.66 13.5999C14.66 13.4899 14.66 13.3899 14.66 13.2899C14.66 12.3799 14.66 11.4799 14.66 10.5699C14.66 10.4899 14.68 10.3999 14.55 10.3799C14.57 10.3699 14.59 10.3599 14.6 10.3599C15.06 10.3499 15.52 10.3399 15.98 10.3299C16.37 10.3199 16.77 10.3199 17.16 10.3199C17.21 10.3199 17.25 10.3499 17.3 10.3599C17.31 10.3699 17.31 10.3799 17.32 10.3899C17.34 10.4499 17.36 10.5199 17.38 10.5799C17.39 10.5899 17.39 10.5999 17.4 10.6099C17.37 10.6499 17.34 10.6899 17.3 10.7299C17.29 10.7499 17.27 10.7599 17.26 10.7799C17.22 10.8099 17.19 10.8399 17.15 10.8599C17.12 10.8799 17.09 10.8999 17.06 10.9199C17 10.9599 16.95 10.9999 16.89 11.0399C16.78 10.8699 16.67 10.6999 16.55 10.5399C16.51 10.4799 16.47 10.3899 16.37 10.4199C16.2 10.4199 16.03 10.4199 15.87 10.4199C15.84 10.4299 15.82 10.4399 15.79 10.4399C15.79 10.6299 15.79 10.8099 15.79 10.9999C15.79 11.0199 15.79 11.0599 15.79 11.0999ZM17.53 13.1399C17.17 12.8499 16.85 12.5199 16.43 12.2899C16.27 12.5099 16.13 12.7499 15.95 12.9299C15.75 13.1199 15.8 13.3399 15.79 13.5699C16.2 13.5699 16.59 13.5599 16.99 13.5699C17.12 13.5699 17.2 13.5299 17.28 13.4199C17.35 13.3299 17.44 13.2399 17.53 13.1399Z" fill="#E31E24"/>
<path d="M15.87 10.4C15.87 10.41 15.87 10.42 15.87 10.42C15.84 10.42 15.82 10.42 15.79 10.42C15.82 10.42 15.84 10.41 15.87 10.4Z" fill="#FACFD0"/>
</svg>
