<svg width="32" height="32" viewBox="0 0 32 32" fill="none" xmlns="http://www.w3.org/2000/svg">
<path d="M8.92254 8H2C17.8636 21.17 27.0277 14.8795 27.0277 14.8795C19.5726 15.882 11.9566 10.4686 8.92254 8Z" fill="#174666"/>
<path d="M30 11.7719C24.6378 14.1778 18.644 9.16542 17.3685 8.01257H11.35C23.5604 18.5762 30 11.7719 30 11.7719Z" fill="#8A8778"/>
<path d="M23.0772 24.754H29.9997C14.136 11.5589 4.97205 17.862 4.97205 17.862C12.4271 16.8595 20.0431 22.2729 23.0772 24.754Z" fill="#8A8778"/>
<path d="M2 20.9444C7.3622 18.5134 13.3559 23.5759 14.6315 24.7538H20.6376C8.42718 14.0524 2 20.9444 2 20.9444Z" fill="#174666"/>
</svg>
