<svg width="32" height="32" viewBox="0 0 32 32" fill="none" xmlns="http://www.w3.org/2000/svg">
<path d="M27.3 12.42C25.58 9.83 22.39 8 19 8C15.66 8 12.47 9.78 10.7 12.42H13.07C14.69 10.74 16.79 9.83 19 9.83C21.17 9.83 23.31 10.74 24.93 12.42H27.3Z" fill="#FF3C28"/>
<path d="M9.71 21.21L9.67 21.25C8.94 22 8.1 22.39 7.23 22.39C5.41 22.39 4.09 21.02 4.09 19.13C4.09 17.24 5.41 15.87 7.23 15.87C8.1 15.87 8.95 16.27 9.67 17.02L9.71 17.07L10.88 15.65L10.85 15.61C9.88 14.45 8.71 13.89 7.27 13.89C5.83 13.89 4.51 14.37 3.56 15.25C2.54 16.21 2 17.55 2 19.14C2 20.72 2.54 22.07 3.57 23.02C4.52 23.9 5.84 24.38 7.28 24.38C8.71 24.38 9.88 23.82 10.86 22.67L10.89 22.63L9.71 21.21Z" fill="#255BE3"/>
<path d="M12.06 24.1799H14.13V23.1299V14.0699H12.06V24.1799Z" fill="#255BE3"/>
<path d="M22.23 21.98C21.68 22.32 21.16 22.49 20.7 22.49C20.03 22.49 19.73 22.14 19.73 21.35V15.98H21.83V14.07H19.73V10.92L17.7 12.01V14.07H15.95V15.98H17.7V21.69C17.7 23.25 18.62 24.31 19.99 24.34C20.92 24.36 21.48 24.08 21.82 23.87L21.84 23.86L22.34 21.91L22.23 21.98Z" fill="#255BE3"/>
<path d="M23.94 24.1799H26V22.4899V14.0699H23.94V24.1799Z" fill="#255BE3"/>
<path d="M29.31 11.68C29.31 11.78 29.24 11.83 29.15 11.83H28.88V11.54H29.15C29.24 11.54 29.31 11.59 29.31 11.68ZM29.49 11.68C29.49 11.47 29.34 11.37 29.15 11.37H28.7V12.4H28.87V12H29.07L29.27 12.4H29.48L29.27 11.98C29.4 11.94 29.49 11.84 29.49 11.68ZM29.85 11.9C29.85 12.35 29.51 12.69 29.06 12.69C28.61 12.69 28.27 12.35 28.27 11.9C28.27 11.45 28.61 11.11 29.06 11.11C29.51 11.11 29.85 11.45 29.85 11.9ZM30 11.9C30 11.36 29.59 10.96 29.06 10.96C28.52 10.96 28.12 11.37 28.12 11.9C28.12 12.44 28.53 12.84 29.06 12.84C29.59 12.84 30 12.44 30 11.9Z" fill="#255BE3"/>
</svg>
