<svg width="32" height="32" viewBox="0 0 32 32" fill="none" xmlns="http://www.w3.org/2000/svg">
<path d="M15.9733 3.70326C12.5721 3.7086 9.49125 5.10219 7.25403 7.32339C5.02749 9.55527 3.64992 12.6308 3.64992 16.016C3.66594 19.4172 5.05419 22.4767 7.29674 24.6979C9.5393 26.9298 12.6362 28.302 16.032 28.2913C19.4333 28.2753 22.5141 26.887 24.746 24.6605C26.9725 22.434 28.3501 19.3531 28.3448 15.9679C28.3341 12.572 26.9405 9.50722 24.7033 7.28068C22.4554 5.06482 19.3692 3.68724 15.9733 3.70326ZM24.9916 8.04421L17.9649 8.07625L16.0748 4.01829C19.3425 4.03431 22.3059 5.36382 24.479 7.51027C24.6552 7.68113 24.8261 7.86267 24.9916 8.04421ZM21.521 15.8291L10.4844 15.8771L9.93976 17.0358L22.0763 16.9984L21.5744 15.8558L28.0297 15.8291C28.0297 15.8771 28.0297 15.9199 28.0297 15.9679C28.0297 16.3096 28.0137 16.6514 27.987 16.9877L22.0816 17.0091L22.7117 18.3813L27.7895 18.3653C27.7307 18.659 27.6613 18.9473 27.5812 19.2303L23.1442 19.241L22.717 18.392L9.32039 18.4134L8.95196 19.2944L23.1281 19.257L23.8703 20.9176L26.9725 20.8855C26.8657 21.1151 26.7589 21.3447 26.6415 21.569L24.1907 21.5743L25.1838 23.7208L25.1945 23.7421L25.2319 23.8169H25.0984L6.83755 23.897L7.85738 21.6597L5.43329 21.6864C5.30514 21.4462 5.18233 21.2059 5.0702 20.9549L8.19377 20.9496L7.87874 21.6491L24.196 21.6064L23.8703 20.9069L8.19911 20.9443L8.9573 19.2677H4.44015C4.36006 18.9847 4.29065 18.6964 4.23191 18.408L9.3631 18.3974L9.9451 17.0518L4.02902 17.0732C3.99698 16.7261 3.98096 16.3737 3.98096 16.0213C3.98096 15.9733 3.98096 15.9305 3.98096 15.8825L10.4844 15.8665L11.0771 14.7078L4.05571 14.6865C4.10911 14.1952 4.19454 13.7147 4.30667 13.2448L11.6484 13.2768L11.029 14.6865L21.0297 14.6384L20.3623 13.2448L27.7094 13.2235C27.8215 13.6826 27.9016 14.1525 27.955 14.6331L20.9977 14.6598L21.521 15.8291ZM19.9779 12.3318L19.2838 10.8741L12.7216 10.8848L12.0809 12.3478H19.9191L20.3196 13.2341L11.6751 13.2502L12.0862 12.3798L4.5416 12.3852C4.70178 11.8779 4.894 11.392 5.11826 10.9168L12.7643 10.8688L13.0954 10.1746L5.5027 10.1853C5.81238 9.63002 6.17013 9.09608 6.56524 8.59951L13.8108 8.57816L13.0687 10.1693L18.9474 10.1479L19.2784 10.8741L26.8604 10.8528C27.09 11.328 27.2875 11.8192 27.4477 12.3264L19.9779 12.3318ZM18.9474 10.1266L18.2319 8.57282L25.4134 8.54612C25.8085 9.03735 26.1609 9.56061 26.476 10.1159L18.9474 10.1266ZM7.48896 7.54765C9.63541 5.39586 12.5935 4.05033 15.8612 4.01829L15.9626 3.79937L15.968 3.81005L14.0084 8.10295L17.9329 8.08159L18.1678 8.55146L13.8162 8.5568L14.0137 8.08693L6.96036 8.11897C7.12588 7.92141 7.30208 7.72919 7.48896 7.54765Z" fill="#1471D1"/>
<path d="M16 2C15.9893 2 15.9733 2 15.9626 2C8.24716 2.02136 1.98401 8.3112 2.00003 16.0267C2.01071 19.7643 3.47371 23.2776 6.12741 25.9153C8.77042 28.5476 12.2731 29.9946 15.9947 29.9946C16.0053 29.9946 16.0214 29.9946 16.032 29.9946C23.7528 29.9786 30.016 23.6834 30 15.9679C29.9733 8.2578 23.6994 2 16 2ZM29.3913 15.9679C29.402 19.5347 28.0137 22.8985 25.4882 25.4401C22.9626 27.9763 19.6041 29.3806 16.032 29.3859C16.016 29.3859 16 29.3859 15.984 29.3859C12.4279 29.3859 9.08545 28.003 6.55456 25.4881C4.01833 22.9626 2.61406 19.6041 2.60339 16.0267C2.59271 12.4599 3.98096 9.09609 6.5065 6.55987C9.03205 4.02364 12.3905 2.61937 15.9626 2.60869C15.9733 2.60869 15.984 2.60869 16 2.60869C19.5561 2.60869 22.9092 3.9916 25.4401 6.51181C27.9763 9.03736 29.3806 12.3959 29.3913 15.9679Z" fill="#1471D1"/>
</svg>
