<svg width="33" height="32" viewBox="0 0 33 32" fill="none" xmlns="http://www.w3.org/2000/svg">
<path d="M32 0H0V32H32V0Z" fill="#14387F"/>
<path d="M31.993 9.90853C31.3448 9.86112 27.7513 9.55167 24.4379 9.55167C21.6869 9.55167 19.9207 9.66683 18.0664 10.035C17.475 10.1869 16.8959 10.3831 16.334 10.6223C16.334 10.6223 15.8597 10.4122 15.1595 8.54432C14.5117 6.73716 14.0574 4.86634 13.8044 2.9633C13.5785 1.60813 13.4453 0.460756 13.4046 0H12.2753C12.3019 2.16444 12.5036 4.32319 12.8784 6.4551C13.6214 10.6719 15.2837 13.4003 15.408 13.5991C15.408 13.5991 15.7942 13.1248 17.1178 12.603C18.753 11.9548 21.4837 11.2705 25.5876 10.9858C28.2324 10.8007 31.3831 10.8255 31.9907 10.8346L31.993 9.90853Z" fill="#FBBA00"/>
<path d="M21.5606 20.5825H19.5279L27.2207 27.2386C26.6086 27.1415 25.931 27.0489 25.206 26.9202C24.3025 26.7892 23.5798 26.6807 22.9609 26.5814L17.2557 20.5825H15.223L21.9672 26.4097C20.35 26.1432 19.4826 25.9693 17.145 25.5401C13.7029 24.9077 11.1258 24.3228 8.83108 23.9953C7.23803 23.7445 5.60744 23.9004 4.09077 24.4485C2.5741 24.9965 1.22052 25.919 0.155762 27.1302L0.668467 28.7745C1.98631 26.9802 3.93851 25.7558 6.12753 25.3504C8.83786 24.8242 10.9519 25.8022 13.1427 26.2245C14.3308 26.4639 16.7295 27.0851 23.4782 27.7017L26.6809 30.4752L24.1061 27.7785C25.5696 27.8936 26.9542 27.9885 28.1715 28.0472L30.9722 30.4752L28.6798 28.0743C30.3308 28.1624 31.5482 28.1714 31.9909 28.1759V27.7468C31.5279 27.7085 30.1524 27.6204 27.9751 27.3357L21.5606 20.5825Z" fill="#FBBA00"/>
<path d="M26.0005 20.5808H23.952L32.0062 27.5351V26.8914L26.0005 20.5808Z" fill="#FBBA00"/>
<path d="M0.797289 10.6473L1.80464 9.32153C4.51497 11.6591 6.45963 14.7421 5.7301 17.6196C4.89215 20.9511 1.78882 22.9116 0 23.8127V23.5417C0.0677583 23.4988 4.2236 20.9037 4.72501 17.4163C5.30773 13.3848 0.840203 10.6722 0.797289 10.6473Z" fill="#FBBA00"/>
<path d="M31.9925 18.0895C29.6339 18.7208 27.2149 19.0993 24.7762 19.2188C20.7423 19.4288 17.2912 19.0449 13.8988 17.7598C10.2832 16.4176 7.19025 13.9568 5.06986 10.7355C3.79041 8.75461 2.80162 6.60059 2.13367 4.33907L4.02864 3.29333C4.49808 6.19682 5.67736 8.93941 7.46173 11.2776C8.94055 13.2051 10.8161 14.7925 12.9614 15.9325C16.5165 17.8275 19.7508 18.2792 22.6147 18.4215C24.7288 18.548 26.4138 18.4689 28.9976 18.1685C30.5153 17.9856 31.6424 17.7665 31.988 17.701L31.9925 18.0895Z" fill="#FBBA00"/>
</svg>
