<svg width="32" height="32" viewBox="0 0 32 32" fill="none" xmlns="http://www.w3.org/2000/svg">
<path fill-rule="evenodd" clip-rule="evenodd" d="M28.955 15.152L28.955 15.1522C28.97 15.2846 28.985 15.4171 28.995 15.547C29.0261 15.9519 28.9845 16.3567 28.941 16.7804C28.9286 16.9009 28.916 17.023 28.905 17.147C28.855 17.627 28.735 18.087 28.615 18.547C28.5804 18.6785 28.5266 18.8147 28.4736 18.9491L28.4736 18.9492C28.45 19.0091 28.4265 19.0685 28.405 19.1271C28.255 19.5271 28.075 19.927 27.865 20.307L27.8247 20.3781C27.6279 20.7255 27.4277 21.0788 27.175 21.397C27.1142 21.4768 27.0562 21.5581 26.9984 21.6392L26.9984 21.6392L26.9984 21.6392L26.9984 21.6392L26.9984 21.6392L26.9984 21.6392L26.9984 21.6392L26.9984 21.6393L26.9984 21.6393L26.9983 21.6393L26.9983 21.6393L26.9983 21.6393L26.9983 21.6393L26.9983 21.6393L26.9983 21.6393C26.9041 21.7715 26.8103 21.9031 26.705 22.027L26.7039 22.0282C26.4943 22.2578 26.2846 22.4875 26.065 22.7071C26.0178 22.7525 25.9707 22.7983 25.9235 22.8441L25.9234 22.8441C25.6901 23.0705 25.4545 23.2992 25.205 23.5071C24.895 23.7471 24.585 23.9871 24.255 24.2071C23.995 24.3871 23.735 24.5571 23.465 24.7071C23.3742 24.7565 23.2851 24.8075 23.1961 24.8584C22.9615 24.9925 22.7288 25.1255 22.475 25.227C22.357 25.2751 22.2409 25.3289 22.1251 25.3826C21.9758 25.4518 21.827 25.5208 21.675 25.5771C21.6083 25.603 21.5417 25.6292 21.475 25.6555C21.1814 25.7712 20.8865 25.8874 20.585 25.977C20.375 26.037 20.175 26.0871 19.965 26.1371C19.265 26.3171 18.565 26.477 17.845 26.547C17.115 26.627 16.385 26.697 15.645 26.677C15.325 26.6637 15.005 26.6326 14.6849 26.6015C14.525 26.5859 14.365 26.5704 14.205 26.557C13.9952 26.5405 13.7884 26.5056 13.5831 26.4709H13.583H13.583H13.583H13.583H13.583H13.583H13.583H13.5829H13.5829H13.5829H13.5829H13.5829H13.5829H13.5829C13.4163 26.4429 13.2507 26.4149 13.085 26.397C13.0084 26.3852 12.9353 26.363 12.8615 26.3406L12.8615 26.3406C12.8101 26.325 12.7584 26.3094 12.705 26.297C11.995 26.147 11.305 25.927 10.625 25.677C10.065 25.467 9.52498 25.2071 8.99498 24.937C8.53498 24.7071 8.10498 24.437 7.68498 24.157C7.38497 23.957 7.11047 23.7315 6.83597 23.506L6.83595 23.506C6.72618 23.4158 6.6164 23.3256 6.50499 23.237C6.03499 22.857 5.63499 22.4071 5.25499 21.9471C4.89499 21.5171 4.58498 21.0571 4.30498 20.5671C4.11498 20.2271 3.93495 19.887 3.77495 19.537C3.62481 19.2086 3.50992 18.8538 3.39718 18.5056L3.37499 18.4371C3.23499 17.9971 3.155 17.557 3.075 17.107C2.985 16.5895 2.99625 16.072 3.0075 15.5545C3.01125 15.382 3.015 15.2095 3.015 15.037C3.015 14.8916 3.04437 14.7462 3.0742 14.5985C3.09359 14.5025 3.11317 14.4055 3.12499 14.307C3.18499 13.827 3.32495 13.367 3.46495 12.917C3.56495 12.627 3.67499 12.327 3.81499 12.047C3.85657 11.9639 3.89455 11.8783 3.93268 11.7924C4.00456 11.6305 4.07695 11.4674 4.17497 11.3171C4.24739 11.2065 4.314 11.0916 4.38089 10.9762L4.38089 10.9762C4.48949 10.7889 4.59883 10.6003 4.73497 10.427C4.78997 10.357 4.83997 10.282 4.88997 10.207L4.88997 10.207L4.88997 10.207C4.93997 10.132 4.98997 10.057 5.04497 9.98704C5.51497 9.39704 6.01501 8.84703 6.58501 8.35703C6.99501 7.99703 7.43501 7.67705 7.89501 7.37705C8.34501 7.07705 8.79496 6.79707 9.28496 6.57707C9.36729 6.53769 9.44833 6.49575 9.52901 6.45401L9.52901 6.454C9.67373 6.37911 9.81728 6.30483 9.96495 6.24705C10.0467 6.21434 10.1285 6.1811 10.2104 6.1478L10.2104 6.1478C10.6293 5.9775 11.0517 5.8058 11.495 5.69706C11.6083 5.6704 11.7216 5.63485 11.8349 5.5993C11.8916 5.58151 11.9483 5.56371 12.005 5.54704C12.335 5.44704 12.665 5.36705 13.005 5.30705C13.445 5.21705 13.885 5.13702 14.335 5.09702L14.4627 5.08496C15.061 5.02825 15.6715 4.97039 16.465 5.01707C16.725 5.01707 17.175 5.03702 17.635 5.09702C17.7386 5.11272 17.8431 5.12939 17.948 5.14613C18.1774 5.18273 18.4086 5.2196 18.635 5.24705C19.0826 5.3073 19.5079 5.41939 19.9366 5.53234C20.0059 5.55061 20.0754 5.56891 20.145 5.58701C20.5448 5.69696 20.9346 5.83689 21.3244 5.97682L21.325 5.97703C21.8936 6.17605 22.4263 6.43796 22.9657 6.70315L22.9657 6.70316L23.055 6.74705C23.2196 6.82114 23.3775 6.92231 23.5342 7.02272C23.5678 7.04428 23.6014 7.0658 23.635 7.08701C23.7095 7.13392 23.784 7.18006 23.8583 7.22607L23.8584 7.22615L23.8585 7.2262L23.8585 7.22621C24.0534 7.34692 24.2468 7.46674 24.435 7.59702C24.685 7.76702 24.925 7.95701 25.155 8.14701C25.445 8.38701 25.745 8.63703 26.005 8.91703L26.0927 9.01229C26.4046 9.35089 26.7199 9.6931 26.985 10.0771C27.0155 10.1187 27.0463 10.1604 27.077 10.2021C27.2681 10.4609 27.4614 10.7229 27.625 11.0071C27.765 11.2371 27.895 11.4671 27.995 11.7071C28.0215 11.7759 28.0592 11.8448 28.0977 11.9151L28.0977 11.9151L28.0977 11.9152L28.0977 11.9152L28.0978 11.9152C28.132 11.9776 28.1668 12.0412 28.195 12.107C28.345 12.437 28.475 12.777 28.575 13.117C28.735 13.647 28.875 14.1971 28.915 14.7571C28.925 14.887 28.94 15.0195 28.955 15.1519L28.955 15.152ZM28.4471 16.7834L28.4471 16.7832L28.4472 16.7829L28.4472 16.7826L28.4472 16.7824L28.4472 16.7821L28.4473 16.7818L28.4473 16.7816L28.4473 16.7813C28.4561 16.6931 28.4649 16.6051 28.475 16.5171C28.535 16.0171 28.515 15.517 28.465 15.037C28.425 14.547 28.345 14.067 28.225 13.587C28.085 13.017 27.875 12.487 27.615 11.967C27.465 11.667 27.295 11.3671 27.115 11.0771C26.875 10.6971 26.615 10.337 26.335 9.98704C26.0451 9.62709 25.7051 9.29712 25.3651 8.96717L25.3651 8.96715L25.365 8.96702C25.005 8.61702 24.605 8.30707 24.195 8.01707C23.755 7.70707 23.295 7.41702 22.815 7.15702L22.7428 7.11876C22.2576 6.86169 21.779 6.60806 21.255 6.42704L21.108 6.37569C20.7288 6.24305 20.3547 6.1122 19.965 5.99705C19.5403 5.87468 19.1104 5.79376 18.6829 5.71327C18.5164 5.68194 18.3503 5.65067 18.185 5.61704C18.0377 5.58977 17.8904 5.58034 17.7432 5.57092C17.6204 5.56306 17.4977 5.55521 17.375 5.53703C16.765 5.45703 16.155 5.45702 15.545 5.46702C15.2612 5.47306 14.981 5.50099 14.7023 5.52878C14.5194 5.54701 14.3372 5.56518 14.155 5.57707C13.8868 5.59118 13.6237 5.64012 13.3621 5.6888L13.362 5.6888C13.2528 5.70912 13.1439 5.72938 13.035 5.74705C12.625 5.80705 12.205 5.91703 11.795 6.03703C11.4324 6.14176 11.0829 6.27898 10.7306 6.41726C10.6456 6.45061 10.5605 6.48403 10.475 6.51707C10.2396 6.60952 10.0114 6.7161 9.77831 6.82493L9.64501 6.88706C9.23501 7.07706 8.845 7.29703 8.455 7.53703C8.115 7.74703 7.77495 7.97704 7.46495 8.23704C7.40182 8.29566 7.33057 8.34411 7.25943 8.39248L7.25943 8.39248C7.17282 8.45137 7.08638 8.51014 7.015 8.58701C6.84679 8.76457 6.67203 8.9334 6.49785 9.10165L6.49782 9.10168L6.49781 9.10169C6.29923 9.29352 6.10142 9.48462 5.91496 9.68705C5.72742 9.8896 5.55676 10.109 5.38609 10.3284C5.32925 10.4015 5.27241 10.4746 5.21495 10.547C5.08474 10.7207 4.97023 10.9047 4.85627 11.0879L4.85627 11.0879C4.8127 11.158 4.76922 11.2279 4.72496 11.297C4.44496 11.727 4.23497 12.197 4.04497 12.677C3.89502 13.0569 3.79506 13.4468 3.69509 13.8366L3.69499 13.837C3.55499 14.377 3.49496 14.927 3.47496 15.477C3.44496 16.277 3.505 17.067 3.705 17.857C3.865 18.487 4.08498 19.097 4.36498 19.677C4.55498 20.077 4.78495 20.4471 5.02495 20.8171C5.39495 21.3771 5.82496 21.887 6.28496 22.367C6.65496 22.747 7.06497 23.087 7.48497 23.407C8.19497 23.947 8.955 24.407 9.765 24.787C10.225 24.997 10.695 25.197 11.175 25.367C11.643 25.539 12.1292 25.6653 12.6076 25.7895L12.675 25.807C13.125 25.927 13.575 26.007 14.035 26.057C14.685 26.127 15.335 26.187 15.995 26.167C16.175 26.157 16.3525 26.1545 16.53 26.152C16.7075 26.1496 16.885 26.1471 17.065 26.1371C17.895 26.0971 18.715 25.947 19.535 25.777C19.885 25.707 20.225 25.597 20.555 25.477C20.6877 25.4262 20.8213 25.3785 20.9547 25.3309C21.2937 25.21 21.6321 25.0892 21.955 24.917C22.05 24.867 22.15 24.822 22.25 24.7771C22.35 24.7321 22.45 24.6871 22.545 24.6371C22.885 24.4671 23.215 24.2871 23.535 24.0771C23.765 23.9271 24.005 23.767 24.235 23.597C24.585 23.347 24.925 23.067 25.245 22.787C25.745 22.347 26.185 21.867 26.585 21.347C26.8034 21.0614 26.9936 20.7617 27.1852 20.4597L27.1854 20.4593C27.2218 20.4019 27.2583 20.3445 27.295 20.287C27.3715 20.1694 27.4341 20.0448 27.4972 19.9194C27.5413 19.8316 27.5856 19.7435 27.635 19.657C27.7849 19.3971 27.8849 19.1173 27.9848 18.8374L27.985 18.837C28.135 18.427 28.245 18.0071 28.335 17.5771C28.3947 17.3083 28.421 17.0451 28.4471 16.7834ZM26.955 11.9272C27.165 12.3172 27.345 12.7172 27.485 13.1372C27.655 13.6772 27.805 14.2272 27.875 14.7872L27.8769 14.8065C27.9162 15.2097 27.9547 15.6036 27.935 16.0072C27.905 16.5072 27.865 16.9972 27.755 17.4872C27.665 17.8972 27.5549 18.3072 27.4049 18.6972C27.2249 19.1772 27.005 19.6372 26.735 20.0672C26.535 20.3872 26.335 20.7072 26.105 21.0072C25.775 21.4372 25.415 21.8572 25.005 22.2272C24.445 22.7372 23.8449 23.1772 23.2149 23.5772C22.9428 23.7473 22.6562 23.9029 22.3736 24.0564L22.3735 24.0564L22.225 24.1372C21.795 24.3672 21.335 24.5572 20.875 24.7272C20.395 24.8972 19.895 25.0572 19.395 25.1672C19.3378 25.1805 19.2806 25.1942 19.2233 25.208L19.2232 25.208C18.9801 25.2663 18.7358 25.3248 18.485 25.3572C18.3659 25.3742 18.3698 25.3117 18.3736 25.2496C18.3743 25.2386 18.375 25.2277 18.375 25.2172V23.2272C18.375 23.1705 18.3761 23.1138 18.3772 23.0572V23.0571C18.3794 22.9438 18.3816 22.8305 18.375 22.7172C18.365 22.6072 18.405 22.5672 18.515 22.5672C18.6481 22.5672 18.7784 22.5899 18.9089 22.6126C19.0235 22.6325 19.1381 22.6525 19.255 22.6572C19.39 22.6653 19.5233 22.6936 19.6577 22.7221C19.8519 22.7633 20.0482 22.8049 20.255 22.7872C20.605 22.7572 20.955 22.6972 21.305 22.6272L21.3052 22.6272C21.5751 22.5772 21.845 22.5272 22.115 22.5472C22.3816 22.5644 22.6408 22.4928 22.8989 22.4216C22.941 22.41 22.9829 22.3984 23.0249 22.3872C23.1749 22.3372 23.295 22.2372 23.335 22.0772C23.3422 22.0534 23.3495 22.0296 23.3567 22.006L23.3568 22.0059C23.4104 21.8315 23.4626 21.6621 23.445 21.4772C23.425 21.3672 23.485 21.3072 23.585 21.2772C23.925 21.1672 24.235 20.9672 24.515 20.7572C24.825 20.5272 25.105 20.2572 25.355 19.9572C25.575 19.7072 25.795 19.4672 26.075 19.2772C26.335 19.0972 26.545 18.8772 26.535 18.5272C26.525 18.3072 26.395 18.1372 26.245 17.9972C26.025 17.7972 25.785 17.6272 25.515 17.5072C25.455 17.4872 25.4449 17.4372 25.4649 17.3772C25.6049 16.8672 25.6649 16.3372 25.6549 15.8072C25.6549 15.7072 25.6849 15.6072 25.7149 15.5072C25.9249 14.8872 25.685 14.5372 25.085 14.3472C24.935 14.2972 24.785 14.2862 24.635 14.2753C24.545 14.2688 24.455 14.2622 24.365 14.2472H24.295C24.145 14.2372 24.045 14.2272 23.985 14.0172C23.93 13.8122 23.8625 13.6097 23.795 13.4072C23.7275 13.2047 23.66 13.0022 23.605 12.7972C23.5405 12.5714 23.502 12.3392 23.4633 12.1057L23.4632 12.1054C23.4539 12.0494 23.4446 11.9933 23.435 11.9372C23.405 11.7672 23.125 11.4972 22.955 11.4572C22.605 11.3672 22.255 11.3372 21.895 11.3572C21.825 11.3672 21.805 11.3372 21.785 11.2672C21.655 10.8272 21.585 10.3872 21.615 9.92719C21.6226 9.85839 21.5835 9.81881 21.5468 9.78165L21.5468 9.78162C21.5355 9.77018 21.5244 9.75896 21.515 9.7472C21.325 9.50719 21.095 9.33721 20.765 9.32721C20.185 9.30721 19.625 9.34721 19.075 9.51721L18.9774 9.54413L18.9774 9.54413L18.9774 9.54413L18.9774 9.54414L18.9774 9.54414L18.9774 9.54414L18.9774 9.54415L18.9774 9.54415L18.9773 9.54417C18.8271 9.58546 18.6727 9.62795 18.5249 9.67719C18.3539 9.73421 18.228 9.62869 18.1129 9.53224L18.0949 9.51721C17.7149 9.21721 17.375 8.89716 17.065 8.52716C16.795 8.22716 16.4349 8.1272 16.035 8.1872C15.625 8.2472 15.295 8.48718 14.985 8.72718C14.6941 8.94535 14.4455 9.20584 14.1969 9.46633C14.1037 9.56403 14.0104 9.66174 13.915 9.75721C13.875 9.7972 13.8449 9.80717 13.785 9.78717C13.3449 9.61717 12.885 9.48717 12.425 9.40717L12.3911 9.40093C11.9115 9.31271 11.4137 9.22113 10.935 9.38721C10.685 9.46721 10.385 9.70716 10.375 10.0272C10.368 10.3197 10.3174 10.6074 10.267 10.8936C10.2451 11.0183 10.2232 11.1428 10.205 11.2672C10.195 11.3572 10.155 11.3772 10.055 11.3672C9.69497 11.3272 9.32496 11.3472 8.98496 11.4672C8.76496 11.5372 8.59497 11.6972 8.55497 11.9472C8.46497 12.6072 8.27496 13.2472 8.04496 13.8672C8.03996 13.8822 8.03497 13.8947 8.02998 13.9072C8.02498 13.9197 8.01999 13.9322 8.01499 13.9472C7.95499 14.2472 7.95494 14.2472 7.65494 14.2672C7.59857 14.2707 7.5422 14.2733 7.48588 14.2759C7.22252 14.288 6.96038 14.3001 6.70499 14.4072C6.38499 14.5472 6.16494 14.8572 6.21494 15.1972L6.24177 15.3718C6.32379 15.9037 6.40594 16.4363 6.41495 16.9772C6.41495 17.1072 6.46494 17.2472 6.52494 17.3672C6.55494 17.4472 6.55499 17.4772 6.45499 17.5272C6.07499 17.6972 5.75495 17.9472 5.53495 18.3072C5.40495 18.5372 5.51498 18.9372 5.75498 19.1472C5.83374 19.2167 5.91465 19.2776 5.99472 19.3379L5.99473 19.3379L5.99474 19.3379C6.08749 19.4077 6.17912 19.4767 6.26499 19.5572C6.38721 19.6683 6.494 19.7948 6.60078 19.9214C6.68621 20.0226 6.77163 20.1238 6.86497 20.2172C7.25497 20.6072 7.66497 20.9872 8.18497 21.1872C8.47497 21.3072 8.565 21.4272 8.585 21.7372C8.625 22.2172 8.90495 22.4472 9.47495 22.5272C9.50983 22.5303 9.54571 22.5355 9.58228 22.5408L9.58231 22.5408C9.66108 22.5522 9.74304 22.564 9.82499 22.5572C10.128 22.5483 10.423 22.6029 10.7172 22.6574L10.825 22.6772L10.9343 22.6963C11.418 22.7813 11.9035 22.8667 12.415 22.7272C12.745 22.6372 13.105 22.6072 13.455 22.5972C13.605 22.5872 13.675 22.6272 13.665 22.7972C13.6583 23.0635 13.6605 23.3342 13.6627 23.6065L13.6627 23.6068C13.6638 23.7433 13.665 23.8803 13.665 24.0172V25.2772C13.665 25.3772 13.655 25.4072 13.535 25.3872C13.1917 25.3312 12.8533 25.2506 12.513 25.1695C12.3675 25.1349 12.2217 25.1001 12.075 25.0672C11.9128 25.0283 11.7549 24.9725 11.5956 24.9163L11.5954 24.9163L11.5954 24.9162L11.5954 24.9162L11.5953 24.9162L11.5953 24.9162C11.5092 24.8858 11.4227 24.8553 11.335 24.8272C10.9927 24.7207 10.6734 24.5795 10.3554 24.4387L10.3553 24.4387C10.2553 24.3944 10.1554 24.3502 10.055 24.3072C9.72497 24.1672 9.42497 23.9972 9.11497 23.8172C8.62497 23.5372 8.14499 23.2272 7.70499 22.8672C7.40499 22.6172 7.12495 22.3572 6.84495 22.0972C6.54495 21.8172 6.26499 21.5272 6.01499 21.2072C5.76499 20.8972 5.535 20.5872 5.335 20.2372C5.28072 20.1382 5.22441 20.0413 5.16833 19.9448C5.04877 19.739 4.9303 19.535 4.835 19.3172C4.625 18.8572 4.44498 18.3872 4.31498 17.8872C4.21498 17.4972 4.13499 17.0972 4.07499 16.6872C4.00499 16.1972 4.00496 15.6972 4.04496 15.1972C4.08496 14.6572 4.195 14.1272 4.335 13.6072C4.425 13.2872 4.53497 12.9572 4.68497 12.6472C4.73245 12.5483 4.77835 12.4462 4.82455 12.3436L4.82455 12.3435L4.82456 12.3435L4.82456 12.3435L4.82456 12.3435L4.82457 12.3435L4.82457 12.3435L4.82457 12.3435L4.82458 12.3435L4.82458 12.3435L4.82458 12.3435L4.82459 12.3435L4.82459 12.3435L4.82459 12.3435L4.82459 12.3435L4.8246 12.3434L4.8246 12.3434L4.8246 12.3434L4.82461 12.3434L4.82461 12.3434L4.82461 12.3434L4.82462 12.3434L4.82462 12.3434L4.82462 12.3434L4.82463 12.3434C4.89519 12.1866 4.96642 12.0282 5.04496 11.8772C5.14265 11.6818 5.26401 11.4864 5.381 11.298L5.42496 11.2272C5.65496 10.8372 5.94496 10.4872 6.23496 10.1472C6.41477 9.93738 6.60456 9.74759 6.79436 9.55779L6.79496 9.55719C7.03496 9.31719 7.28495 9.10716 7.53495 8.89716C7.83495 8.64716 8.14495 8.41722 8.47495 8.20722C8.83495 7.97722 9.21495 7.75718 9.59495 7.54718C9.94495 7.34718 10.315 7.19719 10.695 7.05719C10.845 7.00719 10.995 6.94721 11.135 6.88721C11.765 6.61721 12.425 6.4572 13.085 6.3172C14.285 6.0672 15.515 5.96717 16.755 6.03717C17.375 6.06717 17.9849 6.16716 18.5949 6.27716C18.8492 6.32293 19.0957 6.38679 19.341 6.45035C19.5781 6.5118 19.8141 6.57295 20.055 6.61719C20.2022 6.64318 20.3495 6.69916 20.4903 6.75267L20.555 6.77716C20.6582 6.81519 20.7614 6.85175 20.8644 6.88824C21.1407 6.98607 21.4155 7.0834 21.685 7.20722C22.045 7.36722 22.395 7.52718 22.735 7.72718C23.095 7.93718 23.465 8.15717 23.805 8.40717C24.095 8.60717 24.375 8.8172 24.635 9.0672C24.7212 9.14982 24.8113 9.23114 24.902 9.31304L24.902 9.31305L24.902 9.31306L24.902 9.31307L24.902 9.31308L24.902 9.31309L24.9021 9.3131C25.0638 9.45917 25.2276 9.60704 25.375 9.76721C25.695 10.0972 25.975 10.4572 26.255 10.8272C26.515 11.1772 26.755 11.5472 26.955 11.9272ZM17.155 10.4471C16.865 10.2171 16.575 9.98704 16.315 9.72704C16.3062 9.7182 16.2971 9.70889 16.2878 9.69934C16.1917 9.60079 16.07 9.4759 15.915 9.56706L15.8605 9.60249C15.6475 9.74098 15.4293 9.8828 15.245 10.0671C14.995 10.3071 14.775 10.5771 14.585 10.8671C14.5597 10.9082 14.5336 10.9489 14.5075 10.9895C14.3691 11.2054 14.2318 11.4193 14.215 11.6971C14.195 11.9471 14.305 12.2571 14.475 12.3271C14.895 12.5171 15.285 12.747 15.645 13.037L15.6614 13.0504C15.708 13.0888 15.7625 13.1338 15.825 13.107C15.8612 13.0854 15.8555 13.0428 15.8496 12.9983C15.8473 12.9811 15.845 12.9637 15.845 12.9471C15.845 12.9221 15.8425 12.8971 15.84 12.8721C15.8375 12.8471 15.835 12.822 15.835 12.797C15.8221 12.7018 15.8086 12.6071 15.7952 12.5126L15.7952 12.5125L15.7952 12.5124C15.7466 12.1704 15.6985 11.8318 15.675 11.487C15.695 11.217 15.725 10.9471 15.875 10.7071C15.8873 10.6887 15.8967 10.6646 15.9063 10.6404C15.9277 10.5857 15.9496 10.5301 16.005 10.537C16.0857 10.555 16.0699 10.6533 16.0586 10.7239L16.055 10.7471C16.025 11.1171 16.115 11.4671 16.215 11.8171C16.2469 11.9327 16.2899 12.0467 16.3333 12.1616L16.3333 12.1616C16.3987 12.3351 16.4649 12.5106 16.495 12.6971C16.525 12.8571 16.585 12.8271 16.675 12.7671C16.835 12.6571 17.005 12.5671 17.195 12.4971C17.345 12.4371 17.505 12.3571 17.635 12.2571C17.8231 12.1086 17.8446 11.8719 17.8644 11.6538L17.865 11.647C17.895 11.087 17.525 10.7471 17.155 10.4471ZM9.80499 12.6671C9.81499 12.5871 9.85498 12.5671 9.92498 12.5771C10.385 12.6571 10.845 12.7471 11.265 12.9171C11.3475 12.9508 11.4286 12.9831 11.5088 13.0151L11.5089 13.0152C11.6426 13.0685 11.7738 13.1208 11.905 13.1771C12.005 13.2171 12.015 13.2671 12.005 13.3571C11.985 13.6271 11.965 13.8971 12.005 14.1671C12.055 14.477 12.225 14.727 12.395 14.977L12.395 14.977C12.525 15.157 12.535 15.237 12.375 15.397C12.37 15.402 12.3625 15.407 12.355 15.412L12.355 15.412L12.355 15.4121C12.3475 15.4171 12.34 15.4221 12.335 15.4271C12.3104 15.4435 12.2975 15.4768 12.2854 15.5083C12.268 15.5535 12.2521 15.5948 12.205 15.5771C12.135 15.5471 12.075 15.4471 12.035 15.3671C11.9696 15.2444 11.9071 15.1188 11.8444 14.9926L11.8444 14.9926L11.8444 14.9926C11.677 14.6559 11.5077 14.3153 11.275 14.0171C11.075 13.7571 10.835 13.5271 10.465 13.4171C10.5281 13.5354 10.5912 13.6491 10.6531 13.7606L10.6532 13.7607L10.6532 13.7607L10.6532 13.7607L10.6532 13.7607L10.6532 13.7607L10.6532 13.7607L10.6532 13.7607L10.6532 13.7608C10.7482 13.9318 10.8403 14.0976 10.925 14.2671C11.135 14.6571 11.255 15.0771 11.355 15.4971C11.365 15.5471 11.365 15.597 11.295 15.587C11.0401 15.5526 10.79 15.5704 10.5414 15.588L10.5414 15.588C10.4291 15.596 10.317 15.6039 10.205 15.6071C10.085 15.6071 10.005 15.5771 9.91497 15.4971C9.8916 15.4751 9.86824 15.4535 9.84502 15.432C9.69937 15.2973 9.55984 15.1682 9.46496 14.9871C9.35496 14.7671 9.28498 14.537 9.35498 14.277C9.40846 14.0707 9.47364 13.8673 9.53878 13.6641L9.53879 13.664L9.5388 13.664L9.5388 13.664L9.53881 13.664L9.53881 13.664L9.53882 13.6639L9.53882 13.6639L9.53883 13.6639L9.53884 13.6639L9.53884 13.6639L9.53885 13.6638L9.53885 13.6638L9.53886 13.6638L9.53886 13.6638L9.53887 13.6638L9.53888 13.6637L9.53888 13.6637L9.53889 13.6637L9.53889 13.6637L9.5389 13.6637C9.6442 13.335 9.7494 13.0068 9.80499 12.6671ZM22.365 13.4669C22.3017 13.2771 22.2632 13.0824 22.225 12.8897C22.2089 12.8082 22.1928 12.7271 22.175 12.6469C22.155 12.5669 22.125 12.5569 22.055 12.5669C21.9599 12.5878 21.8643 12.6071 21.7687 12.6263C21.4518 12.6901 21.1346 12.754 20.835 12.8769C20.735 12.9169 20.635 12.9519 20.535 12.9869C20.435 13.0219 20.335 13.0569 20.235 13.0969C19.985 13.1869 19.965 13.2169 19.985 13.4869C19.9864 13.5143 19.9879 13.5419 19.9895 13.5696C19.9993 13.7442 20.0095 13.9243 19.975 14.0969C19.925 14.3869 19.805 14.6469 19.635 14.8869C19.465 15.1169 19.465 15.1869 19.605 15.3669C19.6217 15.387 19.6396 15.4038 19.6571 15.4202C19.6919 15.4526 19.7251 15.4837 19.745 15.5369C19.775 15.6069 19.815 15.5869 19.845 15.5169C19.925 15.3469 20.005 15.1869 20.095 15.0269C20.1299 14.9635 20.1644 14.9002 20.1988 14.8369L20.1989 14.8368L20.199 14.8366L20.1991 14.8365L20.1992 14.8363L20.1992 14.8362L20.1993 14.8361C20.3223 14.6101 20.4445 14.3855 20.585 14.1669C20.775 13.8869 20.995 13.6369 21.265 13.4269C21.335 13.3769 21.385 13.3769 21.435 13.4469C21.485 13.5169 21.505 13.5769 21.425 13.6369C21.3344 13.7094 21.2766 13.8066 21.2219 13.8986L21.2219 13.8986L21.2219 13.8987L21.205 13.9269C20.9999 14.2523 20.8798 14.6127 20.7598 14.9728C20.7102 15.1217 20.6606 15.2706 20.605 15.4169C20.575 15.4869 20.595 15.5469 20.695 15.5469C20.8083 15.5402 20.9217 15.5425 21.035 15.5447H21.035C21.0917 15.5458 21.1484 15.5469 21.205 15.5469V15.5569C21.228 15.5569 21.252 15.5558 21.2764 15.5547H21.2765H21.2765C21.3264 15.5525 21.378 15.5502 21.425 15.5569C21.745 15.6069 22.025 15.5369 22.265 15.2869C22.595 14.9469 22.805 14.5069 22.555 14.0369C22.5127 13.9402 22.4777 13.8252 22.4411 13.7052L22.4411 13.7052C22.4172 13.6267 22.3927 13.546 22.365 13.4669ZM7.87501 19.5371C7.62501 19.2271 7.36499 18.9272 7.04499 18.6872C6.98499 18.6372 6.975 18.6071 7.055 18.5271C7.275 18.3571 7.51501 18.2372 7.75501 18.1272C7.81153 18.1039 7.86804 18.0795 7.92456 18.0551L7.92459 18.0551L7.92462 18.0551L7.92465 18.0551L7.92468 18.0551L7.92471 18.0551L7.92475 18.0551L7.92478 18.055L7.92481 18.055L7.92484 18.055L7.92487 18.055L7.9249 18.055L7.92493 18.055L7.92497 18.055L7.925 18.0549L7.92503 18.0549L7.92506 18.0549L7.92509 18.0549L7.92512 18.0549C8.03842 18.006 8.15173 17.9571 8.26502 17.9171C8.60502 17.7871 8.94499 17.7271 9.29499 17.6771C9.46499 17.6571 9.63499 17.6671 9.79499 17.7171C9.86635 17.7409 9.94002 17.7601 10.014 17.7793C10.1578 17.8168 10.303 17.8545 10.435 17.9271C10.595 18.0171 10.785 18.1271 10.825 18.2771C10.8425 18.3469 10.8685 18.4155 10.8945 18.4842C10.9429 18.6122 10.9915 18.7405 10.985 18.8772C10.985 18.8942 10.9882 18.908 10.9929 18.9278L10.9929 18.9278C10.9964 18.9428 11.0007 18.9612 11.005 18.9871C10.6333 18.8544 10.2617 18.7922 9.89691 18.7311C9.84949 18.7231 9.80219 18.7152 9.75501 18.7072L9.68947 18.6955L9.68946 18.6955C9.26036 18.6188 8.82221 18.5405 8.37501 18.6071C8.36001 18.6071 8.3425 18.6096 8.32499 18.6121C8.30748 18.6146 8.28997 18.6171 8.27497 18.6171C8.19502 18.6271 8.19502 18.6871 8.19502 18.7471V18.7472C8.19502 18.8272 8.23499 18.8272 8.29499 18.8272C8.65096 18.8272 8.9873 18.9319 9.31989 19.0354L9.31992 19.0354L9.31995 19.0354L9.31997 19.0354L9.32 19.0354L9.32003 19.0354L9.32006 19.0355L9.32008 19.0355L9.32011 19.0355L9.32014 19.0355L9.32016 19.0355L9.32019 19.0355L9.32022 19.0355L9.32025 19.0355L9.32027 19.0355L9.3203 19.0355L9.32033 19.0355C9.39869 19.0599 9.47685 19.0843 9.555 19.1071C9.865 19.1971 10.165 19.2972 10.455 19.4372L10.4645 19.4419C10.5181 19.4684 10.5423 19.4804 10.495 19.5371C10.4513 19.5857 10.4075 19.6349 10.3637 19.6843L10.3636 19.6843L10.3636 19.6844L10.3635 19.6844C10.2269 19.8381 10.0888 19.9934 9.94502 20.1372C9.82502 20.2572 9.61503 20.2572 9.44504 20.2572H9.44502C8.80502 20.2772 8.28501 20.0471 7.87501 19.5371ZM22.615 20.247C23.095 20.277 23.515 20.117 23.855 19.797C24.0223 19.6425 24.1712 19.4734 24.3199 19.3045C24.5178 19.0797 24.7152 18.8554 24.955 18.667C25.0168 18.6228 25.0007 18.6099 24.9548 18.573L24.9547 18.573C24.9487 18.5681 24.942 18.5628 24.935 18.557C24.525 18.267 24.085 18.0469 23.605 17.8969C23.215 17.7769 22.815 17.667 22.395 17.717C22.075 17.757 21.755 17.827 21.475 17.997C21.2009 18.1663 21.1153 18.4461 21.0295 18.7263L21.0295 18.7263L21.0295 18.7264L21.0295 18.7264L21.0294 18.7264L21.0294 18.7265L21.0294 18.7265L21.0294 18.7265L21.0294 18.7266L21.0294 18.7266L21.0294 18.7266L21.0294 18.7267L21.0294 18.7267L21.0293 18.7267L21.0293 18.7268L21.0293 18.7268L21.0293 18.7268L21.0293 18.7269C21.0087 18.7941 20.9882 18.8613 20.965 18.927C20.935 19.007 21.005 18.997 21.055 18.987C21.0983 18.9737 21.1416 18.9592 21.1849 18.9448L21.185 18.9448L21.185 18.9448L21.185 18.9447C21.2717 18.9159 21.3584 18.887 21.445 18.867C21.5791 18.8429 21.712 18.8165 21.8446 18.7901C22.0975 18.7398 22.3491 18.6898 22.605 18.657L22.613 18.656C23.0302 18.6063 23.4377 18.5578 23.855 18.687C23.845 18.747 23.805 18.757 23.765 18.767L23.6329 18.7978C22.906 18.9671 22.1738 19.1375 21.495 19.477C21.4992 19.4811 21.5016 19.4887 21.5044 19.4976C21.5084 19.5101 21.5133 19.5252 21.525 19.537L21.5665 19.5748L21.5666 19.5748C21.6722 19.6706 21.7742 19.7632 21.845 19.887C22.005 20.177 22.265 20.237 22.555 20.227C22.565 20.232 22.575 20.2345 22.585 20.237C22.595 20.2395 22.605 20.242 22.615 20.247ZM17.495 17.5271C17.635 17.7571 17.595 18.0272 17.475 18.2572C17.255 18.6872 16.885 18.9671 16.475 19.2171C16.4469 18.8565 16.3617 18.5112 16.2761 18.1638L16.2761 18.1637C16.1788 17.7695 16.0809 17.3725 16.065 16.9472C15.845 17.1972 15.775 17.4572 15.755 17.7372C15.728 18.0526 15.7741 18.36 15.82 18.6666L15.82 18.6666L15.835 18.7672C15.845 18.8866 15.845 19.0158 15.845 19.1353V19.1354V19.1372C15.845 19.2072 15.815 19.2372 15.735 19.2072L15.6731 19.181L15.6731 19.181C15.364 19.0505 15.0587 18.9215 14.815 18.6872C14.255 18.1472 14.385 17.7372 14.745 17.2472C15.005 16.9072 15.325 16.6271 15.685 16.3971C15.7704 16.3473 15.8506 16.2925 15.9331 16.2362L15.9331 16.2362L15.9331 16.2362C15.9666 16.2133 16.0003 16.1902 16.035 16.1672C16.095 16.1372 16.145 16.1272 16.185 16.1872C16.329 16.4122 16.5459 16.5805 16.7555 16.7431L16.825 16.7972C17.095 17.0072 17.325 17.2471 17.495 17.5271ZM12.645 12.497C12.535 12.497 12.515 12.527 12.515 12.627C12.515 12.712 12.5125 12.797 12.51 12.882C12.5075 12.967 12.505 13.052 12.505 13.137C12.5029 13.225 12.4973 13.3135 12.4916 13.4022C12.4704 13.7368 12.449 14.075 12.615 14.407C12.715 14.607 12.795 14.687 13.015 14.677C13.2001 14.6672 13.3758 14.6765 13.5605 14.6862L13.575 14.687C13.695 14.692 13.8175 14.6995 13.94 14.707C14.0625 14.7145 14.185 14.722 14.305 14.727C14.395 14.737 14.425 14.687 14.385 14.617C14.357 14.5694 14.3297 14.5217 14.3026 14.4743C14.233 14.3525 14.1642 14.2322 14.085 14.117L14.0469 14.0667C13.8393 13.7926 13.6282 13.5137 13.355 13.297C13.3467 13.2908 13.336 13.2846 13.3246 13.2781L13.3245 13.2781L13.3245 13.2781L13.3245 13.278L13.3244 13.278L13.3244 13.278L13.3244 13.278C13.2804 13.2528 13.2274 13.2225 13.2749 13.167C13.3249 13.117 13.415 13.067 13.495 13.117L13.4951 13.1171C13.8151 13.3171 14.135 13.517 14.395 13.797C14.4747 13.8803 14.5465 13.9715 14.6185 14.063L14.6185 14.063L14.6185 14.063L14.6185 14.063L14.6185 14.063L14.6185 14.063L14.6186 14.063L14.6186 14.063L14.6186 14.063L14.6186 14.063L14.6186 14.063L14.6186 14.063L14.6186 14.063L14.6186 14.063L14.6186 14.063L14.6186 14.063C14.7454 14.224 14.8728 14.3859 15.045 14.507C15.0836 14.5338 15.1197 14.565 15.156 14.5964C15.2416 14.6706 15.3286 14.7459 15.455 14.767C15.465 14.657 15.4949 14.547 15.5249 14.447C15.6049 14.077 15.615 13.697 15.385 13.377C15.105 12.967 14.645 12.807 14.195 12.677C13.675 12.507 13.155 12.487 12.645 12.497ZM16.555 14.6471C16.395 14.1871 16.395 13.7472 16.645 13.3272C16.705 13.2272 16.785 13.1471 16.865 13.0871C17.445 12.7071 18.095 12.5372 18.775 12.5072C18.965 12.4972 19.165 12.4972 19.355 12.4972L19.3715 12.497C19.4269 12.4962 19.4832 12.4953 19.465 12.5772C19.4118 12.81 19.4382 13.0384 19.4648 13.2682L19.4648 13.2683C19.4782 13.3839 19.4917 13.5 19.495 13.6172C19.505 13.9472 19.475 14.2772 19.275 14.5672C19.225 14.6472 19.175 14.6771 19.085 14.6671C18.7195 14.6177 18.3637 14.6562 17.9983 14.6957L17.9983 14.6957L17.985 14.6972C17.9652 14.7005 17.9444 14.7046 17.9231 14.7088C17.8148 14.7301 17.6935 14.754 17.635 14.6872C17.5909 14.6357 17.6495 14.5572 17.7074 14.4795L17.7074 14.4795C17.7283 14.4515 17.7491 14.4236 17.765 14.3971C17.995 14.0171 18.255 13.6671 18.575 13.3571C18.635 13.3071 18.705 13.2471 18.725 13.1471C18.535 13.1471 18.375 13.2071 18.225 13.2871C17.8848 13.4752 17.6408 13.7674 17.3996 14.0562L17.3996 14.0562L17.3996 14.0562L17.3996 14.0562L17.3995 14.0562L17.3995 14.0563L17.3995 14.0563C17.3713 14.09 17.3432 14.1237 17.315 14.1571C17.145 14.3571 16.955 14.5272 16.755 14.6972C16.675 14.7672 16.605 14.7871 16.555 14.6471ZM19.925 17.6271L19.9249 17.6272C19.6849 17.8572 19.445 18.0872 19.245 18.3571C19.1887 18.4334 19.1406 18.5163 19.092 18.5997C19.0197 18.7239 18.9467 18.8495 18.845 18.9571C18.8153 18.9901 18.7813 19.0209 18.7465 19.0524C18.6758 19.1164 18.6019 19.1832 18.555 19.2771C18.5773 19.2771 18.5968 19.2785 18.6141 19.2797H18.6141C18.6434 19.2818 18.6662 19.2834 18.685 19.2771C18.9133 19.2064 19.1506 19.1712 19.387 19.1361C19.5854 19.1067 19.7833 19.0773 19.975 19.0271L19.975 19.0271C20.085 18.9971 20.195 18.9671 20.295 18.9071C20.565 18.7471 20.625 18.4871 20.655 18.2071C20.677 18.0307 20.6699 17.8542 20.6628 17.6777C20.6537 17.4542 20.6447 17.2307 20.695 17.0071C20.705 16.9571 20.685 16.9371 20.635 16.9371C20.5566 16.9371 20.4779 16.9361 20.3993 16.935H20.3992H20.3992H20.3991H20.3991H20.3991H20.399H20.399H20.3989H20.3989H20.3989H20.3988H20.3988H20.3987C19.8861 16.9281 19.373 16.9211 18.905 17.2071C18.8304 17.253 18.7492 17.289 18.669 17.3246C18.6095 17.3511 18.5504 17.3773 18.495 17.4071C18.4546 17.4305 18.4111 17.4502 18.3675 17.47L18.3675 17.47L18.3675 17.47L18.3675 17.47L18.3674 17.47L18.3674 17.47L18.3674 17.4701L18.3674 17.4701L18.3674 17.4701L18.3674 17.4701L18.3673 17.4701L18.3673 17.4701L18.3673 17.4701L18.3673 17.4701C18.2057 17.5435 18.0428 17.6173 18.035 17.8771C18.031 18.0186 18.007 18.1585 17.983 18.2987C17.9459 18.5153 17.9086 18.7325 17.945 18.9571C18.0004 18.9571 18.0255 18.9268 18.0505 18.8965C18.0662 18.8776 18.0819 18.8586 18.105 18.8471C18.3421 18.7163 18.5258 18.5186 18.7107 18.3196C18.7519 18.2753 18.7931 18.2309 18.835 18.1871C18.8598 18.1615 18.8845 18.1357 18.9091 18.1099C19.1725 17.8342 19.4334 17.5611 19.845 17.4971C19.856 17.4949 19.8684 17.4913 19.8814 17.4875C19.9277 17.4739 19.9816 17.4581 20.005 17.4971C20.0484 17.5477 20.0081 17.5722 19.9674 17.597C19.9518 17.6065 19.9361 17.616 19.925 17.6271ZM12.725 17.777C12.505 17.587 12.235 17.497 11.935 17.477C12.3126 17.7989 12.5982 18.1936 12.8867 18.5923C13.0644 18.8377 13.2431 19.0846 13.445 19.3171L13.2957 19.286C12.8172 19.1865 12.3461 19.0886 11.875 19.0071C11.595 18.9571 11.285 18.5271 11.275 18.1971V17.037C11.275 16.947 11.285 16.907 11.395 16.917C11.585 16.927 11.785 16.937 11.985 16.927C12.325 16.917 12.645 16.9971 12.945 17.1371C13.1072 17.2119 13.2654 17.2945 13.4247 17.3776L13.4247 17.3777L13.4248 17.3777C13.5208 17.4278 13.6172 17.4781 13.715 17.527C13.815 17.577 13.915 17.6571 13.915 17.7671C13.9094 17.9776 13.9499 18.1819 13.9906 18.387C14.0233 18.5521 14.0561 18.7176 14.065 18.8871C14.0713 18.8997 14.0696 18.9164 14.0676 18.937C14.0663 18.949 14.065 18.9623 14.065 18.977C13.825 18.837 13.625 18.677 13.445 18.487C13.3999 18.4399 13.3547 18.3921 13.3094 18.344L13.3093 18.3439C13.1235 18.1468 12.9339 17.9458 12.725 17.777ZM10.755 20.8471C11.0529 20.558 11.4276 20.3916 11.7983 20.2271L11.7986 20.227L11.7988 20.2269L11.799 20.2268L11.7992 20.2267L11.7994 20.2266L11.7996 20.2265L11.7998 20.2264L11.8 20.2264C11.8518 20.2033 11.9036 20.1804 11.955 20.1571C12.2344 20.0374 12.5138 19.9276 12.7932 19.8178L12.7933 19.8178L12.795 19.8171C12.825 19.8071 12.865 19.7871 12.865 19.7471C12.865 19.7121 12.8405 19.7114 12.8155 19.7107C12.8048 19.7104 12.794 19.7101 12.785 19.7071C12.295 19.5471 11.805 19.4371 11.285 19.5671C10.825 19.6871 10.505 19.9471 10.275 20.3471C10.1246 20.6124 10.0291 20.8933 9.93294 21.1761L9.89503 21.2871C9.85503 21.4071 9.88501 21.4171 9.99501 21.4471C10.0797 21.466 10.1666 21.4671 10.2537 21.4682C10.3516 21.4694 10.4497 21.4707 10.545 21.4971C10.945 21.6071 11.355 21.6571 11.765 21.6771L11.7661 21.6771C11.9257 21.6671 12.0854 21.6571 12.245 21.6371C12.365 21.6271 12.435 21.5671 12.455 21.4471C12.49 21.2306 12.5493 21.0189 12.6091 20.8053L12.6091 20.8053L12.6091 20.8053C12.635 20.7131 12.6609 20.6205 12.685 20.5271C12.715 20.4071 12.645 20.4271 12.585 20.4471C12.4594 20.4905 12.33 20.515 12.2009 20.5395L12.2008 20.5395H12.2008L12.2008 20.5395L12.2008 20.5395L12.2008 20.5395C12.032 20.5715 11.8637 20.6035 11.705 20.6771C11.6154 20.7219 11.5196 20.7542 11.4245 20.7862C11.3497 20.8113 11.2754 20.8363 11.205 20.8671C11.1733 20.8807 11.142 20.8954 11.1108 20.91L11.1108 20.91C11.0044 20.9598 10.8987 21.0094 10.775 21.0171C10.7661 21.0171 10.7566 21.0181 10.7473 21.0191L10.7472 21.0191C10.7146 21.0226 10.6828 21.0259 10.675 20.9871C10.6683 20.9738 10.6795 20.9516 10.6906 20.9293C10.6961 20.9182 10.7017 20.9071 10.705 20.8971C10.715 20.8971 10.735 20.8771 10.755 20.8471ZM19.5011 21.2591L19.5011 21.259C19.4477 20.9913 19.3935 20.7192 19.265 20.4471C19.985 20.5771 20.625 20.7771 21.235 21.0871C21.3266 20.858 21.1663 20.7465 21.0311 20.6525C21.0188 20.6439 21.0067 20.6355 20.995 20.6271C20.7318 20.4429 20.4301 20.3202 20.1305 20.1983L20.1305 20.1983C20.0886 20.1813 20.0467 20.1643 20.005 20.1471C19.9372 20.118 19.8681 20.0913 19.7989 20.0645C19.5825 19.9807 19.3644 19.8962 19.175 19.7371C19.4007 19.5635 19.6566 19.5406 19.9099 19.518C19.9483 19.5145 19.9867 19.5111 20.025 19.5071C20.625 19.4571 21.175 19.6071 21.565 20.1171C21.735 20.3271 21.855 20.5771 21.935 20.8371C21.985 21.0071 22.045 21.1671 22.115 21.3271C22.155 21.4171 22.125 21.4371 22.045 21.4371C21.7637 21.4496 21.4825 21.5012 21.2013 21.5527C21.0325 21.5837 20.8638 21.6146 20.695 21.6371C20.375 21.6871 20.045 21.6771 19.715 21.6471C19.625 21.6371 19.575 21.5971 19.555 21.5171C19.5355 21.4317 19.5183 21.3456 19.5011 21.2591ZM14.975 16.3072C15.025 16.3572 15.075 16.3672 15.115 16.3172C15.1731 16.2301 15.2469 16.1693 15.3213 16.1081L15.3213 16.1081C15.3494 16.085 15.3776 16.0618 15.405 16.0371C15.615 15.8571 15.615 15.7272 15.395 15.5572C15.145 15.3472 14.865 15.2072 14.535 15.1272C14.055 15.0072 13.575 15.0072 13.085 15.0572C12.895 15.0772 12.875 15.1172 12.915 15.3172C12.9259 15.3871 12.9373 15.4566 12.9487 15.5257C12.9893 15.7732 13.0294 16.0171 13.045 16.2672C13.065 16.5672 13.215 16.8072 13.505 16.9372C13.675 17.0072 13.845 17.0872 14.005 17.1672C14.075 17.2072 14.115 17.1872 14.165 17.1372C14.305 16.9972 14.455 16.8571 14.595 16.7271C14.655 16.6671 14.655 16.6272 14.595 16.5772C14.5569 16.5355 14.5192 16.4934 14.4814 16.4514L14.4814 16.4513C14.3108 16.2614 14.1397 16.0709 13.935 15.9071C13.9072 15.8836 13.8771 15.8615 13.8465 15.8389C13.734 15.7561 13.6143 15.668 13.575 15.4872C13.6326 15.5064 13.6892 15.5235 13.7445 15.5403C13.8618 15.5758 13.973 15.6095 14.075 15.6571C14.435 15.8171 14.715 16.0572 14.975 16.3072ZM17.425 16.807C17.315 16.737 17.315 16.657 17.385 16.577C17.585 16.347 17.795 16.107 18.035 15.907C18.1228 15.8394 18.2015 15.7627 18.2896 15.6769L18.2896 15.6769C18.3319 15.6357 18.3764 15.5924 18.425 15.547C18.2151 15.517 18.0552 15.577 17.8952 15.637L17.895 15.637C17.6469 15.7363 17.4381 15.9242 17.2395 16.103L17.235 16.107C17.2158 16.1235 17.1958 16.1385 17.1758 16.1534C17.1233 16.1928 17.0712 16.2318 17.035 16.297C16.995 16.357 16.935 16.357 16.875 16.297C16.81 16.227 16.745 16.162 16.68 16.097L16.68 16.097C16.615 16.032 16.55 15.967 16.485 15.897C16.385 15.797 16.405 15.697 16.515 15.607C16.895 15.267 17.365 15.127 17.855 15.047C18.1165 15.0107 18.3727 15.0166 18.6313 15.0225H18.6313H18.6313H18.6313H18.6313H18.6313H18.6314H18.6314H18.6314C18.7288 15.0247 18.8265 15.027 18.925 15.027C19.025 15.027 19.065 15.067 19.055 15.187C19.0437 15.3151 19.0367 15.4445 19.0296 15.5744V15.5744V15.5744V15.5744V15.5744V15.5744V15.5745V15.5745V15.5745C19.0179 15.7893 19.0062 16.0051 18.975 16.217C18.935 16.517 18.785 16.777 18.495 16.927C18.4188 16.9681 18.3391 16.9988 18.26 17.0293C18.2042 17.0508 18.1487 17.0722 18.095 17.097C17.905 17.197 17.795 17.117 17.665 17.007C17.6455 16.99 17.6266 16.9729 17.6079 16.956C17.5497 16.9035 17.4931 16.8524 17.425 16.807ZM19.115 21.417C19.105 21.157 19.025 20.907 18.935 20.667C18.785 20.277 18.535 19.967 18.115 19.817C17.655 19.657 17.215 19.717 16.755 19.867C16.795 19.927 16.845 19.977 16.905 20.007C17.0199 20.0619 17.1372 20.1144 17.2546 20.1668L17.2547 20.1669L17.2548 20.1669L17.2549 20.167L17.255 20.167C17.3725 20.2195 17.49 20.272 17.605 20.327C17.965 20.507 18.275 20.757 18.455 21.137C18.4133 21.1174 18.3722 21.0977 18.3314 21.0783L18.3314 21.0782L18.3313 21.0782C18.2058 21.0183 18.0833 20.9598 17.955 20.907C17.8631 20.8714 17.7712 20.8367 17.6796 20.8021L17.6795 20.8021L17.6795 20.8021L17.6795 20.8021L17.6795 20.8021L17.6794 20.802L17.6794 20.802L17.6794 20.802C17.462 20.7199 17.246 20.6384 17.035 20.547C16.9809 20.5226 16.926 20.499 16.8711 20.4753C16.7228 20.4115 16.5736 20.3472 16.435 20.267C16.395 20.247 16.345 20.227 16.355 20.307C16.405 20.627 16.475 20.937 16.675 21.197C16.885 21.467 17.185 21.587 17.525 21.607C17.8064 21.629 18.0877 21.6024 18.3691 21.5758C18.5978 21.5541 18.8264 21.5325 19.055 21.537C19.1277 21.5531 19.1221 21.4976 19.1173 21.4492C19.1161 21.4377 19.115 21.4266 19.115 21.417ZM14.925 20.1371C14.615 20.2671 14.315 20.4171 14.055 20.6171C13.875 20.7571 13.685 20.9071 13.625 21.1871C14.0642 20.9765 14.4962 20.7985 14.9231 20.6226L14.9231 20.6226L14.9231 20.6226L14.9232 20.6225C15.2058 20.5061 15.4862 20.3906 15.765 20.2671C15.765 20.7871 15.465 21.3871 14.945 21.5871C14.735 21.6671 14.515 21.6671 14.305 21.6471C14.2383 21.6421 14.1717 21.6368 14.105 21.6315C13.7717 21.6051 13.4383 21.5787 13.105 21.5871C13.025 21.5871 12.985 21.5571 12.995 21.4771C13.065 20.8771 13.205 20.3171 13.745 19.9571C13.975 19.8071 14.2449 19.7471 14.5249 19.7171C14.7649 19.6971 14.995 19.7171 15.215 19.8271C15.2257 19.8343 15.2391 19.8376 15.2518 19.8407C15.2744 19.8464 15.295 19.8515 15.295 19.8771C15.305 19.9171 15.275 19.9471 15.235 19.9671L15.2341 19.9676C15.1344 20.0274 15.0347 20.0872 14.925 20.1371ZM13.595 10.937C12.995 10.697 12.365 10.5469 11.725 10.4669C11.635 10.4569 11.625 10.487 11.625 10.567C11.615 10.817 11.595 11.077 11.505 11.317C11.4316 11.5127 11.4181 11.7217 11.4047 11.9278C11.4017 11.9744 11.3987 12.0208 11.395 12.067C11.365 12.437 11.685 12.7169 12.045 12.7769C12.025 12.6069 12.005 12.437 11.965 12.267C11.935 12.167 11.975 12.1069 12.105 12.0969C12.345 12.0769 12.575 12.067 12.865 12.077L12.8479 12.052C12.6149 11.7122 12.4081 11.4105 12.125 11.1469C12.405 11.1769 12.625 11.267 12.805 11.457C12.8899 11.5419 12.968 11.6337 13.0464 11.7257C13.1802 11.8828 13.3147 12.0408 13.485 12.167C13.4948 12.1729 13.5039 12.1788 13.5125 12.1844C13.5476 12.2072 13.5748 12.225 13.615 12.2169C13.6687 12.2016 13.6635 12.1627 13.6582 12.1228C13.6566 12.1107 13.655 12.0986 13.655 12.0869C13.655 11.8269 13.655 11.567 13.755 11.317C13.855 11.057 13.845 11.037 13.595 10.937ZM20.4489 11.1781L20.4489 11.1781L20.4489 11.1781L20.4489 11.1781L20.4489 11.1781C20.4727 11.2871 20.4966 11.3964 20.515 11.507C20.5246 11.5583 20.5363 11.6096 20.5481 11.6612L20.5481 11.6613L20.5481 11.6613L20.5481 11.6613L20.5481 11.6614L20.5481 11.6614C20.573 11.7708 20.5982 11.8816 20.605 11.997C20.635 12.277 20.505 12.457 20.295 12.597C20.2693 12.615 20.2442 12.6356 20.2186 12.6567C20.1448 12.7176 20.0665 12.7821 19.955 12.797L19.9566 12.769C19.966 12.5994 19.975 12.4387 19.975 12.287C19.975 12.097 19.935 12.057 19.745 12.057H19.215C19.2112 12.057 19.2071 12.0574 19.2027 12.0577C19.184 12.0593 19.1612 12.0613 19.145 12.037C19.125 12.017 19.145 11.987 19.165 11.967C19.3242 11.7812 19.46 11.5719 19.5931 11.3669L19.645 11.287C19.685 11.237 19.725 11.177 19.695 11.087C19.405 11.217 19.165 11.407 18.955 11.647C18.8051 11.8268 18.6452 11.9967 18.4853 12.1666L18.485 12.167L18.485 12.167C18.465 12.187 18.445 12.207 18.415 12.197C18.3905 12.1889 18.3927 12.1607 18.3943 12.1397C18.3947 12.135 18.395 12.1307 18.395 12.127C18.425 11.777 18.405 11.437 18.355 11.097C18.335 10.957 18.425 10.927 18.515 10.897C18.6061 10.8685 18.6964 10.8392 18.7863 10.8101L18.7864 10.8101L18.7864 10.81L18.7864 10.81L18.7865 10.81C19.0124 10.7368 19.2361 10.6642 19.465 10.607C19.6525 10.562 19.84 10.5339 20.0275 10.5057C20.09 10.4964 20.1525 10.487 20.215 10.477C20.335 10.457 20.345 10.537 20.355 10.617C20.3676 10.8063 20.4081 10.9917 20.4489 11.178L20.4489 11.1781ZM9.93503 16.647C9.96836 16.6336 10.0017 16.6381 10.035 16.6425C10.0517 16.6448 10.0684 16.647 10.0851 16.647C10.1588 16.647 10.2334 16.6539 10.3083 16.6609L10.3083 16.6609C10.4875 16.6777 10.6687 16.6946 10.845 16.617C11.095 16.507 11.365 16.487 11.6451 16.517C11.7759 16.5289 11.9068 16.5373 12.0481 16.5463C12.1444 16.5525 12.2456 16.5589 12.355 16.567C11.925 16.097 11.425 15.917 10.845 15.917C10.6278 15.917 10.421 15.9589 10.2134 16.0011L10.2134 16.0011L10.2134 16.0011L10.2134 16.0011C10.1343 16.0171 10.055 16.0332 9.97501 16.047C9.73555 16.0911 9.512 16.1749 9.28931 16.2584L9.28929 16.2584L9.28928 16.2584L9.28926 16.2584C9.15857 16.3074 9.02818 16.3563 8.89505 16.397C8.81505 16.417 8.80501 16.457 8.85501 16.537C8.92001 16.627 8.98251 16.7195 9.04501 16.812C9.10751 16.9045 9.17001 16.997 9.23502 17.087C9.31502 17.197 9.40502 17.297 9.55502 17.317C9.99502 17.357 10.415 17.467 10.825 17.637C10.8313 17.6391 10.8376 17.6421 10.8438 17.645L10.8438 17.645C10.8672 17.6561 10.8892 17.6665 10.905 17.627C11.015 17.427 10.865 17.137 10.6451 17.077L10.6449 17.077C10.3949 17.007 10.145 16.937 9.91501 16.827L9.90501 16.8221C9.87011 16.805 9.845 16.7927 9.845 16.747C9.865 16.677 9.89503 16.657 9.93503 16.647ZM21.2968 17.5475C21.2409 17.5864 21.188 17.6234 21.135 17.577C21.1075 17.555 21.1103 17.5058 21.1133 17.451C21.1158 17.4061 21.1185 17.3575 21.105 17.317C21.075 17.197 21.125 17.147 21.225 17.117C21.505 17.027 21.785 16.927 22.045 16.787C22.0484 16.7853 22.0518 16.7837 22.0552 16.7822C22.0583 16.7809 22.0614 16.7796 22.0645 16.7783C22.0973 16.7646 22.1266 16.7523 22.135 16.677C21.8086 16.6731 21.4852 16.6336 21.1595 16.5937C20.657 16.5323 20.1489 16.4703 19.615 16.537C19.6909 16.4835 19.7621 16.4285 19.8319 16.3746C20.0103 16.2368 20.1794 16.106 20.395 16.027C20.665 15.927 20.945 15.907 21.235 15.897C21.3762 15.897 21.5061 15.9272 21.6363 15.9574C21.7182 15.9764 21.8001 15.9954 21.885 16.007C22.1378 16.0431 22.3726 16.13 22.6088 16.2174C22.765 16.2752 22.9218 16.3332 23.085 16.377C23.165 16.397 23.195 16.427 23.145 16.517C23.0922 16.613 23.0233 16.6952 22.9548 16.7768L22.9548 16.7769C22.8806 16.8653 22.807 16.953 22.755 17.057C22.685 17.217 22.575 17.257 22.405 17.277C22.055 17.327 21.725 17.407 21.385 17.497C21.3546 17.5071 21.3253 17.5276 21.2968 17.5475ZM8.855 15.4269H8.82503C8.50504 15.3647 8.18503 15.3657 7.86503 15.3667L7.74501 15.3669C7.61501 15.3669 7.56503 15.4069 7.57503 15.5469C7.60503 15.8369 7.62503 16.1369 7.63503 16.4269C7.65503 16.7769 7.74501 17.097 8.05501 17.307C8.08752 17.3276 8.11741 17.3571 8.14751 17.3867L8.14752 17.3867C8.21928 17.4573 8.29228 17.5292 8.40499 17.4869C8.53499 17.4369 8.655 17.397 8.795 17.377C8.875 17.367 8.88499 17.3169 8.84499 17.2769C8.79995 17.2278 8.76161 17.1736 8.72312 17.1192L8.72311 17.1192C8.6676 17.0408 8.61176 16.9619 8.53499 16.8969C8.37499 16.7669 8.29498 16.577 8.21498 16.387C8.16498 16.287 8.205 16.227 8.295 16.187C8.635 16.017 8.985 15.887 9.355 15.767L9.35497 15.7669C9.175 15.467 9.17498 15.4669 8.855 15.4269ZM23.0633 15.4221C23.3452 15.3859 23.6282 15.3496 23.865 15.3671C24.1704 15.3619 24.315 15.3594 24.3724 15.429C24.4259 15.4937 24.4036 15.6211 24.365 15.8671C24.335 16.1071 24.305 16.3571 24.325 16.5971C24.355 16.9771 24.135 17.1771 23.855 17.3471C23.8339 17.3611 23.8116 17.3715 23.7898 17.3816C23.7495 17.4003 23.711 17.4182 23.685 17.4571C23.645 17.5171 23.575 17.5071 23.515 17.4871C23.475 17.4771 23.435 17.4571 23.395 17.4371C23.3664 17.4192 23.3274 17.4128 23.2888 17.4065C23.2196 17.3952 23.1514 17.3841 23.145 17.3071C23.138 17.2506 23.1907 17.1942 23.2434 17.1377C23.2654 17.1142 23.2874 17.0906 23.305 17.0671C23.339 17.0231 23.3725 16.9788 23.4061 16.9344C23.5406 16.7568 23.675 16.5791 23.835 16.4271C23.925 16.3471 23.875 16.2871 23.795 16.2471C23.465 16.0671 23.115 15.9171 22.755 15.7971C22.749 15.7956 22.7423 15.7943 22.7354 15.793C22.6963 15.7855 22.6495 15.7766 22.675 15.7171C22.735 15.5971 22.815 15.4571 22.945 15.4371C22.9843 15.4322 23.0238 15.4271 23.0633 15.4221Z" fill="#4D1B00"/>
</svg>
