<svg width="32" height="32" viewBox="0 0 32 32" fill="none" xmlns="http://www.w3.org/2000/svg">
<path d="M21.6829 18.2859C20.2397 21.4468 19.3511 24.9373 18.9724 28.942H11.743C11.5525 26.2285 11.1948 22.3419 9.37568 18.288C9.00346 17.4625 8.58128 16.6456 8.11781 15.8548C8.58707 14.975 9.01144 14.0726 9.38221 13.166C10.6741 10.0093 11.4461 6.69697 11.7394 3.05802H18.9746C19.2975 6.18571 20.2491 9.75369 21.6757 13.171C22.053 14.0719 22.4774 14.9721 22.943 15.8548C22.481 16.6478 22.0595 17.4639 21.6829 18.2859ZM23.993 15.613C23.4905 14.6766 23.0321 13.7135 22.6294 12.7554C21.1702 9.262 20.2237 5.61363 19.9638 2.48378C19.9399 2.21004 19.7161 2 19.446 2H11.2585C10.9884 2 10.7618 2.21365 10.7415 2.49173C10.4887 6.20962 9.73053 9.5683 8.42557 12.759C8.03162 13.7214 7.57468 14.6809 7.06559 15.6086C6.97434 15.778 6.97869 15.9822 7.07564 16.1452C7.58329 16.9816 8.03807 17.8506 8.43275 18.7283C10.2873 22.8597 10.5502 26.7021 10.7414 29.5083C10.7617 29.7849 10.9883 30 11.2584 30H19.4459C19.716 30 19.9398 29.7907 19.9637 29.5163C20.3026 25.432 21.1738 21.9052 22.6236 18.7334C23.0233 17.8557 23.481 16.9852 23.9821 16.1416C24.0784 15.9809 24.0835 15.7802 23.993 15.613Z" fill="#00854A"/>
<path d="M20.5467 18.047C20.845 17.2982 21.1803 16.553 21.5475 15.8303C21.4483 15.6349 21.3454 15.4334 21.2397 15.2299C20.9326 14.6405 20.6133 14.0286 20.3729 13.371C19.3344 10.5221 18.6088 7.56391 18.2851 4.89172L12.5366 27.7769H18.2033C18.3959 25.6775 18.952 22.0393 20.5467 18.047Z" fill="#00854A"/>
</svg>
