<svg width="32" height="32" viewBox="0 0 32 32" fill="none" xmlns="http://www.w3.org/2000/svg">
<path d="M18.2653 5.11762C16.6645 5.31771 15.3495 5.91803 15.3495 5.91803C27.8415 4.3744 21.2954 13.2646 21.2954 13.2646C19.9519 14.7796 21.5527 15.4371 21.5527 15.4371C24.8686 17.2094 24.7543 19.2676 24.7543 19.2676C25.4117 26.8428 16.007 25.5564 16.007 25.5564C14.8064 25.3563 13.8059 25.5564 13.8059 25.5564C8.06018 26.4426 7.43129 22.9551 7.43129 22.9551V5.03186H2V20.754C2 20.754 2.37162 25.5564 8.48897 26.2711C10.1469 26.4712 12.5481 25.9852 12.5481 25.9852C14.7492 25.585 15.6926 25.7851 15.6926 25.7851C17.2648 26.1853 19.9233 26.3282 19.9233 26.3282C31.5005 26.2139 29.9283 19.4677 29.9283 19.4677C29.8996 17.5238 25.6976 15.1798 24.8686 14.7224C24.0968 14.2937 24.8972 13.5218 24.8972 13.5218C24.8972 13.5218 27.3556 11.7781 27.4985 10.1487C27.6414 8.89096 27.4985 8.86237 27.1269 8.14772C26.841 7.60459 24.1254 4.3458 18.2653 5.11762Z" fill="#2B2E7E"/>
<path d="M12.3195 23.2124C12.3195 23.2124 12.4624 24.2986 10.8044 25.3849C10.8044 25.3849 16.0928 25.2991 16.7788 22.0975V22.0404V8.34781C16.7788 8.34781 16.6359 7.26156 18.2939 6.17529C18.2939 6.17529 13.0055 6.26109 12.3195 9.46267V23.4411V23.2124Z" fill="#EC1C24"/>
</svg>
