<svg width="32" height="32" viewBox="0 0 32 32" fill="none" xmlns="http://www.w3.org/2000/svg">
<path d="M8.49511 23.5414C6.16511 19.1514 9.03512 13.0714 14.9051 9.95143C20.4851 6.98143 26.7651 7.76143 29.3751 11.6114C29.5651 9.90143 29.2951 8.23143 28.5051 6.73143C25.8151 1.66143 18.1251 0.48143 11.3451 4.09143C4.55511 7.70143 1.24512 14.7314 3.93512 19.8014C4.92512 21.6614 6.58512 22.9914 8.62512 23.7614C8.57512 23.6914 8.53511 23.6214 8.49511 23.5414Z" fill="#411493"/>
<path d="M28.8451 19.0914C30.2051 21.6614 28.7451 28.8214 26.7651 29.8814C25.6651 30.4614 16.6051 28.8914 15.2351 26.3314C13.8651 23.7714 15.8151 20.0714 19.5651 18.0714C23.3151 16.0714 27.4851 16.5314 28.8451 19.0914Z" fill="#FFFF00"/>
<path d="M14.2151 25.9614C12.7151 23.1514 14.8451 19.0914 18.9651 16.9014C23.0851 14.7114 27.6351 15.2114 29.1251 18.0314C29.1351 18.0514 29.1451 18.0714 29.1551 18.0914C29.5751 16.4214 29.4551 14.7414 28.6751 13.2714C26.5951 9.37139 20.6851 8.45139 15.4551 11.2314C10.2251 14.0114 7.67511 19.4214 9.75511 23.3314C10.7651 25.2214 12.6751 26.4114 14.9751 26.8214C14.6351 26.5514 14.3751 26.2714 14.2151 25.9614Z" fill="#FF0025"/>
</svg>
