<svg width="32" height="32" viewBox="0 0 32 32" fill="none" xmlns="http://www.w3.org/2000/svg">
<path d="M22.6326 7.77549L12.5668 24.6659L14.3367 24.6662L24.3963 7.77562L22.6326 7.77549Z" fill="#512C1E"/>
<path d="M6.30381 14.8208H5.93106L10.3303 7.77551H2.40322V8.83493L7.87404 8.83371L3.4855 15.858H3.51171L3.47697 15.9174H6.30381C9.04257 15.9174 10.29 17.865 10.29 19.6748C10.29 23.063 7.67776 23.5689 6.12064 23.5689H2V24.6655H6.12064C9.41806 24.6655 11.3866 22.8 11.3866 19.6748C11.3866 17.2627 9.64085 14.8208 6.30381 14.8208Z" fill="#512C1E"/>
<path d="M27.8258 14.9211H26.7292V19.1329H27.8258V14.9211Z" fill="#512C1E"/>
<path d="M21.6685 20.4392L29.264 7.78223H27.5066L19.7027 20.7628V21.5358H26.7291V24.6659H27.8257V21.5358H30V20.4392H21.6685Z" fill="#512C1E"/>
</svg>
