<svg width="32" height="32" viewBox="0 0 32 32" fill="none" xmlns="http://www.w3.org/2000/svg">
<path d="M30 9H16V23.7848H30V9Z" fill="#1A171B"/>
<path d="M16 9H2V23.7848H16V9Z" fill="#FCEA1B"/>
<path d="M27.5202 10.13C30 10.8206 30.2198 14.4619 27.2691 14.0224C27.0807 14.7444 27.5516 15.4036 27.9597 16.0942C29.278 18.2601 27.991 21.0224 26.0449 22.3722C26.8924 21.2735 28.87 18.8251 27.1435 16.2197C26.6727 15.5291 25.3543 13.5829 27.2691 13.7399C29.1211 13.8655 29.2467 11.6368 27.2377 11.1031C25.4171 10.6323 24.287 12.2646 24.1928 14.1166C23.8476 13.8027 23.4709 13.4888 22.9372 13.4888C23.0314 11.2915 25.4171 9.56501 27.5202 10.13ZM18.6054 13.0179C19.0763 12.9238 19.5785 12.9238 20.018 13.1435C20.2691 13.2377 20.426 13.426 20.583 13.6457C20.8341 14.0852 20.7713 14.3991 21.3677 14.2107C21.9955 13.991 23.1884 13.9282 23.7534 14.713C22.6233 14.3363 21.9328 14.4933 21.4933 14.7444C20.9911 15.0269 20.5516 14.9641 20.2691 14.4305C19.9552 13.8655 19.6727 13.5516 18.8879 13.6457C17.5381 13.8027 17.0673 14.713 16.9103 15.7489C16.8476 16.1883 17.4754 16.4394 19.0763 16.4081C18.3543 16.7847 17.287 16.722 16.5337 16.3453C16.3453 16.2511 16.3453 16.0314 16.4081 15.6861C16.6592 14.5246 17.3812 13.3004 18.6054 13.0179ZM21.6189 21.8386C20.2063 21.0852 20.0807 18.3542 22.435 18.1973C20.583 18.9507 21.1794 20.9596 22.435 21.5246C22.6861 21.6502 23.1256 21.9955 23.1256 22.5291H19.296C19.3274 21.3049 21.0538 21.8386 21.6189 21.8386ZM17.7579 17.13C17.8834 17.1614 18.009 17.2242 18.1345 17.287C18.8879 17.8834 18.6054 19.1076 20.6144 19.0134C18.6054 19.9238 18.6368 18.3542 17.7265 17.9462C17.6637 17.9148 17.6323 17.8834 17.5695 17.8834C17.5381 17.8834 17.4754 17.852 17.4126 17.8834C17.1301 17.9148 16.8476 18.0717 16.6592 17.7578C16.4395 17.3184 16.9417 17.0986 17.3498 17.0986C17.5067 17.0986 17.6323 17.0986 17.7579 17.13ZM19.2332 11.6681C19.5471 11.6054 19.8296 12.2018 19.8296 12.5785C19.8296 12.7668 19.8296 12.8296 19.6413 12.8296C19.3588 12.7982 19.2018 12.7982 19.0449 12.7982C18.8879 12.7982 18.8879 12.704 18.8565 12.5157C18.8565 12.1704 19.0135 11.6995 19.2332 11.6681ZM17.9148 15.2466C18.1973 15.1838 18.6996 14.5874 18.2601 14.4305C18.009 14.3363 17.7579 14.556 17.6323 14.7758C17.4126 15.1525 17.5381 15.3722 17.9148 15.2466ZM18.8565 11.8565C18.4798 11.6054 18.2601 12.3273 18.2915 12.6099C18.2915 12.7668 18.3543 12.8924 18.5112 12.861C18.574 12.8296 18.6996 12.8296 18.7624 12.7982C18.6368 12.5785 18.6682 12.139 18.8565 11.8565Z" fill="#FCEA1B"/>
<path d="M4.54261 10.13C2.06278 10.8206 1.84305 14.4619 4.79373 14.0224C4.98207 14.7444 4.51121 15.4036 4.10314 16.0942C2.78476 18.2601 4.07175 21.0224 6.01794 22.3722C5.17041 21.2735 3.19283 18.8251 4.91929 16.2197C5.39014 15.5291 6.73991 13.5829 4.79373 13.7399C2.91032 13.8655 2.81615 11.6368 4.82512 11.1031C6.64574 10.6323 7.77579 12.2646 7.90135 14.1166C8.24664 13.8027 8.62332 13.4888 9.15695 13.4888C9.09417 11.2915 6.67713 9.56501 4.54261 10.13ZM13.5202 13.0179C13.0493 12.9238 12.5471 12.9238 12.1076 13.1435C11.8565 13.2377 11.6996 13.426 11.5426 13.6457C11.2915 14.0852 11.3543 14.3991 10.7579 14.2107C10.13 13.991 8.90583 13.9282 8.3722 14.713C9.50225 14.3363 10.1928 14.4933 10.6323 14.7444C11.1345 15.0269 11.574 14.9641 11.8565 14.4305C12.1704 13.8655 12.4529 13.5516 13.2377 13.6457C14.5874 13.8027 15.0583 14.713 15.2153 15.7489C15.278 16.1883 14.6502 16.4394 13.0493 16.4081C13.7713 16.7847 14.8386 16.722 15.5919 16.3453C15.7803 16.2511 15.7803 16.0314 15.7175 15.6861C15.4664 14.5246 14.7758 13.3004 13.5202 13.0179ZM10.4753 21.8386C11.8879 21.0852 12.0448 18.3542 9.62781 18.1973C11.5112 18.9507 10.9148 20.9596 9.62781 21.5246C9.37669 21.6502 8.93722 21.9955 8.93722 22.5291H12.8296C12.7982 21.3049 11.0718 21.8386 10.4753 21.8386ZM14.3991 17.13C14.2735 17.1614 14.148 17.2242 14.0224 17.287C13.2691 17.8834 13.5516 19.1076 11.5112 19.0134C13.5202 19.9238 13.4888 18.3542 14.4305 17.9462C14.4933 17.9148 14.5247 17.8834 14.5874 17.8834C14.6188 17.8834 14.6816 17.852 14.7444 17.8834C15.0269 17.9148 15.3094 18.0717 15.4978 17.7578C15.7175 17.3184 15.2153 17.0986 14.8072 17.0986C14.6502 17.0986 14.5247 17.0986 14.3991 17.13ZM12.8924 11.6681C12.5785 11.6054 12.296 12.2018 12.296 12.5785C12.296 12.7668 12.296 12.8296 12.4843 12.8296C12.7668 12.7982 12.9238 12.7982 13.0807 12.7982C13.2377 12.7982 13.2377 12.704 13.2691 12.5157C13.2691 12.1704 13.1121 11.6995 12.8924 11.6681ZM14.2108 15.2466C13.9283 15.1838 13.426 14.5874 13.8655 14.4305C14.1166 14.3363 14.3677 14.556 14.4933 14.7758C14.713 15.1525 14.6188 15.3722 14.2108 15.2466ZM13.2691 11.8565C13.6457 11.6054 13.8655 12.3273 13.8341 12.6099C13.8341 12.7668 13.7399 12.8924 13.6144 12.861C13.5516 12.8296 13.426 12.8296 13.3632 12.7982C13.4888 12.5785 13.4574 12.139 13.2691 11.8565Z" fill="#1A171B"/>
</svg>
