<svg width="32" height="32" viewBox="0 0 32 32" fill="none" xmlns="http://www.w3.org/2000/svg">
<path d="M11.3335 8.11031H2V26.7777H20.6649V23.6675H11.3335V8.11031Z" fill="#D93718"/>
<path d="M30 4.99996H11.3334V8.11014H20.6648V23.6674H30V4.99996Z" fill="#8AC100"/>
<path d="M20.6647 23.6671H11.3333V8.1099H20.6647V23.6671Z" fill="#AC3110"/>
<path d="M13.4638 13.0912V13.8368H15.5786V18.9998H16.4214V13.8368H18.5362V13.0912H13.4638Z" fill="white"/>
<path d="M25.8698 13.0912H25.0006L22.4835 18.9998H23.3632C23.3632 18.9998 23.9503 17.5534 23.9692 17.5107H26.8262C26.8455 17.5534 27.4323 18.9998 27.4323 18.9998H28.3522L25.8698 13.0912ZM26.5475 16.7965H24.2567C24.2898 16.6989 25.3384 14.0954 25.4063 13.9336C25.4692 14.0954 26.5111 16.6989 26.5475 16.7965Z" fill="white"/>
<path d="M5.42122 13.823V15.4969H6.55867C7.8009 15.4969 8.77071 15.9847 8.77071 17.2818C8.77071 18.6456 7.67685 18.9998 6.44216 18.9998H4.56247V13.0908H8.31975V13.823H5.42122ZM5.42122 16.2408V18.2646H6.48742C7.14919 18.2646 7.89478 18.0438 7.89478 17.2818C7.89478 16.5065 7.29923 16.2408 6.58675 16.2408H5.42122Z" fill="white"/>
</svg>
