<svg width="32" height="32" viewBox="0 0 32 32" fill="none" xmlns="http://www.w3.org/2000/svg">
<path fill-rule="evenodd" clip-rule="evenodd" d="M14.2682 8.31771C14.2682 11.8032 11.5173 14.6354 8.1334 14.6354C4.74678 14.6354 2 11.8061 2 8.31771C2 4.82502 4.74678 2 8.1334 2C11.5173 2 14.2682 4.82359 14.2682 8.31771ZM29.1805 8.31771C29.1805 4.82502 26.4338 2 23.0485 2C19.6647 2 16.9193 4.82502 16.9193 8.31771C16.9193 11.8032 19.6647 14.6354 23.0485 14.6354C26.4351 14.634 29.1805 11.8046 29.1805 8.31771ZM14.2682 23.6823C14.2682 20.1939 11.5173 17.3689 8.1334 17.3689C4.74678 17.3689 2 20.1939 2 23.6823C2 27.1707 4.74678 30 8.1334 30C11.5173 30 14.2682 27.1721 14.2682 23.6823ZM29.1805 23.6823C29.1805 20.1939 26.4338 17.3689 23.0485 17.3689C19.6647 17.3689 16.9193 20.1939 16.9193 23.6823C16.9193 27.1707 19.6647 30 23.0485 30C26.4351 30 29.1805 27.1721 29.1805 23.6823Z" fill="url(#paint0_linear_395_37703)"/>
<defs>
<linearGradient id="paint0_linear_395_37703" x1="2" y1="16" x2="177.304" y2="16" gradientUnits="userSpaceOnUse">
<stop stop-color="#0093D4"/>
<stop offset="0.604167" stop-color="#2B2A29"/>
</linearGradient>
</defs>
</svg>
