<svg width="32" height="32" viewBox="0 0 32 32" fill="none" xmlns="http://www.w3.org/2000/svg">
<path d="M28.86 26.94C28.81 26.89 28.77 26.84 28.72 26.78C28.69 26.75 28.66 26.72 28.64 26.69C28.55 26.59 28.47 26.49 28.38 26.39C28.31 26.31 28.24 26.23 28.17 26.15C28.15 26.13 28.14 26.11 28.12 26.09C28.07 26.03 28.02 25.97 27.96 25.91C27.82 25.74 27.68 25.57 27.55 25.4C27.53 25.37 27.5 25.34 27.48 25.31C27.35 25.14 27.21 24.98 27.08 24.81C27.05 24.78 27.03 24.74 27 24.71C26.94 24.64 26.88 24.56 26.82 24.49C26.79 24.46 26.77 24.43 26.74 24.39C26.68 24.33 26.63 24.27 26.57 24.21C26.51 24.13 26.45 24.05 26.39 23.96C26.34 23.9 26.3 23.84 26.25 23.78C26.21 23.71 26.17 23.65 26.12 23.58C26.07 23.51 26.01 23.43 25.96 23.36C25.93 23.32 25.9 23.28 25.87 23.23C25.82 23.18 25.78 23.13 25.73 23.09C25.7 23.04 25.67 22.99 25.64 22.94C25.5 22.75 25.36 22.56 25.23 22.37C25.22 22.36 25.2 22.34 25.19 22.33C25.15 22.28 25.11 22.24 25.06 22.19C25.03 22.15 25 22.1 24.97 22.06C24.96 22.05 24.95 22.03 24.94 22.02C24.91 21.95 24.87 21.88 24.84 21.81C24.83 21.8 24.81 21.78 24.8 21.77C24.78 21.74 24.77 21.71 24.75 21.68C24.74 21.67 24.72 21.65 24.71 21.64C24.48 21.28 24.25 20.92 24.01 20.56C23.99 20.53 23.97 20.5 23.95 20.47C23.86 20.31 23.76 20.15 23.67 19.99C23.63 19.92 23.58 19.85 23.54 19.77C23.51 19.73 23.47 19.68 23.44 19.64C23.42 19.6 23.4 19.56 23.39 19.52C23.34 19.43 23.29 19.34 23.23 19.26C23.2 19.23 23.18 19.2 23.15 19.17C23.12 19.13 23.09 19.08 23.06 19.04C23.04 18.99 23.03 18.94 23.01 18.89C23 18.87 22.99 18.85 22.97 18.83C22.93 18.8 22.89 18.78 22.85 18.75C22.86 18.73 22.87 18.72 22.88 18.7C22.89 18.7 22.89 18.7 22.9 18.71C22.87 18.65 22.84 18.59 22.81 18.53C22.78 18.51 22.75 18.49 22.73 18.47C22.71 18.41 22.69 18.34 22.67 18.28C22.66 18.28 22.64 18.27 22.63 18.27C22.6 18.2 22.57 18.13 22.54 18.06C22.5 18 22.46 17.94 22.42 17.88C22.38 17.8 22.35 17.72 22.31 17.64C22.28 17.59 22.24 17.55 22.21 17.5C22.21 17.47 22.22 17.44 22.22 17.41C22.23 17.4 22.24 17.39 22.25 17.37C22.25 17.36 22.25 17.34 22.26 17.33C22.27 17.33 22.28 17.33 22.3 17.33C22.34 17.27 22.39 17.22 22.43 17.16C22.53 17.06 22.63 16.96 22.73 16.86C22.79 16.8 22.84 16.74 22.9 16.67C22.95 16.61 23 16.55 23.04 16.49C23.01 16.45 22.99 16.41 22.96 16.36C22.99 16.4 23.01 16.44 23.04 16.49C23.1 16.43 23.15 16.36 23.21 16.3C23.26 16.25 23.31 16.21 23.36 16.16C23.37 16.08 23.3 15.96 23.47 15.96C23.53 15.9 23.58 15.83 23.64 15.77C23.69 15.72 23.73 15.66 23.78 15.61C23.89 15.47 23.99 15.32 24.1 15.18C24.12 15.15 24.14 15.12 24.17 15.09C24.2 15.05 24.23 15.01 24.26 14.97C24.27 14.95 24.29 14.94 24.3 14.92C24.34 14.87 24.39 14.82 24.43 14.78C24.44 14.77 24.44 14.76 24.45 14.75C24.47 14.71 24.49 14.66 24.51 14.62C24.67 14.43 24.82 14.24 24.98 14.05C25.01 13.99 25.04 13.94 25.07 13.88C25.1 13.86 25.12 13.84 25.15 13.83C25.18 13.78 25.21 13.72 25.24 13.67C25.36 13.49 25.49 13.32 25.61 13.14C25.69 13.02 25.76 12.91 25.84 12.79C25.91 12.66 25.98 12.54 26.06 12.41C26.08 12.38 26.09 12.35 26.11 12.33C26.12 12.3 26.13 12.27 26.14 12.24C26.16 12.2 26.18 12.16 26.2 12.12C26.24 12.06 26.27 12 26.31 11.93C26.3 11.9 26.29 11.88 26.29 11.85C26.32 11.85 26.34 11.85 26.37 11.85C26.46 11.72 26.54 11.58 26.63 11.45C26.63 11.44 26.63 11.42 26.62 11.41H26.64C26.64 11.37 26.64 11.32 26.64 11.28C26.63 11.26 26.63 11.23 26.62 11.21C26.61 11.19 26.6 11.17 26.59 11.15C26.54 11.06 26.49 10.96 26.45 10.87C26.43 10.82 26.4 10.77 26.38 10.72C26.35 10.65 26.32 10.58 26.28 10.51C26.26 10.47 26.23 10.42 26.21 10.38C26.19 10.34 26.17 10.3 26.15 10.25C26.14 10.25 26.13 10.25 26.12 10.24C26.11 10.2 26.1 10.16 26.08 10.11C26.06 10.07 26.04 10.03 26.02 9.98C25.96 9.84 25.9 9.69 25.84 9.55C25.83 9.53 25.81 9.52 25.8 9.5C25.82 9.23 25.61 9.07 25.5 8.86C25.44 8.85 25.39 8.85 25.33 8.84C25.29 8.74 25.24 8.73 25.19 8.84C25.16 8.84 25.14 8.84 25.11 8.84C25.06 8.84 25.02 8.84 24.97 8.84V8.85C24.93 8.84 24.88 8.84 24.84 8.83C24.38 8.83 23.92 8.83 23.46 8.83C23.44 8.83 23.43 8.83 23.41 8.83C23.37 8.83 23.33 8.83 23.29 8.83C23.27 8.83 23.26 8.83 23.24 8.83C23.2 8.83 23.16 8.83 23.12 8.83C23.1 8.83 23.09 8.83 23.07 8.83C21.82 8.83 20.57 8.83 19.32 8.83C19.3 8.83 19.29 8.83 19.27 8.83C19.08 8.83 18.9 8.83 18.71 8.83C18.7 8.82 18.69 8.81 18.68 8.8V8.79L18.66 8.78L18.67 8.77C18.66 8.74 18.65 8.71 18.64 8.67C18.61 8.55 18.58 8.44 18.54 8.32C18.51 8.26 18.49 8.21 18.46 8.15C18.44 8.06 18.43 7.98 18.41 7.89C18.34 7.65 18.27 7.4 18.2 7.16C18.18 7.08 18.16 7 18.14 6.92C18.12 6.84 18.09 6.77 18.07 6.69C18.03 6.52 17.98 6.34 17.94 6.17C17.93 6.14 17.92 6.11 17.91 6.08C17.87 5.91 17.84 5.74 17.8 5.58C17.78 5.51 17.75 5.45 17.72 5.39C17.71 5.29 17.7 5.19 17.69 5.09C17.67 5.06 17.66 5 17.64 5C17.49 5 17.34 5.02 17.19 5.03C17.03 5.03 16.88 5.03 16.72 5.03C16.7 5.03 16.69 5.03 16.67 5.03C16.63 5.03 16.59 5.03 16.55 5.03C16.53 5.03 16.52 5.03 16.5 5.03C16.29 5.03 16.07 5.03 15.86 5.03C15.84 5.03 15.83 5.03 15.81 5.03C15.77 5.03 15.73 5.03 15.69 5.03C15.67 5.03 15.66 5.03 15.64 5.03C15.6 5.03 15.56 5.03 15.52 5.03C15.5 5.03 15.49 5.03 15.47 5.03C15.43 5.03 15.39 5.03 15.35 5.03C15.33 5.03 15.32 5.03 15.3 5.03C14.97 5.03 14.64 5.03 14.31 5.03C14.29 5.03 14.28 5.03 14.26 5.03C14.22 5.03 14.18 5.03 14.13 5.03C14.06 5.03 13.98 5.03 13.91 5.04C13.9 5.04 13.88 5.05 13.87 5.05C13.8 5.05 13.74 5.05 13.65 5.05C13.65 6.05 13.65 7.01 13.65 7.98C13.66 8.24 13.67 8.5 13.67 8.76C13.66 8.77 13.66 8.79 13.65 8.8C13.61 8.81 13.56 8.82 13.52 8.84C13.52 8.83 13.52 8.82 13.52 8.81C13.48 8.82 13.43 8.83 13.39 8.84C13.38 8.84 13.36 8.85 13.35 8.85C13.32 8.85 13.3 8.84 13.27 8.84C13.25 8.84 13.24 8.84 13.22 8.84C13.18 8.84 13.14 8.84 13.1 8.84C13.08 8.84 13.07 8.84 13.05 8.84C13.01 8.84 12.97 8.84 12.93 8.84C12.91 8.84 12.9 8.84 12.88 8.84C12.84 8.84 12.8 8.84 12.76 8.84C12.74 8.84 12.73 8.84 12.71 8.84C9.79 8.84 6.87 8.84 3.95 8.84C3.93 8.84 3.92 8.84 3.9 8.84C3.86 8.84 3.82 8.84 3.78 8.84C3.76 8.84 3.75 8.84 3.73 8.84C3.69 8.84 3.65 8.84 3.61 8.84C3.59 8.84 3.58 8.84 3.56 8.84C3.52 8.84 3.47999 8.84 3.43999 8.84C3.41999 8.84 3.41 8.84 3.39 8.84C3.35 8.84 3.31 8.84 3.27 8.84C3.18 8.81 3.07999 8.67 3.00999 8.86C3.00999 8.89 3 8.91 3 8.94C3 8.97 3 9 3 9.03C3 9.12 3.00999 9.2 3.00999 9.29C3.00999 9.75 3 10.21 3 10.67C3 10.8 3.00999 10.93 3.00999 11.06C3.00999 11.17 3.00999 11.28 3.00999 11.4C3.10999 11.41 3.18999 11.42 3.25999 11.43C3.29999 11.42 3.35 11.42 3.39 11.41C3.45 11.41 3.51 11.41 3.56 11.41C3.75 11.41 3.93 11.41 4.12 11.41C5.34 11.41 6.57 11.41 7.79 11.41C7.81 11.41 7.82 11.41 7.84 11.41C7.93 11.41 8.01 11.42 8.1 11.42C8.11 11.46 8.12 11.5 8.14 11.54C8.14 11.55 8.14 11.57 8.14 11.58C8.14 11.92 8.14 12.27 8.14 12.61C8.15 12.87 8.17 13.14 8.17 13.4C8.17 17.13 8.17 20.87 8.17 24.6C8.17 25.06 8.15 25.52 8.14 25.97C8.13 26.3 8.11 26.63 8.11 26.96C8.11 27.03 8.14 27.11 8.15 27.18C8.16 27.21 8.17999 27.24 8.18999 27.27C8.24 27.25 8.27999 27.23 8.32999 27.21C8.54999 27.21 8.77 27.21 9 27.21C9.45 27.21 9.9 27.23 10.35 27.22C10.48 27.22 10.62 27.17 10.75 27.14C10.74 26.97 10.74 26.79 10.73 26.62C10.73 26.36 10.74 26.1 10.74 25.84C10.74 21.49 10.74 17.13 10.74 12.78C10.74 12.69 10.74 12.61 10.74 12.52C10.74 12.5 10.74 12.49 10.74 12.47C10.74 12.27 10.74 12.07 10.73 11.87C10.73 11.75 10.73 11.64 10.73 11.52C10.73 11.49 10.74 11.46 10.74 11.44C10.75 11.43 10.77 11.41 10.78 11.4C10.81 11.4 10.84 11.39 10.86 11.39C10.9 11.4 10.95 11.4 10.99 11.41C11.65 11.4 12.31 11.4 12.98 11.39C13.01 11.39 13.04 11.39 13.07 11.39C13.16 11.39 13.24 11.39 13.33 11.39C13.35 11.39 13.36 11.39 13.38 11.39C13.44 11.39 13.49 11.39 13.55 11.38C13.58 11.39 13.61 11.39 13.64 11.4C13.65 11.42 13.66 11.45 13.68 11.47C13.68 11.51 13.68 11.56 13.68 11.6C13.68 11.94 13.68 12.29 13.68 12.63C13.68 12.67 13.69 12.72 13.69 12.76C13.69 12.82 13.69 12.88 13.69 12.93C13.7 13.88 13.71 14.82 13.71 15.77C13.71 18.55 13.71 21.34 13.71 24.12C13.71 24.48 13.69 24.85 13.68 25.21C13.68 25.32 13.68 25.44 13.68 25.55C13.68 25.61 13.68 25.67 13.68 25.72C13.67 26.12 13.65 26.52 13.65 26.93C13.65 27 13.7 27.08 13.73 27.15C13.75 27.16 13.77 27.16 13.79 27.17C13.84 27.17 13.9 27.17 13.95 27.17C14.61 27.16 15.27 27.16 15.94 27.15C15.98 27.15 16.03 27.15 16.07 27.15C16.1 27.15 16.12 27.15 16.15 27.15C16.18 27.14 16.21 27.14 16.23 27.13C16.24 27.1 16.24 27.07 16.25 27.04C16.24 27.03 16.24 27.01 16.25 27C16.25 26.94 16.25 26.88 16.25 26.83C16.25 26.66 16.25 26.48 16.25 26.31C16.24 26.23 16.24 26.15 16.23 26.08C16.23 25.92 16.24 25.76 16.24 25.59C16.24 24.82 16.25 24.06 16.25 23.29C16.25 23.26 16.25 23.23 16.25 23.2C16.27 23.11 16.3 23.03 16.32 22.94C16.3 22.87 16.27 22.8 16.25 22.72C16.23 22.62 16.21 22.52 16.19 22.42C16.19 22.35 16.2 22.28 16.2 22.21C16.21 22.18 16.22 22.15 16.24 22.12C16.44 22 16.65 21.87 16.85 21.75C16.87 21.74 16.88 21.74 16.9 21.73C16.91 21.72 16.93 21.71 16.94 21.7C16.97 21.68 17 21.66 17.03 21.64C17.06 21.63 17.09 21.61 17.12 21.6C17.16 21.57 17.21 21.54 17.25 21.5C17.29 21.47 17.34 21.45 17.38 21.42C17.39 21.41 17.4 21.4 17.42 21.39C17.53 21.32 17.65 21.25 17.76 21.18C17.8 21.15 17.83 21.11 17.87 21.08C17.82 21.08 17.77 21.08 17.73 21.07C17.78 21.07 17.83 21.07 17.87 21.08C17.91 21.05 17.95 21.02 17.99 21C18.03 20.97 18.07 20.94 18.12 20.91C18.21 20.84 18.3 20.77 18.39 20.7C18.47 20.63 18.56 20.56 18.64 20.49C18.67 20.48 18.69 20.47 18.72 20.46C18.81 20.39 18.89 20.33 18.98 20.26C19.18 20.1 19.38 19.94 19.59 19.79C19.64 19.74 19.7 19.7 19.75 19.65C19.75 19.64 19.76 19.62 19.76 19.61C19.91 19.49 20.07 19.37 20.22 19.24C20.33 19.14 20.39 19.18 20.41 19.31C20.44 19.37 20.47 19.43 20.5 19.48C20.52 19.51 20.53 19.54 20.55 19.56C20.58 19.62 20.61 19.68 20.64 19.73C20.67 19.79 20.7 19.84 20.73 19.9C20.75 19.94 20.78 19.99 20.8 20.03C20.91 20.16 21.03 20.3 21.14 20.43C21.16 20.49 21.17 20.54 21.19 20.6C21.23 20.69 21.27 20.77 21.31 20.86C21.33 20.89 21.34 20.91 21.36 20.94C21.41 21.01 21.45 21.09 21.5 21.16C21.61 21.32 21.72 21.48 21.83 21.64C21.85 21.68 21.86 21.72 21.88 21.77C21.96 21.9 22.05 22.03 22.13 22.16C22.16 22.21 22.2 22.26 22.23 22.32C22.3 22.41 22.37 22.5 22.44 22.59C22.56 22.79 22.69 22.99 22.81 23.19C22.82 23.2 22.82 23.22 22.83 23.23C22.85 23.25 22.87 23.27 22.89 23.28C23.01 23.46 23.13 23.65 23.25 23.83C23.26 23.83 23.27 23.83 23.28 23.83C23.3 23.87 23.32 23.91 23.34 23.95C23.65 24.38 23.96 24.81 24.27 25.24C24.29 25.27 24.32 25.31 24.35 25.34C24.37 25.38 24.4 25.42 24.42 25.46C24.46 25.52 24.51 25.57 24.55 25.63C24.56 25.63 24.57 25.63 24.58 25.63C24.61 25.69 24.65 25.74 24.68 25.8C24.76 25.88 24.83 25.96 24.91 26.04C25.1 26.29 25.29 26.54 25.49 26.79C25.53 26.84 25.57 26.88 25.6 26.93C25.63 26.97 25.66 27.02 25.69 27.06C25.76 27.08 25.84 27.11 25.91 27.11C26.6 27.12 27.29 27.12 27.98 27.12C28.04 27.13 28.1 27.13 28.16 27.14C28.36 27.13 28.56 27.12 28.76 27.11C28.82 27.11 28.88 27.11 28.93 27.11C28.96 27.08 28.99 27.05 29.01 27.02C28.95 27.06 28.9 27 28.86 26.94ZM24.22 23.83C24.21 23.82 24.19 23.81 24.18 23.82C24.2 23.81 24.21 23.82 24.22 23.83ZM20.66 14.3C20.51 13.96 20.37 13.62 20.22 13.28C20.09 12.96 19.97 12.64 19.84 12.32C19.77 12.12 19.71 11.92 19.64 11.72C19.62 11.62 19.6 11.53 19.58 11.43C19.62 11.43 19.66 11.42 19.7 11.42C19.72 11.42 19.73 11.42 19.75 11.42C19.81 11.42 19.87 11.43 19.92 11.43C20.02 11.43 20.12 11.43 20.22 11.43C20.25 11.43 20.28 11.42 20.31 11.42C20.76 11.42 21.2 11.42 21.65 11.42C21.68 11.42 21.71 11.42 21.74 11.42C21.83 11.42 21.91 11.42 22 11.42C22.03 11.42 22.06 11.42 22.09 11.41C22.21 11.41 22.32 11.41 22.44 11.41C22.64 11.41 22.84 11.4 23.04 11.4C23.08 11.4 23.13 11.4 23.17 11.4C23.23 11.4 23.28 11.41 23.34 11.41C23.31 11.5 23.29 11.6 23.24 11.68C22.98 12.07 22.71 12.44 22.44 12.82C22.34 12.95 22.25 13.07 22.15 13.2C21.93 13.48 21.71 13.75 21.49 14.03C21.32 14.23 21.15 14.43 20.97 14.64C20.9 14.58 20.83 14.53 20.75 14.47C20.72 14.42 20.69 14.36 20.66 14.3ZM18.45 15.49C18.61 15.84 18.77 16.2 18.93 16.55C18.94 16.58 18.94 16.61 18.95 16.64C18.95 16.67 18.95 16.7 18.94 16.73C18.93 16.74 18.92 16.75 18.91 16.77C18.8 16.86 18.69 16.94 18.58 17.04C18.22 17.36 17.85 17.69 17.49 18.01C17.43 18.06 17.38 18.1 17.32 18.15C17.25 18.21 17.18 18.27 17.1 18.33C17.03 18.38 16.96 18.43 16.89 18.49C16.83 18.54 16.76 18.59 16.7 18.65C16.68 18.65 16.67 18.66 16.67 18.68C16.65 18.69 16.63 18.71 16.61 18.72C16.5 18.78 16.39 18.85 16.28 18.91C16.24 18.88 16.2 18.84 16.16 18.81C16.16 18.71 16.15 18.61 16.15 18.51C16.16 18.47 16.18 18.42 16.19 18.38C16.19 18.31 16.19 18.24 16.19 18.16C16.19 18.09 16.19 18.02 16.19 17.94C16.19 16.65 16.19 15.35 16.19 14.06C16.19 13.99 16.19 13.92 16.19 13.84C16.19 13.6 16.19 13.35 16.19 13.11C16.19 13.08 16.19 13.05 16.19 13.02C16.19 12.95 16.19 12.88 16.19 12.8C16.19 12.7 16.19 12.6 16.19 12.5C16.19 12.21 16.19 11.92 16.21 11.63C16.21 11.58 16.26 11.48 16.3 11.48C16.48 11.45 16.66 11.45 16.84 11.44C16.84 11.45 16.84 11.46 16.85 11.47C16.96 11.79 17.08 12.1 17.19 12.42C17.24 12.56 17.3 12.71 17.35 12.85C17.73 13.73 18.09 14.61 18.45 15.49ZM26.27 11.85C26.28 11.62 26.31 11.53 26.44 11.47C26.31 11.53 26.27 11.62 26.27 11.85C26.23 11.89 26.19 11.94 26.14 11.98C26.18 11.94 26.23 11.89 26.27 11.85ZM17.59 5.09C17.49 5.12 17.39 5.14 17.29 5.17C17.39 5.14 17.49 5.11 17.59 5.09Z" fill="#B5691D"/>
</svg>
