<svg width="32" height="32" viewBox="0 0 32 32" fill="none" xmlns="http://www.w3.org/2000/svg">
<path fill-rule="evenodd" clip-rule="evenodd" d="M2 23.9155C2 25.3922 3.21875 26.6364 4.70611 26.6181H10.7845L14.0994 14.2383C14.3976 13.0698 15.4566 12.206 16.7179 12.206H30V7.70197C30 6.2152 28.7984 5.00887 27.314 5H9.04452C7.78317 5 6.72415 5.86437 6.42538 7.03224L2.09821 23.192C2.03372 23.4322 2 23.6665 2 23.9155Z" fill="#00B1EB"/>
<path fill-rule="evenodd" clip-rule="evenodd" d="M30 19.4122V12.2062H16.718C15.4566 12.2062 14.3976 13.07 14.0994 14.2384L10.7845 26.6182H15.5879H20.3961L21.7799 21.4445C22.0781 20.276 23.1377 19.4122 24.3985 19.4122H30Z" fill="#06639B"/>
<path fill-rule="evenodd" clip-rule="evenodd" d="M29.9998 19.4122H24.4143H24.3983C23.1375 19.4122 22.0779 20.276 21.7798 21.4445L20.3959 26.6183H22.7938C24.2942 26.6183 25.7981 26.6183 27.2973 26.6183C28.79 26.6183 29.9998 25.4084 29.9998 23.9163V19.4122Z" fill="#292B5B"/>
</svg>
