<svg width="32" height="32" viewBox="0 0 32 32" fill="none" xmlns="http://www.w3.org/2000/svg">
<path d="M16.0017 28.9814C15.3917 29.0514 14.7817 28.9514 14.1817 28.8614C13.2517 28.7214 12.3417 28.5014 11.4617 28.1614C10.6817 27.8614 9.92171 27.4914 9.21171 27.0414C8.53171 26.6214 7.89171 26.1514 7.30171 25.6214C6.48171 24.8814 5.7817 24.0414 5.1717 23.1214C4.6017 22.2614 4.1417 21.3414 3.7917 20.3714C3.5417 19.6914 3.3717 19.0014 3.2317 18.2914C3.0317 17.3114 2.9717 16.3314 3.0117 15.3414C3.0317 14.8414 3.1317 14.3414 3.2217 13.8414C3.3117 13.3414 3.4317 12.8614 3.5817 12.3814C3.92171 11.2514 4.3917 10.1714 5.0017 9.16139C5.3817 8.54139 5.8317 7.9814 6.2817 7.4214C6.5217 7.1214 6.82169 6.8614 7.10169 6.6014C7.60169 6.1314 8.1317 5.69141 8.7017 5.30141C9.1917 4.96141 9.70171 4.66136 10.2417 4.38136C11.0017 3.99136 11.8117 3.70138 12.6317 3.46138C13.1117 3.32138 13.6017 3.22138 14.1017 3.15138C14.8917 3.04138 15.6917 2.97137 16.4917 3.01137C16.8117 3.02137 17.1217 3.02139 17.4417 3.09139C17.7417 3.15139 18.0717 3.16138 18.3817 3.21138C18.7717 3.27138 19.1517 3.37141 19.5217 3.49141C19.9417 3.63141 20.3617 3.77137 20.7717 3.95137C21.2817 4.17137 21.7817 4.42136 22.2717 4.69136C22.9517 5.07136 23.6017 5.51136 24.2117 6.00136C24.7417 6.43136 25.2417 6.90139 25.6917 7.41139C26.3017 8.10139 26.8017 8.86139 27.2617 9.66139C27.6617 10.3714 27.9917 11.1114 28.2717 11.8714C28.4317 12.3114 28.5517 12.7614 28.6517 13.2314C28.7317 13.5914 28.8317 13.9414 28.8617 14.3114C28.9417 15.2014 29.0717 16.0914 28.9317 17.0014C28.8517 17.5014 28.8217 18.0014 28.7217 18.5014C28.5717 19.2214 28.3717 19.9214 28.1117 20.6114C27.7717 21.5114 27.3317 22.3614 26.8017 23.1614C26.4717 23.6614 26.1117 24.1414 25.7117 24.5814C25.2117 25.1314 24.6917 25.6614 24.1017 26.1214C23.6317 26.4914 23.1517 26.8414 22.6317 27.1514C22.0617 27.4914 21.4717 27.7814 20.8617 28.0314C20.3917 28.2314 19.9017 28.3914 19.4017 28.5314C18.8917 28.6714 18.3717 28.7914 17.8517 28.8614C17.2317 28.9514 16.6217 29.0514 16.0017 28.9814ZM14.7117 3.84139C14.0817 3.81139 13.5617 3.94136 13.0417 4.06136C12.4517 4.19136 11.8817 4.38136 11.3217 4.62136C10.8617 4.81136 10.3917 5.00137 9.96171 5.26137C9.25171 5.68137 8.56169 6.14135 7.94169 6.68135C7.53169 7.04135 7.13171 7.43139 6.77171 7.84139C6.33171 8.33139 5.94169 8.8614 5.60169 9.4214C5.29169 9.9214 4.9917 10.4414 4.7517 10.9814C4.5217 11.4914 4.3217 12.0014 4.1717 12.5314C4.0517 12.9314 3.94169 13.3414 3.88169 13.7514C3.81169 14.2614 3.7317 14.7814 3.7017 15.2914C3.6417 16.1114 3.7117 16.9114 3.8117 17.7214C3.8717 18.1614 3.9617 18.5814 4.0717 19.0114C4.1717 19.4114 4.2817 19.8114 4.4217 20.2014C4.5917 20.7014 4.81171 21.1814 5.05171 21.6614C5.33171 22.2314 5.65171 22.7814 6.05171 23.2814C6.58171 23.9514 7.15169 24.5814 7.78169 25.1514C8.51169 25.8214 9.30169 26.3714 10.1617 26.8514C10.5017 27.0414 10.8617 27.1914 11.2217 27.3414C11.6417 27.5214 12.0817 27.6514 12.5217 27.7814C12.8917 27.8914 13.2717 27.9514 13.6417 28.0214C13.9817 28.0914 14.3317 28.1614 14.6817 28.2014C14.9017 28.2214 15.1217 28.1914 15.3417 28.2214C15.8817 28.3014 16.4117 28.2114 16.9517 28.2514C17.4217 28.2814 17.9017 28.1814 18.3817 28.0914C18.9517 27.9914 19.5117 27.8314 20.0617 27.6514C21.1117 27.3014 22.0817 26.8014 22.9917 26.1814C23.5917 25.7714 24.1617 25.3214 24.6717 24.8114C25.0517 24.4214 25.3917 24.0114 25.7317 23.5914C26.1817 23.0414 26.5717 22.4514 26.9017 21.8214C27.1217 21.4214 27.2917 21.0014 27.4717 20.5814C27.7117 20.0114 27.9017 19.4214 28.0317 18.8214C28.1917 18.1314 28.3017 17.4214 28.3317 16.7114C28.3617 16.1214 28.3517 15.5214 28.2917 14.9314C28.2317 14.2914 28.1317 13.6614 27.9617 13.0414C27.8317 12.5314 27.6817 12.0214 27.5017 11.5314C27.1817 10.6514 26.7217 9.86139 26.2017 9.09139C25.7817 8.47139 25.3017 7.90141 24.7817 7.36141C23.9617 6.52141 23.0117 5.85137 22.0017 5.26137C21.3317 4.87137 20.6217 4.56138 19.8917 4.33138C19.4517 4.19138 19.0017 4.08141 18.5417 3.99141C17.8617 3.86141 17.1817 3.81139 16.5017 3.78139C15.8517 3.73139 15.2417 3.78139 14.7117 3.84139Z" fill="#C99204"/>
<path d="M17.2017 12.3114C17.4317 12.1014 17.5317 11.8514 17.7017 11.6414C18.0517 11.2214 18.4317 10.8514 18.8617 10.5214C19.3217 10.1614 19.8317 9.89143 20.3817 9.71143C20.8617 9.56143 21.3517 9.42144 21.8717 9.40144C22.4817 9.37144 23.0717 9.47144 23.6417 9.65144C23.9417 9.74144 24.2617 9.79143 24.5417 9.95143C24.5617 9.96143 24.5817 9.96143 24.6017 9.96143C24.9417 10.1314 24.9417 10.1314 25.0817 9.76142C25.2017 9.41142 25.2017 9.41144 25.5217 9.59144C25.5517 9.61144 25.5817 9.64144 25.6217 9.65144C25.8017 9.71144 25.8017 9.83143 25.7117 9.96143C25.4917 10.3214 25.2717 10.6815 25.0517 11.0415C24.9317 11.2315 24.8117 11.4215 24.7017 11.6115C24.6617 11.6815 24.6317 11.6914 24.5717 11.6514C24.0417 11.3214 23.4617 11.0814 22.8617 10.9514C22.2917 10.8314 21.7017 10.7714 21.1017 10.8314C20.6917 10.8714 20.2817 10.9215 19.8817 11.0515C18.9317 11.3615 18.0817 11.8414 17.3517 12.5314C17.2517 12.6214 17.2117 12.7315 17.2217 12.8615C17.2317 13.8715 17.2417 14.8814 17.2517 15.9014C17.2517 16.0614 17.2017 16.2214 17.2617 16.4014C17.3817 16.2914 17.4117 16.1414 17.4617 16.0214C17.7817 15.1514 18.3117 14.4414 19.0617 13.9014C19.9017 13.2914 20.8417 12.9214 21.9117 13.0214C23.0517 13.1214 24.0517 13.5714 24.9017 14.3214C25.3717 14.7314 25.7117 15.2614 25.9517 15.8414C26.2417 16.5314 26.3717 17.2415 26.3017 17.9815C26.2317 18.6515 26.0617 19.3014 25.7117 19.8914C25.1217 20.8714 24.2717 21.5514 23.2017 21.9514C22.5817 22.1814 21.9517 22.2715 21.2817 22.1715C20.7417 22.0915 20.2217 21.9714 19.7417 21.7214C19.1717 21.4214 18.6717 21.0415 18.2517 20.5515C18.1117 20.3815 17.9717 20.2114 17.8217 20.0314C17.9917 19.9214 18.1617 19.9514 18.3417 19.9714C18.6017 20.0014 18.7817 20.1614 18.9717 20.3214C19.4117 20.6814 19.9117 20.9114 20.4917 20.9614C20.6817 20.9814 20.8717 20.9214 21.0317 20.9614C21.3017 21.0214 21.5317 20.9414 21.7917 20.9114C22.1917 20.8714 22.5317 20.6914 22.8617 20.5014C23.3817 20.2014 23.7817 19.7814 24.0617 19.2514C24.3817 18.6314 24.5017 17.9814 24.4317 17.2814C24.3517 16.4314 24.0017 15.7214 23.3817 15.1414C22.8617 14.6614 22.2417 14.3414 21.5417 14.2814C21.0117 14.2314 20.4717 14.2215 19.9517 14.4215C19.4417 14.6215 19.0017 14.9115 18.6317 15.3015C18.2317 15.7215 17.9517 16.2015 17.7617 16.7315C17.7217 16.8415 17.6417 16.8314 17.5617 16.8314C17.2417 16.8514 17.2417 16.8514 17.2417 17.1814C17.2417 18.1914 17.2717 19.2014 17.2317 20.2114C17.2217 20.5514 17.3817 20.7115 17.5717 20.9215C18.0917 21.5115 18.5217 22.1515 18.3817 22.9915C18.2917 23.5515 17.9517 23.9914 17.4717 24.2814C16.9217 24.6114 16.3117 24.7314 15.6517 24.6014C15.0017 24.4714 14.4017 24.2114 13.7717 24.0614C13.4217 23.9814 13.0917 24.0515 12.7617 24.1715C12.4017 24.3115 12.0717 24.5014 11.8317 24.8214C11.7917 24.8714 11.7717 24.8714 11.7117 24.8414C11.1417 24.5414 10.5117 24.4714 9.8817 24.3814C9.2717 24.2914 8.66171 24.2914 8.05171 24.2614C7.86171 24.2514 7.65172 24.2914 7.43172 24.1614C7.75172 24.0114 8.06172 23.9014 8.37172 23.8114C8.71172 23.7014 9.05172 23.6414 9.40172 23.5614C10.0017 23.4314 10.6017 23.3314 11.2117 23.2814C11.5917 23.2514 11.9817 23.2814 12.3617 23.3414C12.8917 23.4314 13.4317 23.5214 13.9517 23.6514C14.4017 23.7714 14.8517 23.8714 15.3017 23.9614C16.0317 24.1114 16.7217 23.8714 17.1517 23.1914C17.4617 22.6914 17.4517 22.1914 17.1717 21.6814C17.0017 21.3714 16.7317 21.1714 16.4217 21.0314C15.9817 20.8214 15.5117 20.7514 15.0217 20.7514C14.3517 20.7514 13.7817 20.9814 13.2817 21.4014C13.1517 21.5114 13.0117 21.6214 12.9117 21.7714C12.8517 21.8614 12.7817 21.8715 12.6917 21.7915C12.1417 21.3315 11.4817 21.0714 10.8117 20.8514C10.2317 20.6514 9.62171 20.5114 9.08171 20.2114C8.43171 19.8614 7.95171 19.3515 7.74171 18.6115C7.67171 18.3615 7.5717 18.1114 7.5417 17.8414C7.5317 17.7614 7.47172 17.7214 7.40172 17.6914C6.90172 17.4214 6.44171 17.0714 6.06171 16.6614C5.75171 16.3314 5.53171 15.9314 5.34171 15.5114C5.26171 15.3314 5.2017 15.1514 5.1317 14.9714C5.1217 14.9414 5.09171 14.9114 5.11171 14.8814C5.20171 14.8014 5.31171 14.8414 5.41171 14.8414C5.47171 14.8414 5.54171 14.8115 5.58171 14.9215C5.79171 15.4615 6.14171 15.8914 6.61171 16.2214C6.91171 16.4314 7.2317 16.6214 7.5717 16.7614C7.6617 16.8014 7.65171 16.7314 7.67171 16.7014C7.80171 16.4314 7.92171 16.1614 8.05171 15.9014C8.39171 15.2314 8.83171 14.6514 9.49171 14.2814C9.55171 14.2514 9.62172 14.1815 9.68172 14.2415C9.75172 14.3115 9.6717 14.3914 9.6317 14.4514C9.4717 14.6514 9.3017 14.8314 9.1317 15.0214C8.8817 15.2914 8.74172 15.6214 8.59172 15.9514C8.48172 16.1914 8.43171 16.4514 8.33171 16.7014C8.27171 16.8614 8.3217 16.9414 8.4717 16.9314C9.0417 16.8614 9.6317 16.8414 10.1617 16.5814C10.6917 16.3114 11.0917 15.9115 11.4117 15.4215C11.7317 14.9315 11.8717 14.3815 11.8817 13.8015C11.8817 13.2415 11.7517 12.6815 11.5017 12.1715C11.0717 11.3015 10.3417 10.7814 9.43172 10.5214C8.99172 10.3914 8.53171 10.4315 8.08171 10.4915C7.70171 10.5415 7.3417 10.6515 7.0117 10.8615C6.8417 10.9715 6.7217 10.9114 6.6317 10.7514C6.4817 10.4614 6.2717 10.2015 6.1017 9.92146C6.0417 9.82146 6.06171 9.77144 6.14171 9.72144C6.25171 9.65144 6.3517 9.56141 6.4617 9.50141C6.6417 9.40141 6.73171 9.45144 6.78171 9.65144C6.88171 10.0814 6.8817 10.0714 7.2917 9.89143C7.9317 9.62143 8.58171 9.35141 9.30171 9.37141C9.89171 9.39141 10.4517 9.52142 10.9917 9.76142C11.5917 10.0214 12.1217 10.3914 12.5417 10.8914C12.9517 11.3814 13.2717 11.9114 13.4717 12.5214C13.7217 13.2814 13.7117 14.0514 13.5317 14.8114C13.3917 15.4014 13.1117 15.9315 12.7517 16.4215C12.4417 16.8415 12.0717 17.1814 11.6417 17.4614C11.3117 17.6814 10.9517 17.8414 10.5517 17.9414C10.1017 18.0514 9.65172 18.1714 9.18172 18.1614C9.02172 18.1614 8.8717 18.1114 8.7217 18.0814C8.5017 18.0414 8.4317 18.1014 8.4817 18.3114C8.5717 18.7314 8.78171 19.0814 9.17171 19.2814C9.59171 19.5014 10.0617 19.6114 10.5217 19.7214C11.2017 19.8814 11.8817 20.0514 12.5017 20.3914C12.6617 20.4814 12.8217 20.5915 12.9417 20.7315C13.0817 20.8915 13.1317 20.8915 13.2917 20.7415C13.7317 20.3615 14.2417 20.1414 14.8117 20.0314C14.8817 20.0214 14.9517 20.0015 15.0217 19.9915C15.3817 19.9515 15.3817 19.9514 15.3817 19.5914C15.3817 16.8314 15.3817 14.0714 15.3817 11.3114C15.3817 10.7214 15.3917 10.1214 15.3917 9.53144C15.3917 9.36144 15.5317 9.37141 15.6417 9.37141C15.9417 9.37141 16.2417 9.39144 16.5317 9.40144C16.6917 9.40144 16.8417 9.41144 17.0017 9.40144C17.1517 9.39144 17.2117 9.45145 17.2117 9.60145C17.2117 10.4014 17.2117 11.2015 17.2217 11.9915C17.2017 12.0915 17.2017 12.1714 17.2017 12.3114Z" fill="#C99204"/>
<path d="M16.2517 8.76134C16.0717 8.12134 15.9017 7.52136 15.7317 6.91136C15.6417 6.58136 15.5417 6.24136 15.4517 5.91136C15.4217 5.81136 15.4417 5.77134 15.5517 5.76134C16.0117 5.70134 16.4617 5.74133 16.9217 5.75133C17.1217 5.75133 17.1117 5.87138 17.0817 5.99138C17.0317 6.19138 16.9817 6.39135 16.9217 6.59135C16.7817 7.09135 16.6517 7.59135 16.4917 8.09135C16.4217 8.30135 16.3917 8.54134 16.2517 8.76134Z" fill="#C99204"/>
</svg>
