<svg width="32" height="32" viewBox="0 0 32 32" fill="none" xmlns="http://www.w3.org/2000/svg">
<rect width="32" height="32" fill="#FF0000"/>
<path d="M24.4079 17.8003C24.4079 18.9915 24.4079 20.1827 24.4079 21.42C24.685 21.2353 24.8789 21.0045 25.1005 20.8014C25.359 20.5613 25.6084 20.3027 25.8484 20.0534C25.9408 19.9611 26.0239 19.878 26.1532 19.878C26.7165 19.878 27.2705 19.878 27.8892 19.878C27.5106 20.3581 27.1043 20.7367 26.7164 21.1245C26.4856 21.3554 26.3102 21.6232 26.0424 21.8171C25.8946 21.9279 25.9962 22.0572 26.0609 22.1403C26.6241 22.8329 27.1135 23.5716 27.6399 24.2918C27.7507 24.4488 27.9261 24.5596 28 24.7997C27.4367 24.7997 26.8734 24.7997 26.3194 24.7997C26.1624 24.7997 26.1532 24.6335 26.0885 24.5504C25.7653 24.1072 25.4606 23.6362 25.1559 23.1745C25.0728 23.0545 24.9712 22.8144 24.842 22.8883C24.6573 22.9991 24.3987 23.1376 24.3987 23.4146C24.3895 23.8025 24.3895 24.181 24.3987 24.5689C24.408 24.7443 24.3433 24.809 24.1679 24.7997C23.7708 24.7905 23.3737 24.7813 22.9859 24.7997C22.7551 24.809 22.7181 24.735 22.7181 24.5227C22.7274 22.288 22.7181 20.0534 22.7181 17.8187C23.2814 17.8003 23.8447 17.8003 24.4079 17.8003Z" fill="white"/>
<path d="M8.84857 21.3739C9.2641 21.5494 9.59653 21.771 9.71657 22.1681C9.9936 23.0638 9.76277 24.2642 8.70085 24.6151C8.34072 24.7351 7.98059 24.7906 7.60199 24.7906C6.50314 24.7813 5.39504 24.7813 4.29618 24.7906C4.07457 24.7906 3.99145 24.7536 4.00069 24.5043C4.00992 22.4636 4.00992 20.4321 4.00069 18.3914C4.00069 18.1882 4.02842 18.1051 4.25927 18.1051C5.34889 18.1236 6.4385 18.1051 7.53735 18.1143C7.93441 18.1143 8.34067 18.1605 8.71004 18.336C9.39336 18.6684 9.62421 19.3702 9.57804 20.0535C9.55034 20.5706 9.39338 21.06 8.84857 21.3739ZM6.6601 21.9834C6.39231 21.9834 6.12452 21.9926 5.8475 21.9834C5.72746 21.9834 5.68129 22.0203 5.68129 22.1404C5.68129 22.5744 5.68128 23.0084 5.67205 23.4424C5.67205 23.5624 5.70897 23.6178 5.82901 23.6086C6.39229 23.5809 6.96484 23.6455 7.53735 23.5624C8.03599 23.4885 8.14679 23.0822 8.10986 22.5836C8.09139 22.2881 7.74048 21.9834 7.39882 21.9834C7.15873 21.9741 6.90942 21.9834 6.6601 21.9834ZM6.48465 20.8476C6.72474 20.8384 6.96484 20.8384 7.19569 20.8107C7.75897 20.7368 7.97136 20.4043 7.83285 19.8411C7.75897 19.5456 7.62044 19.3794 7.28801 19.3517C6.98329 19.324 6.68782 19.3148 6.39233 19.3148C5.69055 19.3148 5.69054 19.3147 5.69054 20.0257C5.6813 20.8383 5.68129 20.8384 6.48465 20.8476Z" fill="white"/>
<path d="M16.5498 22.3065C16.5498 21.5771 16.559 20.8475 16.5405 20.1273C16.5405 19.9149 16.6051 19.8595 16.8083 19.8687C17.1407 19.8872 17.4732 19.878 17.8056 19.8687C17.9626 19.8687 18.1011 19.8687 18.1103 20.0811C18.1103 20.3397 18.2488 20.2474 18.3781 20.1735C19.1261 19.7487 19.9017 19.6841 20.7328 19.8872C21.3053 20.0257 21.7116 20.6998 21.7301 21.2723C21.7578 22.3712 21.7393 23.4792 21.7393 24.5781C21.7393 24.7443 21.6839 24.7905 21.5269 24.7813C21.1206 24.772 20.7143 24.7628 20.308 24.7813C20.0956 24.7905 20.0495 24.7074 20.0495 24.5134C20.0587 23.5808 20.0495 22.639 20.0495 21.7063C20.0495 21.2077 19.8832 21.0415 19.3938 21.023C19.0706 21.0138 18.7659 21.0322 18.4704 21.2077C18.2857 21.3185 18.2303 21.457 18.2303 21.6694C18.2396 22.5928 18.2211 23.5162 18.2396 24.4396C18.2488 24.7259 18.1565 24.7905 17.8887 24.772C17.547 24.7443 17.2054 24.7443 16.8637 24.772C16.5867 24.7905 16.5405 24.6889 16.5405 24.4396C16.5498 23.7471 16.5405 23.0268 16.5498 22.3065Z" fill="white"/>
<path d="M13.9827 24.3842C13.1517 24.929 12.3021 25.0675 11.4249 24.772C10.9816 24.6243 10.6585 24.2826 10.5107 23.8024C10.2799 23.0452 10.6954 22.1495 11.4526 21.9002C11.7481 21.7986 12.0621 21.7155 12.3945 21.734C12.7731 21.7525 13.1609 21.7432 13.5488 21.734C13.6688 21.734 13.835 21.8171 13.9088 21.6509C13.9735 21.4939 13.8073 21.1338 13.6411 21.0691C13.4564 21.0045 13.2625 20.9491 13.0686 20.9307C12.4499 20.8845 11.8496 20.9583 11.2587 21.1338C11.1017 21.1799 11.0463 21.1615 11.0555 20.9952C11.0648 20.8475 11.0555 20.709 11.0555 20.5613C11.0555 20.0442 11.0832 20.0257 11.6003 19.9241C12.2744 19.7856 12.9578 19.7671 13.6411 19.8133C14.389 19.8687 15.0447 20.155 15.3771 20.8937C15.4879 21.143 15.5525 21.42 15.5525 21.7063C15.5525 22.6389 15.5433 23.5715 15.5525 24.5134C15.5525 24.7535 15.4786 24.8182 15.2478 24.7997C14.9615 24.7813 14.666 24.7813 14.3798 24.7997C14.1028 24.809 13.9273 24.7443 13.9827 24.3842ZM13.1055 22.7312C12.8839 22.7312 12.6715 22.722 12.4499 22.7312C12.1544 22.7497 12.0158 22.9621 11.9974 23.2207C11.9789 23.47 12.0344 23.7101 12.3299 23.7932C12.7639 23.9225 13.1794 23.867 13.5857 23.6639C13.8996 23.5069 14.0473 23.1745 13.9088 22.8329C13.8257 22.6205 13.5857 22.7682 13.4195 22.7312C13.3179 22.7128 13.2071 22.7312 13.1055 22.7312Z" fill="white"/>
<path d="M4.09297 10.3945C4.09297 9.69272 4.10225 8.98172 4.08378 8.27993C4.08378 8.07678 4.13916 8.00287 4.34231 8.01211C4.70244 8.02134 5.07179 8.03062 5.43192 8.00292C5.68124 7.98445 5.76433 8.04907 5.76433 8.32609C5.74587 9.55422 5.79207 10.7823 5.7459 12.0012C5.70897 13.0262 6.48464 13.4602 7.37111 13.3587C8.29451 13.2571 8.56228 12.7031 8.56228 11.9274C8.57152 10.7085 8.57152 9.49883 8.56228 8.27993C8.56228 8.06755 8.60843 7.99369 8.83005 8.00292C9.22711 8.02139 9.62421 8.01216 10.012 8.00292C10.1782 8.00292 10.2521 8.03985 10.2521 8.22453C10.2429 9.58194 10.2798 10.9486 10.2336 12.306C10.1967 13.3679 9.67039 14.1066 8.64541 14.5129C7.74971 14.8731 6.83549 14.91 5.93978 14.6422C4.8317 14.3098 4.0376 13.5803 4.07454 12.1952C4.10224 11.595 4.09297 10.9947 4.09297 10.3945Z" fill="white"/>
<path d="M11.2586 12.2136C11.2586 11.4748 11.2678 10.7361 11.2586 9.99736C11.2586 9.80345 11.314 9.73879 11.5079 9.74803C11.7757 9.75726 12.0435 9.74803 12.3205 9.74803C12.4775 9.74803 12.6068 9.7296 12.653 9.96045C12.6899 10.1451 12.93 10.1636 13.0685 10.0713C13.7057 9.64649 14.4167 9.61874 15.1277 9.68338C15.8941 9.75725 16.3927 10.2836 16.4389 11.1516C16.4943 12.2505 16.4482 13.3493 16.4574 14.4574C16.4574 14.6236 16.402 14.6698 16.245 14.6698C15.8387 14.6606 15.4324 14.6421 15.0261 14.6606C14.7953 14.6698 14.7768 14.559 14.7768 14.3835C14.7768 13.4694 14.7768 12.5552 14.7675 11.6411C14.7675 11.1147 14.5829 10.9208 14.0381 10.9208C13.8719 10.9208 13.6964 10.9023 13.5487 10.9485C13.0224 11.1147 12.9577 11.2347 12.9577 11.7888C12.9577 12.6568 12.9485 13.534 12.9577 14.402C12.9577 14.6052 12.9023 14.6698 12.6991 14.6606C12.3021 14.6421 11.905 14.6421 11.5172 14.6513C11.3233 14.6605 11.2679 14.5867 11.2771 14.402C11.2586 13.691 11.2586 12.9523 11.2586 12.2136Z" fill="white"/>
<path d="M20.4834 12.749C19.9848 12.749 19.4861 12.7583 18.9875 12.749C18.729 12.7398 18.7474 12.8414 18.8213 13.0261C18.9506 13.3401 19.2276 13.497 19.5231 13.5524C20.2434 13.6817 20.9636 13.691 21.6654 13.4693C21.8778 13.4047 21.9517 13.4601 21.9424 13.6817C21.9332 13.7925 21.9424 13.9125 21.9424 14.0234C21.9424 14.4758 21.8593 14.5959 21.4068 14.6697C20.8343 14.7621 20.2618 14.8637 19.6801 14.799C19.0891 14.7436 18.5258 14.5682 18.0457 14.2173C17.4362 13.7741 17.2054 13.1184 17.1869 12.3981C17.15 11.4563 17.3993 10.6252 18.2211 10.0527C18.4704 9.87727 18.7382 9.77567 19.0152 9.73873C20.0587 9.61869 21.0837 9.60027 21.8316 10.5329C22.1086 10.8838 22.201 11.3086 22.2379 11.7426C22.3118 12.7583 22.3118 12.7583 21.3053 12.7583C21.019 12.7491 20.7512 12.749 20.4834 12.749ZM19.7817 11.7887V11.798C19.9664 11.798 20.1603 11.8072 20.3449 11.798C20.4927 11.7887 20.6958 11.8811 20.7789 11.7333C20.8713 11.5486 20.7697 11.3548 20.6681 11.1793C20.5296 10.93 20.2988 10.8284 20.031 10.8099C19.874 10.8007 19.717 10.8007 19.56 10.8099C19.0891 10.8192 18.7475 11.1701 18.7382 11.6318C18.7382 11.761 18.8029 11.7887 18.9137 11.7887C19.1999 11.7887 19.4954 11.7887 19.7817 11.7887Z" fill="white"/>
<path d="M22.4595 9.75735C23.0782 9.75735 23.6322 9.75735 24.1863 9.75735C24.3156 9.75735 24.3433 9.88665 24.4079 9.96053C24.6295 10.2468 24.8419 10.533 25.045 10.8193C25.1281 10.9393 25.202 10.9578 25.3036 10.8285C25.516 10.5423 25.7376 10.256 25.95 9.96053C26.0239 9.84972 26.107 9.74811 26.2363 9.75735C26.7811 9.80352 27.3259 9.71118 27.9169 9.75735C27.6029 10.1729 27.3074 10.5607 27.0211 10.9393C26.7534 11.2902 26.5041 11.6503 26.227 11.992C26.107 12.1397 26.1162 12.2321 26.2363 12.3798C26.7718 13.0632 27.2889 13.765 27.8153 14.4575C27.8614 14.5129 27.9538 14.5499 27.8891 14.633C27.8614 14.6699 27.7783 14.6699 27.7229 14.6699C27.2428 14.6699 26.7718 14.6514 26.2917 14.6606C26.1809 14.6606 26.1347 14.6144 26.0701 14.5313C25.8392 14.2174 25.5991 13.9035 25.359 13.5987C25.239 13.4418 25.1282 13.4048 24.9989 13.5895C24.768 13.9219 24.5279 14.2359 24.2971 14.5683C24.2509 14.6422 24.214 14.6791 24.1309 14.6791C23.5768 14.6791 23.0136 14.6791 22.4041 14.6791C22.6627 14.2821 22.912 13.9681 23.1613 13.6449C23.4937 13.2201 23.7985 12.7676 24.1309 12.3429C24.2325 12.2136 24.2325 12.1675 24.1401 12.0382C23.6877 11.4564 23.2536 10.8562 22.8104 10.2652C22.7088 10.1082 22.6073 9.96973 22.4595 9.75735Z" fill="white"/>
</svg>
