<svg width="32" height="32" viewBox="0 0 32 32" fill="none" xmlns="http://www.w3.org/2000/svg">
<g clip-path="url(#clip0_395_37710)">
<path d="M16.2559 47.9078C15.7713 46.8355 15.5189 45.6738 15.5148 44.498C15.4572 43.7717 15.5846 43.0427 15.8854 42.3784L14.4959 42.6549C14.1253 43.1157 13.9401 43.3922 13.9401 43.5765L14.5885 43.3922C14.7738 43.3922 14.8664 43.6686 14.959 43.8529C14.959 44.498 14.0327 44.498 13.8474 44.7745C13.4769 46.0647 14.5885 46.8941 14.7738 47.9078H16.2559ZM66 31.3196C65.957 25.5678 63.6255 20.0673 59.5157 16.0216C57.663 14.1784 55.8103 13.349 54.1429 11.598C53.3843 10.8473 52.758 9.97504 52.2903 9.01765C51.7625 8.44848 51.1346 7.98001 50.4376 7.63529L50.9008 8.74118H50.7155C50.0354 8.6953 49.3871 8.43732 48.8628 8.00392L49.4186 7.45098C49.326 7.26667 48.8628 7.26667 48.6776 7.26667C46.547 6.89804 44.6943 8.00392 42.6564 8.37255V8.64902C43.9533 9.01765 44.2312 10.5843 44.8796 11.4137H45.6207L46.547 11.598C46.5222 11.3445 46.4597 11.0961 46.3617 10.8608C46.4049 10.8036 46.4608 10.7571 46.5251 10.7251C46.5894 10.6931 46.6604 10.6765 46.7323 10.6765C46.8042 10.6765 46.8751 10.6931 46.9394 10.7251C47.0037 10.7571 47.0596 10.8036 47.1028 10.8608C47.7512 11.2294 48.6776 10.5843 49.326 11.598C48.5648 11.5106 47.7943 11.6383 47.1028 11.9667C47.1028 12.151 47.4733 12.3353 47.3807 12.6118C46.7323 12.3353 45.9912 12.6118 45.7133 12.151H45.528C46.3772 13.0943 47.4647 13.7943 48.6776 14.1784C50.345 14.4549 51.8271 13.6255 53.4019 14.0863C56.381 15.6214 58.8852 17.9324 60.6472 20.7728C62.4091 23.6132 63.3628 26.8763 63.4063 30.2137C63.4063 39.6137 57.9409 43.3922 54.6061 43.3922C53.8681 43.3541 53.1584 43.0973 52.5682 42.6549C53.036 40.9753 53.2545 39.2366 53.2166 37.4941C53.2805 32.2096 51.4403 27.0769 48.0291 23.0255C46.6396 21.6431 45.0649 20.4451 43.3975 20.4451C43.0455 20.4036 42.6886 20.4399 42.3523 20.5514C42.0161 20.6629 41.7087 20.8469 41.4522 21.0902C41.1295 21.3569 40.8766 21.6974 40.7153 22.0826C40.554 22.4678 40.4889 22.8863 40.5258 23.302C39.3187 24.0988 37.8986 24.5162 36.45 24.5C34.6818 24.4414 32.9849 23.7922 31.633 22.6569V20.6294C31.2625 20.5373 29.9656 19.7078 30.7067 19.1549C30.9462 19.273 31.1651 19.4286 31.3551 19.6157C31.3626 18.6736 31.1059 17.7482 30.6141 16.9431C30.254 16.9569 29.8983 16.8604 29.5951 16.6667C29.1318 16.3045 28.8319 15.7742 28.7614 15.1922C29.2246 15.8373 29.873 15.5608 30.2435 15.9294C29.5951 14.3627 29.873 13.7176 28.6688 11.5059C28.3909 10.3078 27.2793 9.66275 26.4456 8.92549C26.075 8.64902 25.9824 8.28039 25.5192 8.28039C25.0561 8.28039 24.9634 7.45098 24.9634 7.08235C25.2235 7.17728 25.4721 7.30093 25.7045 7.45098C24.9634 5.7 24.4076 3.76471 22.7402 2.84314L22.3697 3.02745H20.3318C20.7163 2.7826 21.1189 2.56695 21.536 2.38235C21.35 2.18469 21.1157 2.03834 20.856 1.95758C20.5962 1.87683 20.3199 1.86442 20.0539 1.92157C19.776 1.92157 19.2202 2.38235 18.757 2.38235H18.6644C18.6644 2.01373 18.5717 1.46078 19.3128 1.27647C18.5466 1.14399 17.7632 1.14399 16.997 1.27647C16.8117 1.82941 16.4412 2.19804 16.4412 2.75098C16.0706 3.02745 15.978 3.39608 15.5148 3.76471C15.6352 2.98266 15.8211 2.212 16.0706 1.46078C15.5148 1.6451 14.8664 2.01373 14.5885 2.01373C13.7202 1.53542 12.7828 1.19347 11.8095 1C12.5506 1.55294 12.18 2.38235 12.2727 3.02745L11.8095 2.84314C11.6242 2.2902 10.9758 1.92157 10.8832 1.27647C10.1848 1.29468 9.50758 1.51924 8.93786 1.92157V2.01373C9.17003 2.06969 9.38832 2.17209 9.57942 2.31468C9.77053 2.45727 9.93045 2.63708 10.0495 2.84314C9.12313 2.84314 8.4747 2.38235 7.641 2.38235L7.45572 2.2902C7.10017 2.47134 6.78508 2.72211 6.52939 3.02745C5.67185 3.68919 5.0278 4.58621 4.67672 5.60784L5.41779 5.7C4.86199 5.88431 4.5841 6.52941 4.12093 6.62157V8.64902C3.59692 9.0274 3.18171 9.53579 2.91669 10.1235C2.31832 12.3766 2.06843 14.7073 2.17563 17.0353C2.14814 17.2064 2.07273 17.3663 1.95804 17.4967C1.84334 17.6271 1.69402 17.7227 1.52719 17.7725V19.8C1.87852 19.4706 2.24975 19.1628 2.63879 18.8784V20.6294C2.17563 20.6294 1.71246 21.2745 1.71246 21.551L1.89772 23.2098C1.87725 23.3693 1.90979 23.5312 1.99036 23.6706C1.99036 23.3941 2.26826 23.2098 2.63879 23.0255C2.84335 22.846 3.10711 22.7476 3.37986 22.749C3.05361 23.197 2.80328 23.6951 2.63879 24.2235L2.26826 24.5922C2.18705 24.7044 2.1245 24.8288 2.083 24.9608C2.63164 27.5232 3.43854 30.0241 4.49146 32.4255C3.14941 34.955 2.15254 37.6513 1.52719 40.4431C0.894846 39.8746 0.0628824 39.5766 -0.788639 39.6137C-1.19604 39.6518 -1.58994 39.779 -1.94223 39.9861C-2.29452 40.1932 -2.59649 40.4751 -2.82657 40.8118C-3.1891 40.6162 -3.60089 40.5295 -4.01196 40.5623C-4.42304 40.595 -4.81573 40.7457 -5.1424 40.9961C-5.50278 41.2334 -5.78921 41.5664 -5.96928 41.9572C-6.14936 42.3481 -6.2159 42.7813 -6.16137 43.2078C-6.67108 43.69 -6.97041 44.3517 -6.99507 45.051C-7.04224 46.0975 -6.74997 47.1314 -6.16137 48H13.2916C13.1456 47.5949 12.9258 47.22 12.6432 46.8941C12.3903 46.0582 12.327 45.1769 12.4579 44.3137C12.8108 43.5331 13.2455 42.7918 13.7548 42.102C13.9401 41.7333 13.7548 41.7333 13.9401 41.6412L14.8664 41.4569C15.3296 41.4569 15.7927 41.0882 16.3485 41.0882C16.8117 41.6412 16.8117 40.7196 17.4601 40.4431C18.0832 40.2634 18.7447 40.2632 19.3678 40.4427C19.9909 40.6221 20.55 40.9738 20.9802 41.4569V41.7333H20.4244C20.049 41.5187 19.6331 41.3834 19.2028 41.3358C18.7725 41.2882 18.3369 41.3294 17.9233 41.4569L17.8307 42.102V42.7471C18.2938 42.7471 18.757 43.3 19.2202 43.4843C19.3974 43.2604 19.6222 43.0783 19.8784 42.9508C20.1346 42.8234 20.4159 42.7538 20.7023 42.7471C20.8924 42.7344 21.0831 42.7608 21.2625 42.8246C21.4419 42.8884 21.6063 42.9882 21.7453 43.1179C21.8843 43.2475 21.995 43.4042 22.0705 43.5782C22.1461 43.7522 22.1849 43.9399 22.1844 44.1294V45.5118C22.7259 45.9515 23.3586 46.2663 24.0371 46.4333C23.9464 46.5932 23.8097 46.7225 23.6447 46.8046C23.4797 46.8866 23.2937 46.9178 23.1108 46.8941H21.9992C21.9065 46.8941 21.6286 46.8941 21.6286 46.4333C21.2733 46.9269 20.9633 47.4512 20.7023 48H35.7089L35.0605 46.802C34.8395 45.9603 34.7458 45.0907 34.7826 44.2216L36.1721 42.3784C37.0058 42.3784 37.6542 42.102 39.0437 41.9176C39.3216 41.549 39.0437 41.3647 40.2479 41.3647C40.878 41.3304 41.5084 41.4244 42.1006 41.6412V42.1941C42.008 42.4706 41.2669 41.9176 40.8964 42.102C40.5258 42.2863 41.0816 42.4706 41.0816 42.7471C41.2669 42.9314 39.8774 42.4706 39.8774 42.4706L39.5069 43.3922L40.2479 44.3137C40.5258 44.5902 39.8774 45.051 39.8774 45.4196C39.5995 45.2353 39.1363 44.8667 39.1363 45.051C39.0088 46.0288 38.9469 47.014 38.9511 48H40.3406L40.5258 45.7882C40.6185 44.498 42.1932 42.1941 43.1196 42.1941C43.6024 42.2265 44.0598 42.4216 44.4164 42.7471C44.6017 43.2078 45.2501 43.4843 45.2501 43.6686C45.2501 43.8529 44.8796 44.1294 44.3238 44.1294C44.0459 44.1294 44.0459 43.7608 43.6754 43.4843L42.8417 44.2216C42.8417 44.2216 43.768 45.051 43.768 45.5118C43.8015 45.7481 43.7768 45.9889 43.6962 46.2136C43.6155 46.4384 43.4812 46.6402 43.3048 46.802L42.4711 45.2353C42.1006 45.2353 41.5448 46.0647 41.5448 46.4333C41.5448 46.802 41.1743 47.1706 41.1743 48H49.1407C50.0666 47.9725 50.9658 47.685 51.7345 47.1706H53.3092C54.791 47.225 56.2674 46.9655 57.6408 46.4095C59.0142 45.8534 60.2532 45.0134 61.2757 43.9451C64.1473 40.9039 66 36.0196 66 31.3196ZM38.21 43.0235L36.9131 43.1157C37.0906 43.2173 37.2365 43.3658 37.3346 43.5447C37.4327 43.7235 37.4792 43.9259 37.4689 44.1294C37.4565 44.3416 37.4009 44.5491 37.3053 44.7392C37.2098 44.9293 37.0763 45.0981 36.9131 45.2353C36.6352 44.9588 36.6352 44.498 36.3573 44.1294C36.1721 44.1294 35.9868 44.7745 35.9868 45.051C36.0546 46.0646 36.3728 47.0459 36.9131 47.9078H38.1174C37.9193 46.8735 37.7955 45.8264 37.7468 44.7745C37.8047 44.14 37.961 43.5183 38.21 42.9314V43.0235ZM21.2581 44.5902C21.2581 44.0373 20.8876 43.9451 20.3318 43.9451C20.0539 43.9451 19.4981 44.3137 19.4981 44.5902L19.3128 47.9078H20.1465C20.6107 46.8036 20.9825 45.6631 21.2581 44.498V44.5902ZM18.4791 44.4059L17.3675 43.3922C17.0896 43.3922 16.7191 44.1294 16.7191 44.4059C16.7386 45.6009 16.9578 46.7843 17.3675 47.9078H18.2938L18.4791 44.4059ZM52.2903 12.151C52.1871 11.9149 52.0197 11.7121 51.8069 11.5656C51.5941 11.4191 51.3445 11.3345 51.086 11.3216C50.7155 10.8608 50.1597 10.2157 49.6965 10.2157C50.0671 10.2157 50.6229 9.7549 51.2713 9.7549L52.1976 11.3216L52.2903 12.151ZM48.3997 9.38628H47.0102C46.7323 9.01765 46.3617 9.38628 46.0838 9.38628C45.8059 9.38628 45.7133 9.38627 45.1575 9.01765C45.8164 8.94572 46.45 8.72508 47.0102 8.37255C47.566 8.74118 48.0291 8.92549 48.3997 9.38628ZM45.3428 24.1314C44.6758 23.7762 43.9568 23.5274 43.2122 23.3941C42.64 23.4699 42.0974 23.6922 41.6374 24.0392C41.2669 23.5784 41.9153 22.5647 42.4711 22.1961C42.6119 22.1152 42.7717 22.0726 42.9343 22.0726C43.0969 22.0726 43.2566 22.1152 43.3975 22.1961C43.3975 23.0255 44.3238 22.6569 44.8796 22.8412C45.1154 23.2044 45.2731 23.6124 45.3428 24.0392V24.1314ZM45.1575 25.9745L43.8606 25.7902C43.4985 25.7743 43.1383 25.8507 42.8141 26.0119C42.49 26.1732 42.2125 26.4141 42.008 26.7118C41.9104 26.5436 41.859 26.3529 41.859 26.1588C41.859 25.9647 41.9104 25.774 42.008 25.6059C42.4135 25.1309 42.9684 24.8062 43.5827 24.6843C43.9719 24.6556 44.358 24.7716 44.6661 25.01C44.9742 25.2484 45.1823 25.5921 45.2501 25.9745H45.1575ZM48.1218 28.7392C47.0739 28.1412 45.9004 27.7941 44.6943 27.7255C43.7759 27.9189 42.9179 28.3299 42.1932 28.9235L41.9153 27.7255C42.6564 27.6333 42.6564 26.9882 43.2122 26.9882L44.5091 26.8961C44.8796 26.8961 45.0649 26.6196 45.1575 26.6196C45.8059 26.6196 45.528 27.2647 45.9912 27.2647C46.4544 27.2647 46.6396 26.9882 46.9175 26.9882C47.566 26.9882 48.0291 28.002 48.1218 28.8314V28.7392ZM48.5849 31.5039C47.6586 31.5039 46.7323 31.3196 46.6396 30.951C46.547 30.5824 46.6396 30.2137 45.9912 30.2137C45.7133 30.2137 45.3428 30.5824 45.3428 30.5824C45.0649 30.6745 44.4164 30.2137 44.4164 30.5824C44.4164 31.2274 43.8606 31.5039 43.2122 31.5039C42.9542 31.5004 42.7005 31.4373 42.4711 31.3196V30.0294C44.1385 30.0294 44.0459 29.5686 44.787 29.5686C45.2501 29.5686 45.6207 29.8451 45.9912 29.8451C46.6396 29.8451 46.2691 29.5686 46.9175 29.5686C47.566 29.5686 47.8439 30.0294 48.2144 30.2137C48.2144 30.5824 48.5849 31.1353 48.5849 31.5961V31.5039ZM47.3807 34.2686C47.0102 34.2686 46.0838 34.0843 46.0838 33.7157C46.0838 33.3471 45.8059 33.0706 45.1575 33.0706C44.6152 33.1025 44.0824 33.2272 43.5827 33.4392C43.3509 33.1623 43.1634 32.8515 43.0269 32.5176C43.5872 32.2776 44.1805 32.1222 44.787 32.0569C45.7133 32.0569 46.6396 32.0569 46.6396 32.4255C46.6396 32.7941 47.3807 33.0706 47.3807 34.3608V34.2686ZM24.9634 14.3627L24.7782 15.6529L23.6666 15.9294L24.315 13.1647C24.5895 13.5299 24.8081 13.9337 24.9634 14.3627ZM49.8818 38.8765C49.9307 39.4666 49.7665 40.0548 49.4186 40.5353L48.6776 39.4294C48.9555 38.9686 48.9555 38.5078 49.326 37.8627L49.8818 38.8765ZM46.7323 37.2176C45.8059 37.2176 46.3617 35.3745 44.5091 35.3745C44.1385 35.3745 43.8606 36.0196 43.3975 36.1118V35.1902C43.4305 34.986 43.5162 34.7938 43.646 34.6323C43.7759 34.4708 43.9456 34.3455 44.1385 34.2686C45.0649 34.2686 44.787 34.6373 45.528 34.8216C45.8994 35.0263 46.3095 35.1518 46.7323 35.1902V37.2176ZM38.6732 29.9373C37.5616 29.2922 36.8205 28.0941 35.8942 26.9882C36.8205 26.9882 37.191 28.002 37.9321 28.1863C38.2093 28.4 38.4583 28.6477 38.6732 28.9235V29.9373ZM27.6498 20.4451C26.9087 20.4451 26.5382 20.0765 26.075 19.3392C26.0167 18.8494 26.0167 18.3545 26.075 17.8647C26.3529 18.4176 26.3529 18.602 26.6308 18.8784C27.094 18.602 27.094 19.2471 27.2793 19.4314C27.4591 19.7462 27.5844 20.0889 27.6498 20.4451ZM48.9555 42.2863C48.7884 42.5079 48.6629 42.7576 48.5849 43.0235C48.5849 42.3784 47.7512 42.0098 47.2881 40.9961L47.7512 40.0745C48.0016 40.1955 48.2176 40.377 48.3794 40.6024C48.5412 40.8277 48.6437 41.0898 48.6776 41.3647C48.6054 41.542 48.6054 41.7403 48.6776 41.9176C48.6776 41.9176 48.9555 41.9176 48.9555 42.2863ZM46.3617 38.6C46.3212 39.0396 46.2279 39.4727 46.0838 39.8902C45.1575 39.798 45.1575 38.7843 45.1575 38.6C44.5091 37.8627 43.5827 38.5078 43.0269 38.5078C42.749 37.7706 43.1196 37.7706 43.1196 37.2176C43.4901 37.2176 43.8606 36.9412 44.2312 37.2176C44.8796 36.9412 45.1575 37.5863 45.8986 37.5863C46.0283 37.9348 46.1831 38.2736 46.3617 38.6ZM39.8774 33.3471C39.8774 33.9 39.5995 34.2686 39.7848 34.8216C39.5069 33.9922 38.9511 33.2549 38.7658 32.5176C38.7658 32.3333 38.5805 32.3333 38.8584 32.2412C39.1363 32.149 39.5069 32.2412 39.5069 32.3333C39.6962 32.6101 39.8226 32.9246 39.8774 33.2549V33.3471ZM28.5761 23.2098C28.4835 23.7627 27.9277 23.2098 27.8351 23.2098H26.6308C26.5382 23.0255 26.3529 22.9333 26.3529 22.6569C26.9087 22.5647 27.2793 22.2882 27.6498 22.5647C28.0203 22.8412 28.2056 23.302 28.5761 23.302V23.2098ZM31.3551 26.1588C31.0388 26.3775 30.6591 26.487 30.2742 26.4703C29.8894 26.4537 29.5206 26.3119 29.2246 26.0667L30.2435 25.6059C30.6185 25.8426 31.0235 26.0285 31.4478 26.1588H31.3551ZM38.0247 33.4392L37.9321 36.0196C37.5616 36.0196 37.5616 35.7431 37.5616 35.1902C37.4024 34.4676 37.1856 33.7589 36.9131 33.0706C36.4981 32.0206 36.0026 31.0039 35.431 30.0294C35.3384 29.4765 34.6899 29.2922 34.1341 28.8314C34.4647 28.7852 34.8015 28.8108 35.1213 28.9062C35.441 29.0016 35.7363 29.1647 35.9868 29.3843C35.9868 29.6608 36.1721 29.7529 36.5426 30.1216C37.4689 30.1216 37.191 31.3196 37.9321 31.8725L37.191 32.702C37.5616 32.9784 37.9321 33.0706 38.1174 33.4392H38.0247ZM33.0225 29.6608C33.0225 30.0294 32.7446 30.1216 32.4667 30.398C32.2556 30.1224 32.0985 29.8098 32.0036 29.4765C31.9929 29.0693 32.0557 28.6636 32.1888 28.2784C32.4667 28.7392 33.0225 29.2 33.0225 29.6608ZM45.0649 41.2725L44.787 41.549C44.2437 41.2725 43.6361 41.1452 43.0269 41.1804C43.0269 40.6274 42.6564 39.9824 42.3785 39.9824C41.6374 39.9824 41.7301 40.5353 41.0816 40.5353L42.2859 39.3373C42.3785 39.0608 42.3785 39.0608 42.6564 39.0608C43.0269 39.3373 43.2122 39.5216 43.5827 39.5216C43.6 39.771 43.5685 40.0213 43.4901 40.2588C43.8606 40.5353 44.0459 40.0745 44.3238 40.5353C44.6943 40.7196 45.0649 40.8118 45.0649 41.3647V41.2725ZM34.5973 32.4255C34.5973 32.6098 34.2268 32.8863 34.1341 32.8863C33.7627 32.56 33.4766 32.1489 33.3004 31.6882C33.2954 31.2025 33.4235 30.7246 33.671 30.3059L34.1341 30.4902C34.3194 30.4902 34.1341 31.0431 34.2268 31.4118C34.6899 31.6882 34.9678 32.149 34.6899 32.4255H34.5973ZM24.7782 20.0765C23.1874 19.1775 21.4153 18.6424 19.5907 18.5098C19.6392 18.8198 19.6073 19.137 19.4981 19.4314C21.0005 20.0572 22.4044 20.8953 23.6666 21.9196V23.1176C22.5116 21.7383 21.0091 20.6888 19.3128 20.0765C19.3128 20.3529 18.757 20.6294 18.6644 21.1824C17.7817 20.45 16.7321 19.9437 15.6075 19.7078C15.2369 19.7078 15.0517 18.3255 15.0517 18.3255C15.3508 18.2201 15.6224 18.0495 15.8468 17.8263C16.0712 17.6031 16.2426 17.3329 16.3485 17.0353H16.8117C17.1822 17.0353 17.1822 16.851 17.1822 16.3902C17.1822 15.6529 15.5148 15.6529 14.7738 15.6529C14.0421 15.537 13.2925 15.6667 12.6432 16.0216C12.3653 16.0216 12.5506 16.3902 12.5506 16.6667C12.5506 16.9431 12.9211 17.0353 12.9211 17.0353L13.6622 16.851C13.6622 17.5882 13.8474 17.9569 14.5885 18.3255V19.7078C13.2839 19.7857 12.0154 20.1643 10.8832 20.8137C10.5177 20.5686 10.2032 20.2557 9.95683 19.8922C8.43682 20.5398 7.00511 21.3758 5.69569 22.3804V21.4588C6.82951 20.5899 8.07583 19.877 9.40103 19.3392V18.4176C8.84523 18.1412 8.38206 18.4176 7.82626 18.4176C6.751 18.5565 5.72998 18.9692 4.862 19.6157C4.85803 19.3369 4.827 19.0591 4.76936 18.7863C6.17706 17.8997 7.83116 17.4803 9.49367 17.5882V17.1275C9.40103 16.851 9.40103 16.4824 9.12313 16.4824C8.30312 15.7612 7.74885 14.7881 7.54836 13.7176L8.10417 13.5333C7.82627 12.7961 7.54837 10.8608 8.10417 10.2157C7.42135 9.88802 6.84391 9.37739 6.43676 8.74118C6.15362 8.18428 5.93604 7.59673 5.78833 6.9902L6.80729 5.14706C6.9524 5.15521 7.09713 5.12547 7.22712 5.06081C7.35711 4.99615 7.46785 4.89881 7.54836 4.77843C8.19679 4.68627 8.47469 4.04118 9.30839 4.4098C9.78802 4.45996 10.2568 4.58434 10.6979 4.77843C10.6867 4.90047 10.7062 5.02336 10.7547 5.13599C10.8033 5.24862 10.8792 5.34745 10.9758 5.42353C11.8095 5.42353 11.8095 6.25294 12.18 6.89804C12.4827 6.97293 12.7947 7.00397 13.1064 6.9902C14.0327 7.26667 14.5885 7.26667 14.8664 7.54314C15.8559 7.00726 16.9961 6.8128 18.1086 6.9902C18.329 6.48098 18.5147 5.95757 18.6644 5.42353C18.757 5.79216 18.757 5.42353 19.0349 5.42353C19.4981 5.0549 20.1465 4.4098 20.9802 4.68627C21.536 5.0549 22.4623 4.77843 22.9255 5.42353L24.0371 7.26667C23.5739 8.00392 24.0371 9.1098 23.2034 9.47843L22.4623 10.2157C22.1844 10.2157 22.1844 10.4922 21.8139 10.4922C22.1134 11.5041 22.0141 12.5917 21.536 13.5333C21.8139 13.349 22.1844 13.349 22.1844 12.9804V13.902C22.1259 14.6121 21.7941 15.2724 21.2581 15.7451C20.9802 16.4824 20.3318 17.5882 19.4981 17.5882V17.9569C21.3452 17.9814 23.1581 18.456 24.7782 19.3392V20.0765ZM29.9656 28.0941L29.3172 28.3706C28.8305 28.4004 28.3427 28.3343 27.8817 28.1762C27.4207 28.018 26.9956 27.7709 26.6308 27.449C27.1866 27.449 27.8351 26.8039 27.8351 26.8039C28.4218 27.4093 29.1556 27.8537 29.9656 28.0941ZM26.3529 25.2373C25.6119 25.2373 24.7782 25.6059 24.315 24.8686L25.1487 24.0392L26.3529 25.2373ZM36.9131 37.2176C36.9131 37.8627 36.0794 38.6 35.8015 39.1529C36.0794 38.5078 36.0794 37.2176 35.8015 37.2176C35.5236 37.2176 35.0605 37.2176 35.0605 36.9412L35.1531 35.8353C35.1531 35.2824 34.7826 35.0059 34.7826 34.7294C34.7826 33.9922 35.7089 33.8078 35.9868 33.3471C36.0864 33.8941 36.1176 34.4513 36.0794 35.0059C36.0794 35.2824 36.45 36.1118 36.0794 36.7569C36.0794 37.0333 36.9131 36.7569 36.9131 37.2176ZM33.9489 35.8353C33.9489 36.5725 33.3931 37.2176 33.3004 37.9549C33.3353 37.2797 33.1025 36.6179 32.652 36.1118C32.652 35.8353 33.0225 35.8353 32.7446 35.3745C32.7446 35.3745 32.0036 35.0059 32.0036 34.4529C32.0036 33.9 32.4667 33.5314 32.7446 33.1627C32.7446 33.0706 33.3004 33.4392 33.3004 34.2686C33.2908 34.5245 33.2277 34.7756 33.1152 35.0059C33.0225 35.3745 33.8562 35.3745 33.8562 35.8353H33.9489ZM23.296 26.6196C22.6476 26.8039 22.0918 26.1588 21.4434 25.9745C21.2969 25.3492 21.1113 24.7336 20.8876 24.1314C21.4434 24.5 22.6476 24.5 22.3697 25.6059C22.3697 25.9745 22.9255 26.1588 23.296 26.7118V26.6196ZM26.9087 30.3059C26.2684 30.3633 25.625 30.2352 25.0561 29.9373C24.4978 29.7033 23.9934 29.3584 23.5739 28.9235C24.0053 28.6683 24.4741 28.4818 24.9634 28.3706C25.4778 29.1062 26.1026 29.7589 26.8161 30.3059H26.9087ZM5.32517 10.5843L4.39883 10.8608V10.1235C4.66107 9.71866 4.97216 9.34726 5.32517 9.01765V10.5843ZM21.8139 28.3706C21.2581 28.5549 20.3318 28.7392 20.1465 28.1863C19.8782 27.724 19.7369 27.1995 19.7369 26.6657C19.7369 26.1318 19.8782 25.6074 20.1465 25.1451C20.3472 25.8408 20.5019 26.5489 20.6097 27.2647C20.7023 27.7255 21.536 28.002 21.7213 28.3706H21.8139ZM18.1086 21.3667C18.0708 22.3068 17.6731 23.197 16.997 23.8549C16.9666 23.401 16.7687 22.9743 16.4412 22.6569L16.3485 23.0255C16.2314 23.45 16.1386 23.8807 16.0706 24.3157C15.8831 24.4432 15.6686 24.5262 15.4438 24.5581C15.2189 24.5901 14.9897 24.5702 14.7738 24.5V24.1314C14.6681 23.7728 14.6366 23.3966 14.6811 23.0255L14.4959 22.9333C14.1253 23.0255 14.1253 23.302 14.1253 23.5784C13.9234 23.8484 13.7957 24.166 13.7548 24.5C13.3224 24.5209 12.8964 24.3904 12.5506 24.1314V22.9333L12.4579 22.6569L11.8095 23.302C11.5722 23.0234 11.3927 22.7008 11.2814 22.3528C11.1701 22.0048 11.1292 21.6383 11.1611 21.2745C12.1206 20.799 13.1724 20.5363 14.2439 20.5045C15.3154 20.4727 16.3812 20.6725 17.3675 21.0902L18.1086 21.3667ZM24.7782 31.6882H24.315C22.9255 32.149 21.8139 31.3196 20.6097 30.4902C21.3537 30.2322 22.1377 30.1074 22.9255 30.1216L23.296 30.951C23.8153 31.1429 24.3123 31.3901 24.7782 31.6882ZM5.51043 12.3353L4.862 13.0725C5.04727 14.3627 4.49146 15.2843 4.49146 16.3902L3.84303 14.3627C3.95913 13.7761 4.17866 13.2145 4.49146 12.7039L5.51043 12.3353ZM18.757 28.9235C18.1086 28.5549 16.9043 28.3706 17.1822 27.6333C17.3805 27.2098 17.7036 26.8563 18.1086 26.6196C18.1826 27.4203 18.4023 28.201 18.757 28.9235ZM30.7067 42.0098H30.6141C30.3362 41.6412 30.2435 41.3647 29.9656 41.3647C30.3362 39.9824 29.5951 38.7843 29.3172 37.6784V37.2176C29.6877 37.8627 30.7993 38.5078 30.6141 39.1529C30.6959 40.0721 30.7268 40.9951 30.7067 41.9176V42.0098ZM27.7424 37.2176C27.094 37.2176 26.6308 37.2176 26.1677 36.5725C26.075 36.5725 25.8898 36.2039 25.7045 36.4804C25.0561 36.9412 24.4076 36.0196 23.6666 36.2039C23.2953 36.5921 22.8079 36.8507 22.2771 36.9412V36.849C22.2944 36.6284 22.3729 36.417 22.5037 36.238C22.6345 36.0591 22.8126 35.9197 23.0181 35.8353C23.7592 36.0196 24.4076 34.3608 25.2413 35.2824C25.543 35.363 25.8559 35.3941 26.1677 35.3745C27.094 35.8353 27.3719 36.5725 27.7424 37.2176ZM15.8854 26.8039C15.8854 27.7255 15.7927 28.9235 14.8664 29.2922L14.5885 28.002C15.0877 27.6809 15.5266 27.2755 15.8854 26.8039ZM20.1465 32.4255C19.7509 32.7466 19.266 32.9395 18.757 32.9784C17.9468 32.2736 17.2308 31.4683 16.6264 30.5824L18.757 30.951C19.286 31.4064 19.7814 31.8992 20.2391 32.4255H20.1465ZM27.9277 39.798C27.3719 39.4294 26.6308 39.4294 26.3529 38.7843C25.8653 38.6878 25.3668 38.6568 24.8708 38.6922C24.3202 38.7845 23.7609 38.8154 23.2034 38.7843C23.0181 38.7843 23.2034 38.6922 22.9255 38.5078C22.0739 38.6254 21.2721 38.9764 20.6097 39.5216L21.2581 38.0471C21.6348 37.9813 22.0062 37.8889 22.3697 37.7706C22.7918 37.6518 23.2279 37.5898 23.6666 37.5863V37.7706C25.1487 37.7706 26.7235 37.5863 27.7424 38.7843L27.9277 39.798ZM13.1064 28.9235C12.3653 28.1863 11.7169 27.5412 11.7169 26.7118C12.1075 26.6848 12.4966 26.7815 12.8285 26.9882C12.8285 27.6333 13.1064 28.0941 13.1064 28.9235ZM10.6979 25.2373L10.2347 26.8039C9.80196 26.0912 9.48906 25.313 9.30839 24.5L10.6979 25.2373ZM29.2246 42.3784C28.9957 42.8843 28.8098 43.4084 28.6688 43.9451C28.3909 43.1157 28.113 42.0098 27.1866 42.0098C27.1587 41.7806 27.0772 41.5612 26.9484 41.3691C26.8197 41.177 26.6475 41.0177 26.4456 40.9039H25.5192C25.5192 41.3647 26.3529 41.3647 25.7971 42.0098C26.3529 42.3784 26.7235 42.3784 27.0014 42.9314C27.1866 43.3922 27.0014 43.8529 27.094 44.1294L26.3529 44.5902C26.3529 43.9451 26.4456 42.6549 25.6119 42.3784C24.7782 42.6549 24.6855 41.6412 24.1297 41.3647C23.9445 41.3647 23.9445 40.7196 23.4813 40.9961C22.8329 41.3647 22.0918 40.9961 21.4434 41.3647L22.0918 40.2588C22.6476 39.8902 23.1108 40.0745 23.6666 39.8902L24.6855 39.798C25.7225 39.9199 26.7276 40.2324 27.6498 40.7196C27.8766 40.8265 28.0673 40.9967 28.1989 41.2093C28.3304 41.422 28.3971 41.668 28.3909 41.9176C28.5761 41.9176 29.1319 41.9176 29.1319 42.3784H29.2246ZM19.0349 36.3882H18.757C18.2894 36.252 17.8502 36.0336 17.4601 35.7431C17.3656 35.5067 17.3033 35.2587 17.2749 35.0059H18.2938L19.0349 36.3882ZM9.0305 27.1725C8.21071 26.8618 7.50164 26.3167 6.99256 25.6059C6.76739 25.1127 6.64152 24.5805 6.62203 24.0392C6.82032 24.0545 7.01087 24.1224 7.17381 24.2358C7.33674 24.3493 7.46608 24.5042 7.54836 24.6843V24.8686C8.24726 25.5069 8.73229 26.3433 8.93786 27.2647L9.0305 27.1725ZM15.2369 31.7804C15.1443 32.4255 14.6811 32.702 14.0327 33.6235L12.18 34.3608C12.18 33.9922 12.6432 33.8078 12.9211 33.4392C13.2746 33.0097 13.5849 32.5467 13.8474 32.0569C14.2356 31.8136 14.6855 31.6857 15.1443 31.6882L15.2369 31.7804ZM24.6855 44.1294L24.315 44.498C23.9445 44.1294 24.2224 43.1157 23.5739 43.0235C22.9255 42.9314 22.3697 42.3784 22.0918 42.2863L22.6476 42.0098C22.7967 41.9531 22.9616 41.9531 23.1108 42.0098C23.3887 42.1941 23.6666 42.3784 23.6666 42.6549C23.9445 43.0235 24.315 42.6549 24.5929 43.0235C24.7067 43.3835 24.7067 43.7695 24.5929 44.1294H24.6855ZM13.1064 30.7667C12.7358 31.5961 12.2727 32.2412 11.5316 32.6098C10.9209 32.7392 10.2896 32.7392 9.67893 32.6098C10.0495 32.2412 10.42 32.149 10.9758 31.7804L11.9948 30.8588L13.1064 30.7667ZM15.7001 36.6647C15.4819 36.8384 15.2234 36.9547 14.9482 37.003C14.673 37.0513 14.3901 37.0301 14.1253 36.9412L13.3843 35.8353H15.2369L15.7001 36.6647ZM6.2515 26.8961C5.60307 27.5412 4.95463 27.8176 4.76936 28.6471C4.76399 28.262 4.66886 27.8834 4.49146 27.5412C4.59311 27.1682 4.82245 26.8423 5.13989 26.6196L6.2515 26.8961ZM7.73363 28.8314C7.67513 29.5416 7.34328 30.2018 6.80729 30.6745C6.69341 30.8355 6.56967 30.9894 6.43676 31.1353C6.43676 30.3059 6.80729 29.6608 6.80729 29.0157C7.17782 28.8314 7.45573 28.6471 7.73363 28.8314ZM9.58629 30.398L9.0305 32.2412C8.38207 32.702 7.54836 32.5176 6.80729 32.5176C7.73363 32.2412 8.56733 31.1353 9.0305 30.398H9.49367H9.58629ZM10.2347 36.849L10.0495 38.8765C9.86419 37.9549 9.12312 37.0333 8.38206 37.0333C7.98473 36.7102 7.66773 36.3002 7.45572 35.8353C7.17782 35.4667 6.80729 35.8353 6.34412 35.4667C5.76282 35.4058 5.17741 35.5352 4.67672 35.8353V35.3745L5.60306 34.3608C6.52939 34.4529 7.54836 34.3608 7.82626 35.0059C8.34392 35.2629 8.81381 35.6057 9.21576 36.0196V36.3882L10.1421 36.849H10.2347ZM9.40103 40.9039L8.47469 41.7333C8.19679 41.4569 8.4747 40.8118 8.10417 40.351C8.10417 40.1667 8.38206 39.9824 8.19679 39.8902L6.62203 39.0608C6.03915 38.6333 5.48236 38.1717 4.95463 37.6784C4.39883 37.6784 4.02829 37.8627 3.37986 37.9549V37.7706C3.65776 37.2176 3.65777 36.5725 4.39883 36.5725C4.862 36.5725 5.32516 36.5725 5.60306 36.9412C6.15886 36.9412 6.34413 37.4941 6.71467 37.5863C7.14657 38.0562 7.64602 38.4599 8.19679 38.7843C8.1886 38.9287 8.21848 39.0727 8.28348 39.202C8.34848 39.3313 8.44634 39.4415 8.56733 39.5216C9.40103 39.5216 9.21576 40.2588 9.40103 40.8118V40.9039ZM7.54836 42.7471L7.08519 44.0373L6.2515 41.7333C5.32517 40.8118 4.12093 40.6275 3.4725 40.1667C2.9167 39.9824 2.91669 40.4431 2.63879 40.1667C2.62337 39.9811 2.6485 39.7944 2.71246 39.6194C2.77642 39.4444 2.8777 39.2853 3.00933 39.1529H3.84303L4.5841 39.5216C5.04726 39.8902 5.88096 39.8902 5.88096 40.6275C5.88096 40.8118 5.78833 40.9039 6.15886 41.4569L7.3631 41.7333L7.54836 42.7471ZM3.93567 44.0373C3.93567 44.9588 2.26826 46.4333 2.26826 46.4333C2.26826 45.7882 2.63879 45.051 2.63879 44.2216C2.35501 43.9671 1.99912 43.8062 1.61983 43.7608C1.2493 44.0373 1.2493 44.2216 1.06403 44.6824C0.693495 45.4196 -0.0475659 46.249 -0.232833 46.9863C-0.257401 46.9863 -0.280961 46.9766 -0.298333 46.9593C-0.315705 46.942 -0.325472 46.9186 -0.325472 46.8941C-0.325472 45.6039 -0.232839 43.3922 0.600862 42.4706C0.825586 42.1942 1.10722 41.969 1.4268 41.81C1.74637 41.6511 2.09647 41.5621 2.45353 41.549L3.1946 41.7333L2.63879 42.4706C3.19459 42.7471 4.02829 43.2078 4.02829 43.9451L3.93567 44.0373ZM-0.603374 43.2078C-0.58084 43.7247 -0.709551 44.2369 -0.973902 44.6824C-1.06654 44.1294 -1.43707 43.4843 -2.0855 43.4843C-2.6413 44.498 -2.73394 44.8667 -2.27078 46.4333C-2.58387 46.7788 -2.96139 47.0604 -3.38237 47.2627C-3.60515 46.6429 -3.69968 45.9846 -3.66028 45.3274C-3.67907 44.453 -3.5539 43.5813 -3.28974 42.7471C-2.9192 42.3784 -2.64131 41.7333 -2.27078 41.4569H-0.788639C-1.43707 41.4569 -1.43707 42.0098 -1.43707 42.3784C-1.06654 42.3784 -0.510736 42.5627 -0.510736 43.2078H-0.603374ZM-3.93817 44.6824C-4.0308 44.6824 -4.40133 44.2216 -4.8645 44.2216C-5.23503 45.051 -4.8645 45.5118 -4.8645 46.4333C-4.85302 46.7129 -4.88426 46.9925 -4.95714 47.2627C-5.23504 47.2627 -5.6982 46.7098 -5.79083 46.1569V44.1294L-4.67924 42.7471C-4.34391 42.9069 -4.07626 43.1797 -3.92368 43.517C-3.77109 43.8543 -3.74341 44.2345 -3.84554 44.5902L-3.93817 44.6824ZM22.6476 9.1098C22.7933 8.7167 22.8441 8.29502 22.7958 7.8788C22.7475 7.46258 22.6016 7.06349 22.3697 6.71373C22.1844 6.16078 21.4434 5.97647 20.8876 5.42353L19.9612 5.97647C19.7196 6.11434 19.522 6.31714 19.3909 6.56163C19.2598 6.80612 19.2007 7.08241 19.2202 7.35882C20.1222 7.84449 20.8625 8.58102 21.3507 9.47843H21.7213C22.1844 9.1098 22.3697 9.47843 22.6476 9.1098ZM18.3865 9.84706C18.3865 9.47843 18.2012 9.47843 18.1086 9.47843C17.4601 9.47843 17.4601 8.46471 16.9043 8.74118C16.7191 8.74118 16.4412 8.46471 15.978 8.74118L16.2559 8.83333C16.9043 8.83333 16.6264 9.7549 17.1822 9.84706H18.3865ZM20.3318 11.4137C20.3318 11.4137 20.6097 11.4137 20.3318 11.3216L17.5528 10.8608C17.2749 11.3216 16.6264 11.3216 16.6264 11.6902H16.3485C16.5695 12.7506 16.6628 13.8334 16.6264 14.9157C16.9212 14.9157 17.204 15.0322 17.4124 15.2396C17.6209 15.447 17.738 15.7283 17.738 16.0216C18.2555 16.2177 18.752 16.4647 19.2202 16.7588C19.4981 16.6667 19.5907 16.298 19.776 15.8373C19.3128 15.1922 18.1086 15.6529 18.1086 14.4549L17.3675 14.1784C17.382 13.4979 17.3198 12.8178 17.1822 12.151H17.3675L17.738 12.6118C18.2494 12.7024 18.7765 12.6041 19.2202 12.3353C19.4981 12.151 19.4981 11.598 19.776 11.598C20.0539 11.598 20.2391 11.598 20.3318 11.3216V11.4137ZM13.9401 8.64902C13.7548 8.37255 13.0137 8.74118 12.5506 8.92549C12.3179 8.96171 12.1029 9.07047 11.9364 9.23609C11.77 9.40172 11.6606 9.61565 11.6242 9.84706H13.1064C13.3369 9.39348 13.6512 8.98708 14.0327 8.64902H13.9401ZM11.1611 7.26667C10.9758 5.97647 9.58629 5.88431 8.93786 5.42353H8.38206C7.9847 5.64065 7.65413 5.96114 7.4257 6.35071C7.19727 6.74029 7.07958 7.18431 7.08519 7.63529C7.36309 8.83333 8.10416 8.09608 8.65996 8.83333C9.43875 8.229 10.2767 7.70414 11.1611 7.26667ZM18.757 18.9706V18.4176H17.3675L18.757 18.9706ZM12.9211 11.598C12.9211 11.4137 12.6432 11.1373 12.2727 10.8608H9.21576C9.21576 10.9576 9.23493 11.0535 9.27218 11.1429C9.30942 11.2324 9.364 11.3136 9.43282 11.3821C9.50163 11.4506 9.58332 11.5049 9.67323 11.5419C9.76315 11.579 9.85952 11.598 9.95683 11.598C9.95683 12.151 10.3274 12.2431 10.5126 12.4275C10.8832 12.7039 10.9758 12.7039 11.439 12.4275C11.8095 12.7039 11.9021 12.151 12.0874 12.4275C12.098 13.0165 12.0358 13.6045 11.9021 14.1784C11.8095 15.1 10.9758 14.9157 10.42 15.2843C10.42 15.6529 9.95683 16.298 10.42 16.7588C10.8255 16.4941 11.2607 16.2776 11.7169 16.1137C11.7169 15.6529 12.0874 15.2843 12.6432 15.0078C12.5506 13.8098 12.9211 12.7039 12.9211 11.598ZM11.9021 18.4176C11.6242 17.8647 10.9758 18.4176 10.3274 18.1412C10.3083 18.2868 10.3334 18.4348 10.3994 18.5661C10.4654 18.6975 10.5693 18.8062 10.6979 18.8784C11.0299 18.5713 11.4518 18.3776 11.9021 18.3255V18.4176Z" fill="#FF6600"/>
</g>
<defs>
<clipPath id="clip0_395_37710">
<rect width="32" height="32" fill="white"/>
</clipPath>
</defs>
</svg>
