<svg width="32" height="32" viewBox="0 0 32 32" fill="none" xmlns="http://www.w3.org/2000/svg">
<path d="M9.82388 16.0007C9.82388 12.5707 12.604 9.78992 16.034 9.78992C19.4641 9.78992 22.2436 12.5707 22.2436 16.0007C22.2436 19.4301 19.4641 22.2109 16.034 22.2109C12.604 22.2109 9.82388 19.4301 9.82388 16.0007Z" fill="#6EC72D"/>
<path d="M20.3404 8.13403C20.3404 6.16862 21.9341 4.57504 23.8995 4.57504C25.8655 4.57504 27.4597 6.16862 27.4597 8.13403C27.4597 10.1001 25.8655 11.6937 23.8995 11.6937C21.9341 11.6937 20.3404 10.1001 20.3404 8.13403ZM2 16.0007C2 8.2737 8.2592 2.00944 15.9831 2V7.05947C11.0525 7.06828 7.05887 11.0677 7.05887 16.0007C7.05887 20.9387 11.062 24.9413 15.9994 24.9413C20.9079 24.9413 24.9407 20.9765 24.9407 15.9667L29.9995 15.9697C29.9995 23.7326 23.7321 30 15.9994 30C8.26741 30 2 23.7326 2 16.0006" fill="#00674C"/>
</svg>
