<svg width="32" height="32" viewBox="0 0 32 32" fill="none" xmlns="http://www.w3.org/2000/svg">
<rect width="32" height="32" fill="#FF700D"/>
<path d="M25.5219 11.203L25.5237 11.2064L25.5134 11.2184H25.5117L25.2635 11.4152V11.4221L25.2344 11.4323L25.2327 11.4272C24.7638 11.4375 24.2898 11.4015 23.7918 11.3656C23.7815 11.3656 23.7764 11.3639 23.7747 11.3639C23.1072 11.316 22.4193 11.2646 21.7535 11.3314H21.745L20.9954 11.2492C19.4124 11.1294 18.1426 11.0866 16.9943 11.1174C16.9412 11.1157 16.8848 11.1072 16.8266 11.0952C16.8129 11.0918 16.806 11.0918 16.8026 11.0918C16.6794 11.0661 16.5613 11.0422 16.433 11.0866V11.0918H16.409V11.0884C16.2618 11.0524 16.101 11.0576 15.9435 11.0593C15.7809 11.0627 15.6252 11.0644 15.49 11.0267C15.4352 11.0302 15.377 11.0422 15.3206 11.0524L15.3017 11.0576C15.1768 11.0798 15.045 11.1072 14.9235 11.0781C14.328 11.102 13.7359 11.1003 13.166 11.0969H13.1095H13.0975C12.2145 11.0918 11.3006 11.0866 10.3919 11.1756L10.3833 11.1773C10.3132 11.1842 10.1591 11.1773 9.83056 11.1808L8.59496 11.1859C7.38503 11.1893 6.71761 11.1859 6.61493 11.1756C6.4746 11.1619 6.42668 11.0678 6.42839 10.9857C6.43181 10.8402 6.58926 10.6605 6.71932 10.652C6.76039 10.6485 7.06672 10.6485 7.65372 10.6468C8.75412 10.6434 10.599 10.6383 11.3708 10.6177C12.1118 10.5955 12.8391 10.5767 13.5887 10.5715C14.6001 10.5339 15.6338 10.5236 16.5733 10.551C16.5733 10.551 17.9133 10.5784 20.5898 10.6331C21.0861 10.64 21.5841 10.6348 22.0633 10.6297L22.101 10.628H22.13C23.0884 10.6177 23.9937 10.6075 24.9401 10.6982C25.089 10.6331 25.3097 10.6828 25.4552 10.77H25.4569L25.4655 10.7752L25.4638 10.7769C25.5801 10.883 25.6058 11.073 25.5219 11.203Z" fill="white"/>
<path d="M18.8358 19.4503C18.7947 19.7446 18.8033 20.0458 18.8118 20.3641C18.8204 20.6876 18.829 21.0247 18.7845 21.3738L18.7725 21.4662L18.6801 21.4491C18.615 21.4337 18.5534 21.4389 18.4696 21.4628L18.3583 21.4953V21.4012C18.319 21.4098 18.2659 21.4115 18.218 21.3807C18.218 21.3807 18.2163 21.379 18.2146 21.379C18.1786 21.3601 18.1598 21.3259 18.1598 21.2831V21.0521L18.0862 20.9905L18.1735 20.9614L18.0794 20.8673H18.194C18.1906 20.8433 18.1923 20.8125 18.2043 20.7851C18.2112 20.768 18.2266 20.7492 18.2488 20.7321L18.218 20.6927L18.2163 20.6961C18.2214 20.6876 18.2231 20.6636 18.2266 20.6482C18.23 20.6106 18.2351 20.5404 18.2847 20.4942C18.2847 20.4908 18.2847 20.4874 18.283 20.4856C18.2762 20.4617 18.2676 20.4292 18.2574 20.4172L18.141 20.2751H18.2077C18.2077 20.2358 18.2214 20.1998 18.2334 20.1759L18.2351 20.169L18.1393 20.0629L18.2163 20.0236C18.2163 20.003 18.218 19.9808 18.2197 19.9654C18.2231 19.9329 18.2248 19.9021 18.2197 19.8696L18.2112 19.8062L18.2248 19.8011C18.218 19.7754 18.218 19.7532 18.218 19.7378V19.6248C18.2146 19.5992 18.2112 19.5752 18.2077 19.5547C18.2077 19.5324 18.2043 19.5119 18.1975 19.4965L18.1923 19.3818H18.2899C18.2967 19.3818 18.2967 19.3818 18.3001 19.3818C18.3036 19.3733 18.3087 19.3579 18.3121 19.3459C18.3207 19.3219 18.3292 19.2928 18.3464 19.2603L18.2283 19.197C18.23 19.1919 18.2317 19.1884 18.2351 19.185H18.2334C18.2488 19.1645 18.2539 19.1371 18.2642 19.1063C18.2676 19.0909 18.2728 19.0721 18.2779 19.055L18.2129 19.0464L18.218 18.9643C18.2266 18.9061 18.2539 18.8684 18.2813 18.8427C18.2762 18.8393 18.2728 18.8376 18.2711 18.8325C18.2557 18.8137 18.2437 18.7777 18.2608 18.7281L18.2659 18.7058L18.2437 18.6083L18.3155 18.5724C18.3224 18.5621 18.3309 18.5552 18.3395 18.5484L18.3361 18.545L18.3053 18.4337H18.3481C18.3395 18.42 18.3241 18.4029 18.3036 18.3824C18.2505 18.3311 18.1649 18.2438 18.1992 18.124C18.1667 18.1086 18.1615 18.0675 18.1581 18.0692L18.1975 18.0025C18.1838 17.9597 18.1975 17.922 18.2094 17.8947L18.1838 17.8382L18.2385 17.8245V17.7988C18.2385 17.7543 18.2402 17.7321 18.2402 17.7321L18.2557 17.7269C18.2334 17.7167 18.2163 17.6979 18.2077 17.6688L18.1906 17.6191L18.2077 17.5986C18.2077 17.5935 18.2043 17.5883 18.2043 17.5798C18.2009 17.5455 18.2163 17.5216 18.2317 17.5062C18.2266 17.4908 18.2214 17.4788 18.2163 17.4651C18.1906 17.3949 18.153 17.306 18.1786 17.2118L18.1838 17.1981L18.1906 17.1862C18.2077 17.1571 18.2112 17.1245 18.2129 17.0732C18.2129 17.0424 18.2146 17.0099 18.218 16.974H18.1855L18.2043 16.8713C18.206 16.861 18.2094 16.8524 18.2129 16.8439C18.1855 16.8388 18.1581 16.8302 18.1581 16.8268L18.1821 16.7378C18.1838 16.7292 18.1769 16.7036 18.1769 16.6899C18.1684 16.6437 18.1581 16.5821 18.1992 16.5256C18.2009 16.5239 18.2043 16.5222 18.2077 16.5204C18.1187 16.3698 18.1547 16.185 18.1838 16.043L18.1923 16.0036C18.1906 16.0002 18.1889 15.9951 18.1855 15.9916C18.1769 15.9711 18.1632 15.9386 18.1632 15.9044L18.129 15.8855L18.0862 15.8256L18.1068 15.7452L18.1359 15.7178C18.1256 15.6973 18.1222 15.6819 18.117 15.6665C18.1153 15.6631 18.1136 15.6613 18.1136 15.6579C18.1119 15.6579 18.1119 15.6579 18.1119 15.6579L18.0845 15.6151L18.0777 15.5467C18.0845 15.4936 18.0828 15.4628 18.1222 15.4337C18.1187 15.4303 18.1119 15.4252 18.1051 15.4183C18.0537 15.3807 17.9493 15.2968 18.0263 15.1479L18.0417 15.1154C18.0366 15.1052 18.0298 15.0932 18.0263 15.0812C18.0075 15.0435 17.9784 14.9871 17.9835 14.9306L17.9716 14.9203L17.9134 14.8621L17.9339 14.7971C17.9322 14.7868 17.9288 14.7749 17.9271 14.7663C17.9168 14.7355 17.8946 14.6653 17.9202 14.6089C17.8312 14.5147 17.7987 14.3727 17.773 14.2597C17.773 14.2563 17.7713 14.2546 17.7713 14.2529H17.708V14.1656C17.708 14.0732 17.5574 13.8627 17.4102 13.707C17.3435 13.7053 17.2596 13.6796 17.2203 13.6265L17.2015 13.6043V13.6009C17.1929 13.594 17.1775 13.5821 17.1672 13.5786C17.1381 13.5615 17.1073 13.5427 17.08 13.5187C16.9516 13.5393 16.8643 13.4417 16.813 13.3852C16.8044 13.3784 16.7959 13.3664 16.7873 13.3562L16.7462 13.4195L16.6761 13.3835C16.4793 13.2774 16.2619 13.3065 16.0121 13.3373L15.9282 13.3493L15.8649 13.3562L15.8632 13.351C15.8255 13.3596 15.7947 13.3493 15.781 13.339C15.7656 13.3305 15.7537 13.3322 15.7092 13.3476C15.692 13.3544 15.6681 13.3613 15.6458 13.3647C15.6202 13.4075 15.5757 13.4195 15.5517 13.4246C15.55 13.4246 15.5466 13.428 15.5449 13.428L15.5089 13.4623L15.4542 13.4366C15.4011 13.4109 15.3737 13.4263 15.295 13.4913C15.2454 13.5307 15.1872 13.5735 15.1136 13.594C15.0896 13.6163 15.052 13.6334 14.9887 13.6265C14.9425 13.6864 14.8809 13.7275 14.8244 13.7617C14.7491 13.8097 14.7029 13.8388 14.6892 13.8935L14.6772 13.9414L14.6293 13.9551C14.5335 13.9825 14.4958 14.0407 14.4462 14.1263C14.4137 14.181 14.376 14.2426 14.3161 14.2974C14.3195 14.3094 14.3213 14.3196 14.3213 14.3333C14.323 14.3967 14.2733 14.4377 14.2425 14.4634C14.2374 14.4685 14.2288 14.4771 14.2237 14.4822L14.2254 14.4856L14.222 14.5062C14.2066 14.6328 14.1501 14.7235 14.0988 14.804C14.0509 14.8793 14.0132 14.9374 14.0132 15.0076C14.0132 15.0093 14.0132 15.011 14.0132 15.0145C14.0423 15.0435 14.0543 15.0761 14.0509 15.112L14.044 15.1685C14.0303 15.3311 14.0149 15.5005 13.9465 15.6374C13.9721 15.7058 13.9567 15.7726 13.943 15.8308C13.9311 15.877 13.9208 15.9198 13.9328 15.9591L13.9396 15.9814L13.9345 16.0019C13.9242 16.043 13.9225 16.0858 13.9208 16.132C13.9208 16.1902 13.9174 16.2535 13.9003 16.3202C13.9191 16.3664 13.9088 16.416 13.8712 16.464L13.8763 16.4759L13.8746 16.4965C13.8729 16.5838 13.8746 16.6659 13.8746 16.7446C13.878 16.9243 13.8814 17.0903 13.8404 17.2734C13.8558 17.4326 13.8506 17.6072 13.8455 17.7749C13.8404 17.9614 13.8335 18.1548 13.8575 18.3379V18.3396L13.8592 18.3447C13.8592 18.4851 13.866 18.6391 13.8729 18.8C13.8883 19.1833 13.9054 19.6146 13.8763 19.9825C13.9003 20.0664 13.8934 20.1468 13.8849 20.2204C13.8746 20.2974 13.866 20.3676 13.9003 20.4377L13.9122 20.4583L13.9088 20.4822C13.9071 20.5319 13.9003 20.5815 13.8968 20.6362C13.878 20.8348 13.8558 21.0624 13.9071 21.2318L13.9122 21.2506L13.9088 21.2712C13.9071 21.2814 13.9071 21.2934 13.9071 21.3088C13.902 21.379 13.8968 21.5039 13.7685 21.5415L13.7206 21.5552L13.6846 21.521C13.5152 21.3584 13.5118 21.1445 13.5118 20.9546C13.5118 20.857 13.5118 20.7612 13.4878 20.6859L13.4639 20.6106L13.4981 20.5969C13.4861 20.5712 13.4741 20.5336 13.4878 20.4925L13.4861 20.5079L13.4981 20.4001C13.4519 20.2957 13.4656 20.1879 13.4741 20.1006C13.4827 20.0407 13.4895 19.9825 13.4741 19.95L13.4776 19.9551C13.4331 19.8815 13.469 19.8148 13.4878 19.7789C13.4895 19.7754 13.4912 19.772 13.4947 19.7686L13.4177 19.7121L13.4776 19.6522C13.4296 19.5598 13.4553 19.4503 13.4776 19.3664C13.5015 19.2689 13.5118 19.2073 13.481 19.1628L13.4382 19.1012L13.481 19.0567C13.4844 19.0378 13.4895 19.0207 13.4998 19.0087C13.4724 18.9643 13.457 18.9061 13.4656 18.8462L13.4673 18.8359L13.4279 18.7332H13.4296C13.4279 18.7315 13.4245 18.7281 13.4245 18.723L13.4587 18.7127C13.4416 18.7058 13.4245 18.6921 13.4125 18.675C13.3954 18.6408 13.3954 18.6134 13.4005 18.5878L13.2893 18.4765L13.3971 18.4372C13.3903 18.3944 13.38 18.3293 13.4177 18.2712C13.3954 18.2095 13.3578 18.0983 13.4382 18.0145C13.4365 18.0042 13.4313 17.9871 13.4296 17.9734C13.4159 17.9306 13.4005 17.8621 13.4279 17.7937C13.3903 17.7338 13.4074 17.6636 13.4159 17.6311C13.4177 17.6191 13.4211 17.6089 13.4228 17.5986L13.3646 17.4805L13.4519 17.46C13.4485 17.4514 13.4468 17.4411 13.4468 17.4309C13.3971 17.383 13.4023 17.3128 13.404 17.2751C13.404 17.27 13.404 17.2649 13.404 17.2615L13.3578 17.2067L13.404 17.1211C13.4228 17.0972 13.4194 17.0749 13.4125 17.0167C13.404 16.9774 13.3988 16.9295 13.4074 16.8798L13.3321 16.8268L13.3389 16.7943L13.38 16.7087C13.3817 16.7036 13.3869 16.6847 13.3869 16.6265C13.3869 16.5957 13.3954 16.5718 13.404 16.5598C13.4108 16.5512 13.4159 16.5444 13.4228 16.5376C13.3971 16.4605 13.4228 16.3698 13.445 16.2963C13.4673 16.2175 13.4895 16.1388 13.4604 16.0875L13.4211 16.0207L13.4776 15.9779C13.4776 15.9677 13.4741 15.9437 13.4724 15.9283C13.4656 15.8787 13.4553 15.8034 13.4981 15.7366C13.4878 15.622 13.4998 15.5142 13.5152 15.4081C13.5289 15.302 13.5426 15.1993 13.5272 15.0915L13.5186 15.035L13.5563 15.0093C13.5563 15.0025 13.558 14.9871 13.558 14.9751C13.558 14.9494 13.558 14.9049 13.5751 14.8621L13.5494 14.8433L13.6059 14.7732C13.6196 14.756 13.6213 14.7355 13.6282 14.703C13.6367 14.6602 13.6453 14.6054 13.6915 14.5507C13.6966 14.5421 13.6983 14.5233 13.7 14.5096C13.7086 14.4685 13.7171 14.4069 13.7599 14.3607C13.7685 14.294 13.8232 14.2615 13.8438 14.2478L13.8267 14.2101L13.8541 14.169C13.943 14.0373 14.0577 13.9141 14.1655 13.7994C14.2614 13.6967 14.3503 13.6026 14.4205 13.5068C14.4479 13.4691 14.4633 13.4503 14.465 13.4537L14.53 13.4794C14.5352 13.4794 14.5386 13.4794 14.5437 13.4811V13.4794V13.3921H14.6293H14.6567C14.6721 13.3767 14.6926 13.3613 14.7132 13.3544L14.6858 13.3305L14.8039 13.2774C14.8586 13.2552 14.9579 13.209 14.9887 13.1696L15.0126 13.1422L15.0486 13.1388C15.0691 13.1388 15.076 13.132 15.0982 13.1166C15.1307 13.0926 15.1735 13.0618 15.2488 13.0464C15.2539 13.043 15.2608 13.0396 15.2676 13.031C15.307 12.9985 15.3789 12.9403 15.4747 12.9643L15.4764 12.9608L15.4525 12.8804L15.6647 12.8787H15.8221H15.894C15.9402 12.853 15.9967 12.8427 16.06 12.8427L16.0703 12.7743L16.2157 12.8171C16.2311 12.8256 16.2448 12.8359 16.2568 12.8427L16.2756 12.8239L16.315 12.8256C16.3578 12.8308 16.3937 12.8462 16.4262 12.8564C16.4998 12.8821 16.5032 12.8787 16.5169 12.8616L16.5477 12.8222L16.6008 12.8273L16.9465 12.8804L17.0201 12.8907V12.93C17.0748 12.9317 17.1535 12.9403 17.1946 12.9985L17.1963 13.0002C17.3418 13.0464 17.465 13.0875 17.5968 13.1953L17.6242 13.2158L17.6447 13.2107L17.6772 13.2381C17.7012 13.2603 17.7217 13.2723 17.7422 13.286C17.7799 13.3117 17.8227 13.3373 17.8586 13.3852L17.8689 13.3955C18.0143 13.5581 18.1804 13.7446 18.2847 13.9363C18.3327 14.0116 18.3549 14.0886 18.3737 14.1656C18.3977 14.2597 18.4199 14.3368 18.4815 14.3984L18.5004 14.4189L18.5072 14.4463L18.5603 14.7321C18.6373 15.1531 18.7177 15.586 18.7263 15.9933C18.7673 16.274 18.7742 16.5957 18.781 16.9072C18.7862 17.181 18.7913 17.4394 18.8204 17.6756V17.6807V17.6842L18.8375 19.2483V19.298L18.8187 19.3117C18.8341 19.339 18.8615 19.3921 18.8358 19.4503Z" fill="white"/>
<path d="M12.1717 19.4503C12.129 19.7446 12.1375 20.0458 12.1444 20.3641C12.1546 20.6876 12.1632 21.0247 12.1187 21.3738L12.1067 21.4662L12.0143 21.4491C11.9493 21.4337 11.8877 21.4389 11.8038 21.4628L11.6943 21.4953V21.4012C11.6515 21.4098 11.6001 21.4115 11.5522 21.3807C11.5505 21.3807 11.5505 21.379 11.5488 21.379C11.5129 21.3601 11.494 21.3259 11.494 21.2831V21.0521L11.4205 20.9905L11.5094 20.9614L11.4153 20.8673H11.5283C11.5266 20.8433 11.5266 20.8125 11.5385 20.7851C11.5471 20.768 11.5608 20.7492 11.583 20.7321L11.5539 20.6927C11.5539 20.6927 11.5522 20.6944 11.5522 20.6961C11.5557 20.6876 11.5574 20.6636 11.5608 20.6482C11.5642 20.6106 11.5728 20.5404 11.619 20.4942C11.619 20.4908 11.619 20.4874 11.6173 20.4856C11.6104 20.4617 11.6019 20.4292 11.5933 20.4172L11.4752 20.2751H11.5437C11.5437 20.2358 11.5574 20.1998 11.5676 20.1742C11.5693 20.1725 11.5693 20.1708 11.5711 20.169L11.4735 20.0629L11.5522 20.0236C11.5522 20.003 11.5539 19.9808 11.5557 19.9654C11.5574 19.9329 11.5591 19.9021 11.5557 19.8696L11.5471 19.8062L11.5591 19.8011C11.5557 19.7754 11.5539 19.7532 11.5539 19.7378V19.6248C11.5488 19.5992 11.5471 19.5752 11.5437 19.5547C11.542 19.5324 11.5385 19.5119 11.5334 19.4965L11.5266 19.3818H11.6258C11.6292 19.3818 11.631 19.3818 11.6327 19.3818C11.6378 19.3733 11.6446 19.3579 11.6481 19.3459C11.6532 19.3219 11.6618 19.2928 11.6789 19.2603L11.5625 19.197C11.5642 19.1919 11.5676 19.1884 11.5693 19.185H11.5676C11.583 19.1645 11.5899 19.1371 11.6001 19.1063C11.6019 19.0909 11.6087 19.0721 11.6138 19.055L11.5471 19.0464L11.5557 18.9643C11.5608 18.9061 11.5899 18.8684 11.6155 18.8427C11.6121 18.8393 11.6087 18.8376 11.6036 18.8325C11.5916 18.8137 11.5779 18.7777 11.595 18.7281L11.6001 18.7058L11.5779 18.6083L11.6481 18.5724C11.6566 18.5621 11.6652 18.5552 11.6737 18.5484L11.672 18.545L11.6395 18.4337H11.6823C11.6737 18.42 11.6583 18.4029 11.6361 18.3824C11.5847 18.3311 11.4992 18.2438 11.5334 18.124C11.5009 18.1086 11.4958 18.0675 11.494 18.0692L11.5317 18.0025C11.5163 17.9597 11.5317 17.922 11.5454 17.8947L11.5163 17.8382L11.5728 17.8245V17.7988C11.5728 17.7543 11.5745 17.7321 11.5762 17.7321L11.5899 17.7269C11.5676 17.7167 11.5505 17.6979 11.542 17.6688L11.5248 17.6191L11.5454 17.5986C11.542 17.5935 11.5385 17.5883 11.5385 17.5798C11.5368 17.5455 11.5505 17.5216 11.5659 17.5062C11.5608 17.4908 11.5574 17.4788 11.5505 17.4651C11.5231 17.3949 11.4889 17.306 11.5129 17.2118L11.518 17.1981L11.5266 17.1862C11.5454 17.1571 11.5471 17.1245 11.5471 17.0732C11.5471 17.0424 11.5488 17.0099 11.5557 16.974H11.518L11.5385 16.8713C11.5402 16.861 11.5454 16.8524 11.5471 16.8439C11.5231 16.8388 11.4923 16.8302 11.4923 16.8268L11.5163 16.7378C11.5163 16.7292 11.5129 16.7036 11.5094 16.6899C11.5043 16.6437 11.4923 16.5821 11.5351 16.5256C11.5368 16.5239 11.5385 16.5222 11.542 16.5204C11.453 16.3698 11.4889 16.185 11.518 16.043L11.5266 16.0036C11.5231 16.0002 11.5231 15.9951 11.5214 15.9916C11.5094 15.9711 11.4975 15.9386 11.4975 15.9044L11.4632 15.8855L11.4205 15.8256L11.441 15.7452L11.4718 15.7178C11.4598 15.6973 11.4547 15.6819 11.4513 15.6665C11.4495 15.6631 11.4495 15.6613 11.4478 15.6579H11.4461L11.4187 15.6151L11.4119 15.5467C11.4187 15.4936 11.417 15.4628 11.4581 15.4337C11.4513 15.4303 11.4478 15.4252 11.4376 15.4183C11.3879 15.3807 11.2853 15.2968 11.3606 15.1479L11.3742 15.1154C11.3708 15.1052 11.3657 15.0932 11.3606 15.0812C11.3417 15.0435 11.3144 14.9871 11.3178 14.9306L11.3058 14.9203L11.2476 14.8621L11.2681 14.7971C11.2664 14.7868 11.263 14.7749 11.2596 14.7663C11.251 14.7355 11.2271 14.6653 11.2545 14.6089C11.1638 14.5147 11.1312 14.3727 11.1073 14.2597C11.1073 14.2563 11.1073 14.2546 11.1073 14.2529H11.0422V14.1656C11.0422 14.0732 10.8916 13.8627 10.7445 13.707C10.6777 13.7053 10.5939 13.6796 10.5545 13.6265L10.5357 13.6043V13.6009C10.5271 13.594 10.5117 13.5821 10.5015 13.5786C10.4724 13.5615 10.4416 13.5427 10.4125 13.5187C10.2858 13.5393 10.1985 13.4417 10.1489 13.3852C10.1387 13.3784 10.1301 13.3664 10.1233 13.3562L10.0822 13.4195L10.0103 13.3835C9.8135 13.2774 9.59786 13.3065 9.3463 13.3373L9.26244 13.3493L9.19741 13.3562L9.1957 13.351C9.15976 13.3596 9.13067 13.3493 9.11355 13.339C9.09986 13.3305 9.08959 13.3322 9.0451 13.3476C9.02627 13.3544 9.00403 13.3613 8.98007 13.3647C8.95611 13.4075 8.91161 13.4195 8.88594 13.4246C8.88252 13.428 8.88081 13.428 8.8791 13.428L8.84487 13.4623L8.7884 13.4366C8.73534 13.4109 8.70796 13.4263 8.62924 13.4913C8.57961 13.5307 8.52142 13.5735 8.44613 13.594C8.42388 13.6163 8.38623 13.6334 8.32291 13.6265C8.2767 13.6864 8.21509 13.7275 8.15862 13.7617C8.08332 13.8097 8.03711 13.8388 8.02342 13.8935L8.01144 13.9414L7.96352 13.9551C7.86598 13.9825 7.83004 14.0407 7.78212 14.1263C7.74789 14.181 7.71024 14.2426 7.65035 14.2974C7.65377 14.3094 7.65377 14.3196 7.65548 14.3333C7.65719 14.3967 7.60927 14.4377 7.57847 14.4634C7.57162 14.4685 7.56307 14.4771 7.55793 14.4822L7.55964 14.4856L7.55622 14.5062C7.54253 14.6328 7.48435 14.7235 7.43129 14.804C7.38509 14.8793 7.34744 14.9374 7.34744 15.0076C7.34744 15.0093 7.34744 15.011 7.34744 15.0145C7.37824 15.0435 7.38851 15.0761 7.38509 15.112L7.37824 15.1685C7.36455 15.3311 7.34915 15.5005 7.28241 15.6374C7.30465 15.7058 7.29096 15.7726 7.27898 15.8308C7.267 15.877 7.25674 15.9198 7.267 15.9591L7.27214 15.9814L7.26871 16.0019C7.25845 16.043 7.25845 16.0858 7.25674 16.132C7.25502 16.1902 7.2516 16.2535 7.23449 16.3202C7.25331 16.3664 7.24304 16.416 7.20539 16.464L7.21053 16.4759V16.4965C7.20711 16.5838 7.20882 16.6659 7.21053 16.7446C7.21224 16.9243 7.21566 17.0903 7.17459 17.2734C7.18999 17.4326 7.18657 17.6072 7.18144 17.7749C7.17459 17.9614 7.16946 18.1548 7.18999 18.3379L7.1917 18.3396V18.3447C7.19342 18.4851 7.20197 18.6391 7.20711 18.8C7.22251 19.1833 7.23962 19.6146 7.21053 19.9825C7.23791 20.0664 7.22764 20.1468 7.21909 20.2204C7.20882 20.2974 7.20026 20.3676 7.2362 20.4377L7.24476 20.4583L7.24304 20.4822C7.24133 20.5319 7.2362 20.5815 7.23106 20.6362C7.21224 20.8348 7.18828 21.0624 7.24133 21.2318L7.24476 21.2506L7.24304 21.2712C7.24133 21.2814 7.24133 21.2934 7.24133 21.3088C7.23791 21.379 7.23107 21.5039 7.10442 21.5415L7.05651 21.5552L7.01886 21.521C6.84772 21.3584 6.84772 21.1445 6.84772 20.9546C6.84772 20.857 6.84601 20.7612 6.82205 20.6859L6.79638 20.6106L6.83232 20.5969C6.81863 20.5712 6.80836 20.5336 6.82205 20.4925L6.81863 20.5079L6.83403 20.4001C6.78611 20.2957 6.7998 20.1879 6.81007 20.1006C6.81692 20.0407 6.82376 19.9825 6.80836 19.95L6.81178 19.9551C6.769 19.8815 6.80323 19.8148 6.82205 19.7789C6.82376 19.7754 6.82719 19.772 6.8289 19.7686L6.75189 19.7121L6.8135 19.6522C6.76215 19.5598 6.79125 19.4503 6.81178 19.3664C6.83574 19.2689 6.84772 19.2073 6.81521 19.1628L6.77242 19.1012L6.81521 19.0567C6.81692 19.0378 6.82376 19.0207 6.83403 19.0087C6.80494 18.9643 6.79296 18.9061 6.80152 18.8462V18.8359L6.76215 18.7332C6.76215 18.7315 6.76044 18.7281 6.76044 18.723L6.79467 18.7127C6.77756 18.7058 6.76044 18.6921 6.74675 18.675C6.72964 18.6408 6.72964 18.6134 6.73306 18.5878L6.62354 18.4765L6.73306 18.4372C6.7245 18.3944 6.71595 18.3293 6.75189 18.2712C6.73135 18.2095 6.6937 18.0983 6.77071 18.0145C6.77071 18.0042 6.76558 17.9871 6.76215 17.9734C6.75189 17.9306 6.73648 17.8621 6.76215 17.7937C6.72622 17.7338 6.74162 17.6636 6.75018 17.6311C6.75189 17.6191 6.75531 17.6089 6.75702 17.5986L6.70055 17.4805L6.78611 17.46C6.7844 17.4514 6.78269 17.4411 6.78098 17.4309C6.73306 17.383 6.73648 17.3128 6.7382 17.2751C6.73991 17.27 6.73991 17.2649 6.73991 17.2615L6.6937 17.2067L6.73991 17.1211C6.75702 17.0972 6.7536 17.0749 6.74504 17.0167C6.73991 16.9774 6.73306 16.9295 6.74162 16.8798L6.66632 16.8268L6.67316 16.7943L6.71424 16.7087C6.71766 16.7036 6.72279 16.6847 6.72279 16.6265C6.72108 16.5957 6.72964 16.5718 6.7382 16.5598C6.74504 16.5512 6.75189 16.5444 6.75873 16.5376C6.73135 16.4605 6.75702 16.3698 6.77927 16.2963C6.80152 16.2175 6.82547 16.1388 6.79638 16.0875L6.75531 16.0207L6.81178 15.9779C6.81349 15.9677 6.81007 15.9437 6.80665 15.9283C6.7998 15.8787 6.79125 15.8034 6.83232 15.7366C6.82034 15.622 6.83403 15.5142 6.84772 15.4081C6.86484 15.302 6.87853 15.1993 6.86312 15.0915L6.85286 15.035L6.89051 15.0093C6.89222 15.0025 6.89222 14.9871 6.89222 14.9751C6.89222 14.9494 6.89393 14.9049 6.90933 14.8621L6.88537 14.8433L6.94014 14.7732C6.95383 14.756 6.95725 14.7355 6.96238 14.703C6.96923 14.6602 6.98121 14.6054 7.02741 14.5507C7.03084 14.5421 7.03255 14.5233 7.03597 14.5096C7.04282 14.4685 7.05137 14.4069 7.09587 14.3607C7.10442 14.294 7.15748 14.2615 7.17972 14.2478L7.1609 14.2101L7.18828 14.169C7.27727 14.0373 7.39022 13.9141 7.50146 13.7994C7.59729 13.6967 7.68628 13.6026 7.75474 13.5068C7.78212 13.4691 7.79752 13.4503 7.80095 13.4537L7.86427 13.4794C7.86769 13.4794 7.87282 13.4794 7.87624 13.4811V13.4794V13.3921H7.96523H7.99091C8.00802 13.3767 8.02684 13.3613 8.04567 13.3544L8.02171 13.3305L8.13808 13.2774C8.19113 13.2552 8.29039 13.209 8.32291 13.1696L8.34687 13.1422L8.3828 13.1388C8.40334 13.1388 8.4119 13.132 8.43415 13.1166C8.46324 13.0926 8.50773 13.0618 8.58303 13.0464C8.58817 13.043 8.59501 13.0396 8.60357 13.031C8.64293 12.9985 8.7131 12.9403 8.80722 12.9643L8.81064 12.9608L8.78668 12.8804L9.0006 12.8787H9.15462H9.22992C9.27442 12.853 9.33089 12.8427 9.39421 12.8427L9.40619 12.7743L9.55166 12.8171C9.56706 12.8256 9.57904 12.8359 9.59102 12.8427L9.60984 12.8239L9.65092 12.8256C9.69199 12.8308 9.72793 12.8462 9.76215 12.8564C9.83574 12.8821 9.83745 12.8787 9.85115 12.8616L9.88195 12.8222L9.93329 12.8273L10.279 12.8804L10.356 12.8907V12.93C10.4108 12.9317 10.4878 12.9403 10.5288 12.9985L10.5323 13.0002C10.676 13.0464 10.7992 13.0875 10.931 13.1953L10.9584 13.2158L10.9789 13.2107L11.0132 13.2381C11.0354 13.2603 11.0559 13.2723 11.0765 13.286C11.1141 13.3117 11.1586 13.3373 11.1946 13.3852L11.2031 13.3955C11.3486 13.5581 11.5163 13.7446 11.619 13.9363C11.6669 14.0116 11.6891 14.0886 11.708 14.1656C11.7336 14.2597 11.7525 14.3368 11.8158 14.3984L11.8363 14.4189L11.8414 14.4463L11.8945 14.7321C11.9715 15.1531 12.0519 15.586 12.0588 15.9933C12.1016 16.274 12.1084 16.5957 12.1153 16.9072C12.1204 17.181 12.1255 17.4394 12.1546 17.6756V17.6807V17.6842L12.1717 19.2483L12.1734 19.298L12.1529 19.3117C12.1683 19.339 12.1957 19.3921 12.1717 19.4503Z" fill="white"/>
<path d="M25.3868 19.5665C25.3457 19.8625 25.3542 20.1637 25.3628 20.4803C25.3714 20.8055 25.3782 21.1444 25.3337 21.4918L25.3234 21.5859L25.2293 21.5653C25.166 21.5534 25.1044 21.5568 25.0222 21.5807L24.9093 21.615V21.5191C24.8665 21.5294 24.8169 21.5294 24.7707 21.4986C24.7707 21.4969 24.7673 21.4969 24.7638 21.4952C24.7296 21.4798 24.7091 21.4438 24.7091 21.4028V21.1683L24.6372 21.1084L24.7245 21.0793L24.6303 20.9835H24.745C24.7433 20.9612 24.7433 20.9321 24.7553 20.9048C24.7621 20.8859 24.7775 20.8671 24.7998 20.85L24.769 20.8106V20.8123C24.7724 20.8055 24.7741 20.7815 24.7758 20.7661C24.7809 20.7285 24.7878 20.6583 24.8374 20.6121C24.8357 20.6087 24.8357 20.607 24.8323 20.6036C24.8272 20.5813 24.8186 20.5471 24.8066 20.5368L24.6902 20.3931H24.7604C24.7604 20.3537 24.7724 20.3195 24.7844 20.2938C24.7844 20.2921 24.7861 20.2887 24.7861 20.287L24.6885 20.1826L24.769 20.1415C24.769 20.1193 24.769 20.1004 24.7707 20.0816C24.7724 20.0508 24.7758 20.0183 24.7707 19.9875L24.7621 19.9259L24.7741 19.919C24.7707 19.8951 24.769 19.8694 24.769 19.8557V19.7428C24.7638 19.7171 24.7604 19.6948 24.7587 19.6726C24.757 19.6486 24.7553 19.6315 24.7484 19.6127L24.7433 19.4997H24.8408C24.8443 19.4997 24.8477 19.4997 24.8494 19.4997C24.8545 19.4895 24.8597 19.4758 24.8631 19.4638C24.8682 19.4416 24.8802 19.4108 24.8939 19.3782L24.7809 19.3132C24.7809 19.3098 24.7827 19.3081 24.7861 19.3029H24.7844C24.7998 19.2841 24.8049 19.2567 24.8135 19.2242C24.8186 19.2071 24.8237 19.1917 24.8289 19.1729L24.7621 19.1643L24.7707 19.0822C24.7758 19.0257 24.8049 18.9863 24.8323 18.9607C24.8272 18.9572 24.8254 18.9555 24.822 18.9504C24.8066 18.9299 24.7929 18.8956 24.8083 18.846L24.8169 18.822L24.7929 18.7262L24.8648 18.6903C24.8734 18.6817 24.8819 18.6749 24.8888 18.6646L24.8871 18.6629L24.8545 18.5517H24.899C24.8888 18.538 24.8734 18.5226 24.8528 18.5003C24.8015 18.4473 24.7159 18.3617 24.7501 18.2436C24.7279 18.2316 24.7142 18.2128 24.7091 18.1871L24.7467 18.1204C24.733 18.0776 24.7467 18.0382 24.7604 18.0143L24.7347 17.9578L24.7878 17.9407V17.9167C24.7878 17.8722 24.7895 17.85 24.7912 17.85L24.8066 17.8466C24.7844 17.8346 24.7673 17.8175 24.757 17.7884L24.7433 17.737L24.7604 17.7182C24.7587 17.7097 24.7553 17.7045 24.7553 17.696C24.7519 17.6635 24.7673 17.6378 24.7827 17.6224C24.7775 17.6104 24.7724 17.5984 24.7673 17.583C24.7399 17.5112 24.7039 17.4222 24.7296 17.3297L24.7347 17.3143L24.7433 17.3058C24.7604 17.2767 24.7604 17.2408 24.7621 17.1894C24.7638 17.162 24.7638 17.1278 24.7707 17.0936H24.7365L24.7553 16.9875C24.757 16.9806 24.7604 16.9687 24.7638 16.9601C24.7365 16.955 24.7091 16.9481 24.7091 16.9447L24.7313 16.8557C24.7347 16.8454 24.7279 16.8215 24.7262 16.8078C24.721 16.7633 24.7091 16.7 24.7519 16.6418C24.7536 16.6401 24.757 16.6384 24.7587 16.6384C24.668 16.4878 24.7039 16.3029 24.7347 16.1609L24.7433 16.1215C24.7416 16.1181 24.7365 16.113 24.7365 16.1096C24.7262 16.0873 24.7142 16.0565 24.7159 16.0206L24.68 16.0035L24.6372 15.9418L24.6577 15.8631L24.6868 15.834C24.6748 15.8169 24.6697 15.7964 24.6663 15.7844C24.6663 15.781 24.6646 15.7793 24.6629 15.7758H24.6612L24.6355 15.7313L24.6269 15.6663C24.6355 15.615 24.6355 15.5825 24.6731 15.5534C24.668 15.5465 24.6612 15.5431 24.6526 15.5363C24.6047 15.4986 24.5003 15.4165 24.579 15.2641L24.5927 15.2333C24.5876 15.2231 24.5807 15.2094 24.5773 15.2008C24.5568 15.1615 24.5294 15.105 24.5362 15.0451L24.5208 15.0382L24.4643 14.9801L24.4866 14.915C24.4832 14.9048 24.4797 14.8945 24.4763 14.8859C24.4661 14.8534 24.4455 14.7833 24.4695 14.7251C24.3805 14.6327 24.348 14.4906 24.324 14.376L24.3223 14.3708H24.2573V14.2835C24.2573 14.1911 24.1067 13.9789 23.9612 13.8249C23.8962 13.8232 23.8089 13.7975 23.7695 13.7445L23.7541 13.7222V13.7188C23.7439 13.7102 23.7268 13.7017 23.7165 13.6948C23.6891 13.6794 23.6566 13.6606 23.6309 13.6349C23.5026 13.6572 23.4153 13.5596 23.3639 13.5049C23.3571 13.4963 23.3485 13.4861 23.3383 13.4775L23.2955 13.5391L23.2253 13.4997C23.0302 13.3953 22.8146 13.4227 22.563 13.4552L22.4792 13.4672L22.4159 13.4758L22.4107 13.4689C22.3765 13.4775 22.3474 13.4672 22.332 13.4587C22.3149 13.4484 22.3046 13.4501 22.2601 13.4655C22.2413 13.4724 22.2208 13.4792 22.1968 13.4843C22.1694 13.5254 22.1266 13.5374 22.1027 13.5425C22.0993 13.5425 22.0975 13.5442 22.0941 13.5442L22.0599 13.5802L22.0051 13.5545C21.9521 13.5305 21.9247 13.5425 21.8443 13.6093C21.7963 13.6486 21.7382 13.6914 21.6612 13.7102C21.6406 13.7342 21.603 13.7513 21.5396 13.7462C21.4934 13.8061 21.4318 13.8437 21.3754 13.8814C21.3001 13.9259 21.2521 13.9567 21.2384 14.0114L21.2265 14.0594L21.1785 14.073C21.0827 14.1004 21.0468 14.1603 20.9971 14.2425C20.9629 14.2989 20.9253 14.3606 20.8671 14.4153C20.8705 14.4273 20.8722 14.4376 20.8722 14.4495C20.8722 14.5146 20.8243 14.5556 20.7935 14.583C20.7884 14.5882 20.7781 14.5933 20.773 14.6019L20.7747 14.6053L20.773 14.6258C20.7576 14.7507 20.6994 14.8414 20.648 14.9219C20.6001 14.9955 20.5642 15.0536 20.5642 15.1272V15.1307C20.5916 15.1615 20.6035 15.1957 20.6001 15.2316L20.5933 15.2864C20.5796 15.449 20.5659 15.6167 20.4974 15.7553C20.5214 15.8203 20.5077 15.8888 20.494 15.947C20.482 15.9932 20.4735 16.0394 20.4837 16.077L20.4889 16.0993L20.4837 16.1198C20.4769 16.1592 20.4752 16.2037 20.4735 16.2499C20.4701 16.3081 20.4683 16.3697 20.4495 16.4381C20.4683 16.4861 20.4598 16.534 20.4204 16.5819L20.4273 16.5939L20.4256 16.6144C20.4238 16.7017 20.4256 16.7855 20.4256 16.866C20.429 17.0422 20.4307 17.2082 20.3913 17.3914C20.4067 17.5505 20.4033 17.7251 20.3965 17.8911C20.3913 18.081 20.3845 18.2744 20.4067 18.4524L20.4084 18.4592V18.4627C20.4119 18.603 20.417 18.757 20.4238 18.9179C20.4375 19.3012 20.4564 19.7325 20.4273 20.1004C20.4512 20.1843 20.4444 20.2647 20.4341 20.3366C20.4256 20.4153 20.417 20.4838 20.4495 20.5539L20.4615 20.5762L20.4598 20.6001C20.4564 20.6498 20.4512 20.6994 20.4461 20.7525C20.4273 20.9527 20.4067 21.1803 20.4581 21.3514L20.4615 21.3703L20.4598 21.3891C20.4581 21.3993 20.4581 21.413 20.4581 21.4267C20.4529 21.4952 20.4461 21.6218 20.3212 21.6612L20.2715 21.6732L20.2339 21.6372C20.0627 21.4764 20.0627 21.2624 20.0627 21.0742C20.0627 20.9749 20.0627 20.8791 20.0388 20.8038L20.0148 20.7302L20.0491 20.7131C20.0354 20.6874 20.0251 20.6549 20.0371 20.6121L20.0354 20.6241L20.0491 20.518C20.0029 20.4136 20.0148 20.3075 20.0251 20.2202C20.0337 20.1586 20.0405 20.1004 20.0251 20.0662L20.0285 20.073C19.984 20.0029 20.02 19.9327 20.0388 19.8968C20.0405 19.8951 20.0422 19.8899 20.0456 19.8848L19.9686 19.83L20.0302 19.7701C19.9806 19.676 20.0063 19.5699 20.0285 19.4861C20.0508 19.3868 20.0627 19.3269 20.0319 19.279L19.9892 19.2191L20.0337 19.1763C20.0354 19.1558 20.0405 19.1404 20.0508 19.1267C20.0217 19.0822 20.008 19.0257 20.0165 18.9658L20.0183 18.9555L19.9789 18.8529C19.9789 18.8477 19.9772 18.8443 19.9755 18.8409L20.008 18.8306C19.9926 18.8238 19.9755 18.8084 19.9635 18.7895C19.9447 18.7604 19.9447 18.7313 19.9498 18.7057L19.8386 18.591L19.9481 18.5551C19.9395 18.514 19.9327 18.4455 19.9686 18.3891C19.9464 18.3309 19.907 18.2179 19.9874 18.1341C19.9874 18.1204 19.984 18.105 19.9789 18.0913C19.9669 18.0468 19.9515 17.9801 19.9772 17.9116C19.9412 17.85 19.9584 17.7798 19.9652 17.7473C19.9686 17.737 19.972 17.7268 19.9738 17.7182L19.9173 17.5984L20.0029 17.5762C19.9994 17.5676 19.9977 17.5591 19.996 17.5488C19.9481 17.4992 19.9515 17.4307 19.9549 17.3931C19.9549 17.3862 19.9549 17.3828 19.9549 17.3794L19.9087 17.3229L19.9566 17.239C19.9738 17.2151 19.9703 17.1928 19.9618 17.1347C19.9549 17.0953 19.9481 17.0491 19.9566 16.9977L19.8831 16.9447L19.8899 16.9105L19.931 16.8266C19.9327 16.8215 19.9378 16.8027 19.9378 16.7428C19.9361 16.7137 19.9447 16.6897 19.9549 16.6777C19.9601 16.6692 19.9669 16.6623 19.9738 16.6572C19.9481 16.5802 19.9738 16.4861 19.9943 16.4142C20.0183 16.3355 20.0405 16.2567 20.0114 16.2054L19.972 16.1386L20.0285 16.0959C20.0302 16.0856 20.0251 16.0616 20.0234 16.0462C20.0165 15.9966 20.0063 15.9196 20.0491 15.8563C20.0371 15.7365 20.0508 15.6321 20.0627 15.5277C20.0782 15.4182 20.0936 15.3172 20.0782 15.2077L20.0713 15.1529L20.1055 15.1289C20.1072 15.1187 20.109 15.105 20.109 15.093C20.109 15.0656 20.109 15.0211 20.1261 14.9801L20.1021 14.9612L20.1552 14.8911C20.1706 14.874 20.174 14.8568 20.1791 14.8226C20.186 14.7798 20.1962 14.7234 20.2424 14.6652C20.2459 14.66 20.2493 14.6412 20.251 14.6292C20.2578 14.5865 20.2681 14.5248 20.3109 14.4769C20.3212 14.4136 20.3742 14.3794 20.3948 14.3674L20.3776 14.3263L20.4033 14.2887C20.494 14.1552 20.6087 14.0337 20.7182 13.9139C20.814 13.8163 20.9013 13.7205 20.9715 13.6247C20.9989 13.587 21.0143 13.5682 21.0177 13.5699L21.081 13.5973C21.0844 13.599 21.0896 13.6007 21.0947 13.6007V13.5973V13.51H21.1803H21.2076C21.223 13.4929 21.2436 13.4809 21.2624 13.4724L21.2367 13.4484L21.3548 13.3953C21.4079 13.3697 21.5071 13.3286 21.5396 13.2875L21.5636 13.2619L21.5995 13.2584C21.6201 13.2567 21.6286 13.2516 21.6509 13.2362C21.68 13.2105 21.7228 13.1797 21.7981 13.166C21.8032 13.1643 21.8118 13.1558 21.8169 13.1506C21.858 13.1164 21.9281 13.0599 22.024 13.0839C22.024 13.0822 22.0257 13.0805 22.0274 13.0787L22.0017 12.9983L22.2156 12.9966H22.3731H22.4432C22.4894 12.9726 22.5459 12.959 22.611 12.959L22.6212 12.8922L22.7667 12.9367C22.7821 12.9453 22.7958 12.9538 22.806 12.9607L22.8283 12.9401L22.8659 12.9453C22.9053 12.9487 22.9447 12.9641 22.9755 12.9726C23.0508 13 23.0542 12.9966 23.0662 12.9812L23.0987 12.9384L23.15 12.9453L23.4974 12.9983L23.5693 13.0086V13.0462C23.6258 13.0497 23.7028 13.0582 23.7456 13.1164H23.749C23.8928 13.1643 24.016 13.2054 24.1477 13.3132L24.1734 13.3337L24.1957 13.3286L24.2282 13.356C24.2504 13.3782 24.2727 13.3902 24.2915 13.4039C24.3291 13.4279 24.3736 13.4552 24.4096 13.5049L24.4181 13.5117C24.5636 13.676 24.7296 13.8625 24.8374 14.0542C24.8836 14.1278 24.9059 14.2082 24.9247 14.2835C24.9487 14.376 24.9692 14.4547 25.0342 14.5163L25.0513 14.5368L25.0565 14.5642L25.1078 14.85C25.1865 15.271 25.267 15.7057 25.2755 16.1113C25.3183 16.3936 25.3252 16.7137 25.3303 17.0234C25.3354 17.2989 25.3423 17.5591 25.3714 17.7952V17.7987V17.8038L25.3885 19.368V19.4159L25.3697 19.4296C25.3851 19.457 25.4124 19.51 25.3868 19.5665Z" fill="white"/>
<path fill-rule="evenodd" clip-rule="evenodd" d="M28.0017 4V28H4V4H28.0017ZM26.7319 5.26811H5.2664V26.7336H26.7319V5.26811Z" fill="white"/>
</svg>
