<svg width="32" height="32" viewBox="0 0 32 32" fill="none" xmlns="http://www.w3.org/2000/svg">
<path d="M15.4379 24.8675C9.6468 24.3142 4.52182 21.5346 2.62311 18.328C2.72173 18.9293 3.40686 20.2424 3.72055 21.1079C3.94944 21.7417 4.28156 22.2578 4.43671 22.723C6.83407 24.4199 9.58474 25.3062 13.3665 25.6675C17.265 26.0396 20.6934 25.5625 23.3971 24.2718C21.0246 24.8755 18.4113 25.1501 15.4379 24.8675Z" fill="#F5D303"/>
<path d="M10.9249 13.2077C8.93157 11.0405 7.14162 8.85049 5.59162 6.71582C5.3827 6.98926 5.14798 7.30971 4.90096 7.67286C4.56024 8.17058 4.28557 8.63757 4.07849 9.02592C5.6036 10.697 7.2937 12.384 9.12482 14.0397C14.3429 18.7591 19.4276 21.8222 23.4905 24.0316C19.8276 21.3359 15.3878 18.0546 10.9249 13.2077Z" fill="#F5D303"/>
<path d="M19.1631 9.37922C17.673 6.41318 16.5067 4.44964 14.7899 2.146C14.5672 2.16965 14.1929 2.35707 13.5336 2.45999C13.0396 2.53803 12.5376 2.48703 12.1378 2.6471C14.6418 5.27549 16.6619 8.02524 18.8835 11.9821C21.4114 16.4813 22.6791 20.0695 23.7439 23.8229C23.2926 19.5008 21.973 14.9724 19.1631 9.37922Z" fill="#F5D303"/>
<path d="M16.7267 29.4551C9.48393 29.4551 3.61237 23.7777 3.61237 16.7731C3.61237 9.76904 9.44768 4.29474 16.691 4.29474C23.7928 4.29474 29.6112 9.54968 29.8339 16.3654C29.8407 16.1902 29.8453 16.0136 29.8453 15.8369C29.8453 8.19416 23.6121 2 15.9226 2C8.23379 2 2 8.19416 2 15.8369C2 23.4779 8.23379 29.6717 15.9226 29.6717C17.4216 29.6717 18.8647 29.4351 20.2175 29.0001C19.1059 29.2953 17.936 29.4551 16.7267 29.4551Z" fill="#265092"/>
<path d="M9.22463 9.98253C14.1877 4.9233 21.9094 4.53987 26.4709 9.12658C29.2569 11.9289 30.3636 16.1558 29.4115 19.7812C30.7016 15.4676 29.9117 10.5783 26.6356 7.28378C21.8375 2.45835 13.7453 2.76098 8.7819 7.82175C5.51354 11.154 4.33868 15.7665 5.28772 19.9062C5.15131 16.4305 6.47764 12.783 9.22463 9.98253Z" fill="#9C1574"/>
<path d="M29.1629 17.0867C29.1221 14.0417 27.9582 11.2256 25.8177 9.75178C21.6781 6.90372 15.247 9.13148 11.2385 14.9861C9.16317 18.0173 8.19415 21.3683 8.31274 24.2917C7.39472 20.8642 8.15083 16.6163 10.6705 12.9363C14.6799 7.08161 21.6283 4.8818 26.1926 8.02205C28.8959 9.88174 30.2097 13.2241 29.9537 16.8363C29.9537 16.8363 29.872 17.8775 29.7746 18.3319C29.6821 18.7636 29.4425 19.6991 29.3476 19.9744C29.2532 20.2485 29.1629 17.0867 29.1629 17.0867Z" fill="#25845C"/>
<path d="M15.4059 15.3174C11.3181 19.6522 10.3927 25.419 13.34 28.1979C13.4709 28.3221 13.6073 28.436 13.7489 28.5436C11.1543 25.949 11.9338 20.9798 15.5232 17.1022C18.822 13.5367 24.4352 11.9784 27.1514 14.5411C29.546 16.7995 29.2256 21.1349 26.5987 24.8002C30.2385 20.5441 30.9593 15.1574 28.142 12.5013C25.195 9.723 19.4927 10.9836 15.4059 15.3174Z" fill="#D06519"/>
<path d="M19.2214 19.7354C16.4695 22.1263 15.5493 25.5719 17.1663 27.4341C18.4334 28.8922 20.8811 28.9445 23.2047 27.7484C21.2507 28.6486 19.2346 28.538 18.1602 27.3014C16.7257 25.6506 17.5113 22.6203 19.9133 20.5324C22.3168 18.4453 25.4266 18.0911 26.8602 19.7425C27.9355 20.9794 27.7644 22.9909 26.599 24.8002C28.1066 22.667 28.3976 20.235 27.1312 18.7771C25.5145 16.9165 21.9724 17.3445 19.2214 19.7354Z" fill="#B6161A"/>
</svg>
