<svg width="32" height="32" viewBox="0 0 32 32" fill="none" xmlns="http://www.w3.org/2000/svg">
<path d="M16.0215 2C23.7108 2 30 8.31077 30 15.9892C30 23.7431 23.7108 30 16.0215 30C8.31076 30 2 23.7431 2 15.9892C2 8.31077 8.31076 2 16.0215 2Z" fill="#CA1B24"/>
<path d="M20.2323 13.06H21.5785V13.2323H21.4385C21.2661 13.2323 21.0831 13.4261 21.0831 13.6415V17.8092C21.0831 18.0246 21.2661 18.2077 21.4385 18.2077H21.5785V18.3477H19.7369V18.2077H19.8662C20.0385 18.2077 20.2323 18.0246 20.2323 17.8092V13.9646L18.24 18.3907H18.1323L16.1938 13.8677V17.8092C16.1938 18.0246 16.3769 18.2077 16.5492 18.2077H16.6893V18.3477H15.3323V18.2077H15.4615C15.6554 18.2077 15.8277 18.0246 15.8277 17.8092V13.6415C15.8277 13.4369 15.7092 13.2323 15.4185 13.243C15.2031 13.243 14.9339 13.4692 14.7939 13.7815L12.92 17.9061C12.7585 18.2507 12.5108 18.3584 12.2092 18.3584L11.7785 18.3477C11.7785 18.3477 11.6815 17.7877 11.6923 17.7877C11.8862 17.9384 12.0262 18.0138 12.0908 18.0354C12.3277 18.1646 12.4785 18.0138 12.5538 17.8523L12.7908 17.3246L11.1108 13.8354C10.9169 13.4692 10.7769 13.2754 10.5077 13.2323V13.06H12.1877V13.2323H12.0477C11.9077 13.2323 11.8538 13.4369 11.9508 13.6415L13.2323 16.3554L14.4277 13.7277C14.5569 13.4692 14.46 13.2646 14.2554 13.243V13.06H16.6893L18.4662 16.9907L20.0816 13.383L20.2323 13.06ZM5.23077 13.06H10.3354V13.2323H10.2062C10.0123 13.2323 9.84 13.4261 9.84 13.6415V17.8092C9.84 18.0246 10.0123 18.2077 10.2062 18.2077H10.3354V18.3477H8.47232V18.2077H8.62308C8.79538 18.2077 8.97848 18.0246 8.97848 17.8092V13.4369H6.57693L6.58771 13.6415V17.8092C6.58771 18.0246 6.77077 18.2077 6.94308 18.2077H7.08308V18.3477H5.23077V18.2077H5.36C5.55385 18.2077 5.72615 18.0246 5.72615 17.8092V13.6415C5.72615 13.4261 5.55385 13.2323 5.36 13.2323H5.23077V13.06ZM23.2585 15.1277H23.4739C23.4739 14.6323 23.56 14.1369 23.7539 13.8784C24.0231 13.5123 24.3354 13.383 24.6908 13.383C25.8754 13.383 26.22 14.8692 26.22 15.8169C26.22 16.3554 26.0908 17.3138 25.5954 17.7015C25.0139 18.2077 24.2923 17.8954 23.84 17.4C23.3015 16.7538 22.9785 15.8169 22.8492 14.9554C22.6554 13.5554 23.0216 11.6492 24.8308 11.7569H25.3369C25.8754 11.7569 26.22 11.6492 26.5431 11.4769C26.8231 11.3046 26.9954 11.0246 27.0385 10.6154H26.9092C26.8662 10.7554 26.7261 10.8523 26.5861 10.8954C26.4138 10.9384 26.0908 10.9815 25.6385 10.9384H24.9169C24.0662 10.9384 23.4308 11.2615 22.9785 11.9292C22.5262 12.6077 22.3108 13.4692 22.3108 14.9123C22.3108 16.0861 22.5262 16.9907 22.9785 17.5292C23.4308 18.1107 24.0662 18.3907 24.8308 18.3907C26.3277 18.3907 27.2216 17.0338 27.2216 15.5907C27.2216 14.1369 26.3277 12.9738 24.8738 12.9738C23.6461 13.0169 23.1077 13.9646 23.2585 15.1277Z" fill="white"/>
</svg>
